%TF.GenerationSoftware,KiCad,Pcbnew,(5.1.8)-1*%
%TF.CreationDate,2021-03-13T21:34:25+00:00*%
%TF.ProjectId,Trio,5472696f-2e6b-4696-9361-645f70636258,rev?*%
%TF.SameCoordinates,Original*%
%TF.FileFunction,Soldermask,Top*%
%TF.FilePolarity,Negative*%
%FSLAX46Y46*%
G04 Gerber Fmt 4.6, Leading zero omitted, Abs format (unit mm)*
G04 Created by KiCad (PCBNEW (5.1.8)-1) date 2021-03-13 21:34:25*
%MOMM*%
%LPD*%
G01*
G04 APERTURE LIST*
%ADD10O,1.600000X1.600000*%
%ADD11R,1.600000X1.600000*%
%ADD12R,0.900000X0.800000*%
%ADD13R,0.800000X0.900000*%
%ADD14R,0.900000X1.200000*%
%ADD15O,1.700000X1.700000*%
%ADD16R,1.700000X1.700000*%
%ADD17C,1.524000*%
%ADD18R,1.524000X1.524000*%
%ADD19R,1.800000X4.400000*%
%ADD20O,1.800000X4.000000*%
%ADD21O,4.000000X1.800000*%
%ADD22C,2.700000*%
%ADD23C,3.615000*%
%ADD24C,3.330000*%
%ADD25R,1.520000X1.520000*%
%ADD26C,3.250000*%
%ADD27C,1.520000*%
%ADD28C,2.200000*%
%ADD29O,2.400000X4.800000*%
%ADD30O,3.400000X1.700000*%
G04 APERTURE END LIST*
D10*
%TO.C,A1*%
X105940000Y-136740000D03*
X105940000Y-121500000D03*
X141500000Y-136740000D03*
X108480000Y-121500000D03*
X138960000Y-136740000D03*
X111020000Y-121500000D03*
X136420000Y-136740000D03*
X113560000Y-121500000D03*
X133880000Y-136740000D03*
X116100000Y-121500000D03*
X131340000Y-136740000D03*
X118640000Y-121500000D03*
X128800000Y-136740000D03*
X121180000Y-121500000D03*
X126260000Y-136740000D03*
X123720000Y-121500000D03*
X123720000Y-136740000D03*
X126260000Y-121500000D03*
X121180000Y-136740000D03*
X128800000Y-121500000D03*
X118640000Y-136740000D03*
X131340000Y-121500000D03*
X116100000Y-136740000D03*
X133880000Y-121500000D03*
X113560000Y-136740000D03*
X136420000Y-121500000D03*
X111020000Y-136740000D03*
X138960000Y-121500000D03*
X108480000Y-136740000D03*
D11*
X141500000Y-121500000D03*
%TD*%
D12*
%TO.C,Q8*%
X123500000Y-75750000D03*
X121500000Y-76700000D03*
X121500000Y-74800000D03*
%TD*%
D13*
%TO.C,Q7*%
X116750000Y-105000000D03*
X117700000Y-107000000D03*
X115800000Y-107000000D03*
%TD*%
D12*
%TO.C,Q6*%
X122500000Y-90500000D03*
X120500000Y-91450000D03*
X120500000Y-89550000D03*
%TD*%
D13*
%TO.C,Q5*%
X174250000Y-118250000D03*
X175200000Y-120250000D03*
X173300000Y-120250000D03*
%TD*%
%TO.C,Q4*%
X174250000Y-115750000D03*
X173300000Y-113750000D03*
X175200000Y-113750000D03*
%TD*%
D12*
%TO.C,Q3*%
X174000000Y-95750000D03*
X176000000Y-94800000D03*
X176000000Y-96700000D03*
%TD*%
%TO.C,F5*%
G36*
G01*
X115975000Y-75125000D02*
X115975000Y-76375000D01*
G75*
G02*
X115725000Y-76625000I-250000J0D01*
G01*
X114975000Y-76625000D01*
G75*
G02*
X114725000Y-76375000I0J250000D01*
G01*
X114725000Y-75125000D01*
G75*
G02*
X114975000Y-74875000I250000J0D01*
G01*
X115725000Y-74875000D01*
G75*
G02*
X115975000Y-75125000I0J-250000D01*
G01*
G37*
G36*
G01*
X118775000Y-75125000D02*
X118775000Y-76375000D01*
G75*
G02*
X118525000Y-76625000I-250000J0D01*
G01*
X117775000Y-76625000D01*
G75*
G02*
X117525000Y-76375000I0J250000D01*
G01*
X117525000Y-75125000D01*
G75*
G02*
X117775000Y-74875000I250000J0D01*
G01*
X118525000Y-74875000D01*
G75*
G02*
X118775000Y-75125000I0J-250000D01*
G01*
G37*
%TD*%
%TO.C,F2*%
G36*
G01*
X115725000Y-89625000D02*
X115725000Y-90875000D01*
G75*
G02*
X115475000Y-91125000I-250000J0D01*
G01*
X114725000Y-91125000D01*
G75*
G02*
X114475000Y-90875000I0J250000D01*
G01*
X114475000Y-89625000D01*
G75*
G02*
X114725000Y-89375000I250000J0D01*
G01*
X115475000Y-89375000D01*
G75*
G02*
X115725000Y-89625000I0J-250000D01*
G01*
G37*
G36*
G01*
X118525000Y-89625000D02*
X118525000Y-90875000D01*
G75*
G02*
X118275000Y-91125000I-250000J0D01*
G01*
X117525000Y-91125000D01*
G75*
G02*
X117275000Y-90875000I0J250000D01*
G01*
X117275000Y-89625000D01*
G75*
G02*
X117525000Y-89375000I250000J0D01*
G01*
X118275000Y-89375000D01*
G75*
G02*
X118525000Y-89625000I0J-250000D01*
G01*
G37*
%TD*%
D14*
%TO.C,D1*%
X135100000Y-77250000D03*
X138400000Y-77250000D03*
%TD*%
D12*
%TO.C,Q2*%
X142000000Y-140500000D03*
X144000000Y-139550000D03*
X144000000Y-141450000D03*
%TD*%
D13*
%TO.C,Q1*%
X143000000Y-75500000D03*
X143950000Y-77500000D03*
X142050000Y-77500000D03*
%TD*%
%TO.C,R7*%
G36*
G01*
X129700001Y-100350000D02*
X128799999Y-100350000D01*
G75*
G02*
X128550000Y-100100001I0J249999D01*
G01*
X128550000Y-99574999D01*
G75*
G02*
X128799999Y-99325000I249999J0D01*
G01*
X129700001Y-99325000D01*
G75*
G02*
X129950000Y-99574999I0J-249999D01*
G01*
X129950000Y-100100001D01*
G75*
G02*
X129700001Y-100350000I-249999J0D01*
G01*
G37*
G36*
G01*
X129700001Y-102175000D02*
X128799999Y-102175000D01*
G75*
G02*
X128550000Y-101925001I0J249999D01*
G01*
X128550000Y-101399999D01*
G75*
G02*
X128799999Y-101150000I249999J0D01*
G01*
X129700001Y-101150000D01*
G75*
G02*
X129950000Y-101399999I0J-249999D01*
G01*
X129950000Y-101925001D01*
G75*
G02*
X129700001Y-102175000I-249999J0D01*
G01*
G37*
%TD*%
D15*
%TO.C,J2*%
X131790000Y-109830000D03*
X129250000Y-109830000D03*
X131790000Y-107290000D03*
X129250000Y-107290000D03*
X131790000Y-104750000D03*
D16*
X129250000Y-104750000D03*
%TD*%
D17*
%TO.C,U1*%
X151368000Y-86460000D03*
X149717000Y-85190000D03*
X149717000Y-87730000D03*
D18*
X167497000Y-90270000D03*
D17*
X164957000Y-90270000D03*
X162417000Y-90270000D03*
X159877000Y-90270000D03*
X157337000Y-90270000D03*
X154797000Y-90270000D03*
X152257000Y-90270000D03*
X149717000Y-90270000D03*
X149717000Y-77570000D03*
X152257000Y-77570000D03*
X154797000Y-77570000D03*
X157337000Y-77570000D03*
X159877000Y-77570000D03*
X162417000Y-77570000D03*
X164957000Y-77570000D03*
X167497000Y-77570000D03*
%TD*%
D15*
%TO.C,PINOUT1*%
X132460000Y-80300000D03*
X135000000Y-80300000D03*
X132460000Y-82840000D03*
X135000000Y-82840000D03*
X132460000Y-85380000D03*
X135000000Y-85380000D03*
X132460000Y-87920000D03*
X135000000Y-87920000D03*
X132460000Y-90460000D03*
X135000000Y-90460000D03*
X132460000Y-93000000D03*
D16*
X135000000Y-93000000D03*
%TD*%
%TO.C,C1*%
G36*
G01*
X143450000Y-84450000D02*
X144550000Y-84450000D01*
G75*
G02*
X144800000Y-84700000I0J-250000D01*
G01*
X144800000Y-87700000D01*
G75*
G02*
X144550000Y-87950000I-250000J0D01*
G01*
X143450000Y-87950000D01*
G75*
G02*
X143200000Y-87700000I0J250000D01*
G01*
X143200000Y-84700000D01*
G75*
G02*
X143450000Y-84450000I250000J0D01*
G01*
G37*
G36*
G01*
X143450000Y-79050000D02*
X144550000Y-79050000D01*
G75*
G02*
X144800000Y-79300000I0J-250000D01*
G01*
X144800000Y-82300000D01*
G75*
G02*
X144550000Y-82550000I-250000J0D01*
G01*
X143450000Y-82550000D01*
G75*
G02*
X143200000Y-82300000I0J250000D01*
G01*
X143200000Y-79300000D01*
G75*
G02*
X143450000Y-79050000I250000J0D01*
G01*
G37*
%TD*%
%TO.C,R6*%
G36*
G01*
X123900000Y-86950001D02*
X123900000Y-86049999D01*
G75*
G02*
X124149999Y-85800000I249999J0D01*
G01*
X124675001Y-85800000D01*
G75*
G02*
X124925000Y-86049999I0J-249999D01*
G01*
X124925000Y-86950001D01*
G75*
G02*
X124675001Y-87200000I-249999J0D01*
G01*
X124149999Y-87200000D01*
G75*
G02*
X123900000Y-86950001I0J249999D01*
G01*
G37*
G36*
G01*
X122075000Y-86950001D02*
X122075000Y-86049999D01*
G75*
G02*
X122324999Y-85800000I249999J0D01*
G01*
X122850001Y-85800000D01*
G75*
G02*
X123100000Y-86049999I0J-249999D01*
G01*
X123100000Y-86950001D01*
G75*
G02*
X122850001Y-87200000I-249999J0D01*
G01*
X122324999Y-87200000D01*
G75*
G02*
X122075000Y-86950001I0J249999D01*
G01*
G37*
%TD*%
%TO.C,R5*%
G36*
G01*
X123900000Y-105450001D02*
X123900000Y-104549999D01*
G75*
G02*
X124149999Y-104300000I249999J0D01*
G01*
X124675001Y-104300000D01*
G75*
G02*
X124925000Y-104549999I0J-249999D01*
G01*
X124925000Y-105450001D01*
G75*
G02*
X124675001Y-105700000I-249999J0D01*
G01*
X124149999Y-105700000D01*
G75*
G02*
X123900000Y-105450001I0J249999D01*
G01*
G37*
G36*
G01*
X122075000Y-105450001D02*
X122075000Y-104549999D01*
G75*
G02*
X122324999Y-104300000I249999J0D01*
G01*
X122850001Y-104300000D01*
G75*
G02*
X123100000Y-104549999I0J-249999D01*
G01*
X123100000Y-105450001D01*
G75*
G02*
X122850001Y-105700000I-249999J0D01*
G01*
X122324999Y-105700000D01*
G75*
G02*
X122075000Y-105450001I0J249999D01*
G01*
G37*
%TD*%
%TO.C,R4*%
G36*
G01*
X169100000Y-97049999D02*
X169100000Y-97950001D01*
G75*
G02*
X168850001Y-98200000I-249999J0D01*
G01*
X168324999Y-98200000D01*
G75*
G02*
X168075000Y-97950001I0J249999D01*
G01*
X168075000Y-97049999D01*
G75*
G02*
X168324999Y-96800000I249999J0D01*
G01*
X168850001Y-96800000D01*
G75*
G02*
X169100000Y-97049999I0J-249999D01*
G01*
G37*
G36*
G01*
X170925000Y-97049999D02*
X170925000Y-97950001D01*
G75*
G02*
X170675001Y-98200000I-249999J0D01*
G01*
X170149999Y-98200000D01*
G75*
G02*
X169900000Y-97950001I0J249999D01*
G01*
X169900000Y-97049999D01*
G75*
G02*
X170149999Y-96800000I249999J0D01*
G01*
X170675001Y-96800000D01*
G75*
G02*
X170925000Y-97049999I0J-249999D01*
G01*
G37*
%TD*%
%TO.C,R3*%
G36*
G01*
X123100000Y-101549999D02*
X123100000Y-102450001D01*
G75*
G02*
X122850001Y-102700000I-249999J0D01*
G01*
X122324999Y-102700000D01*
G75*
G02*
X122075000Y-102450001I0J249999D01*
G01*
X122075000Y-101549999D01*
G75*
G02*
X122324999Y-101300000I249999J0D01*
G01*
X122850001Y-101300000D01*
G75*
G02*
X123100000Y-101549999I0J-249999D01*
G01*
G37*
G36*
G01*
X124925000Y-101549999D02*
X124925000Y-102450001D01*
G75*
G02*
X124675001Y-102700000I-249999J0D01*
G01*
X124149999Y-102700000D01*
G75*
G02*
X123900000Y-102450001I0J249999D01*
G01*
X123900000Y-101549999D01*
G75*
G02*
X124149999Y-101300000I249999J0D01*
G01*
X124675001Y-101300000D01*
G75*
G02*
X124925000Y-101549999I0J-249999D01*
G01*
G37*
%TD*%
%TO.C,R2*%
G36*
G01*
X123100000Y-83549999D02*
X123100000Y-84450001D01*
G75*
G02*
X122850001Y-84700000I-249999J0D01*
G01*
X122324999Y-84700000D01*
G75*
G02*
X122075000Y-84450001I0J249999D01*
G01*
X122075000Y-83549999D01*
G75*
G02*
X122324999Y-83300000I249999J0D01*
G01*
X122850001Y-83300000D01*
G75*
G02*
X123100000Y-83549999I0J-249999D01*
G01*
G37*
G36*
G01*
X124925000Y-83549999D02*
X124925000Y-84450001D01*
G75*
G02*
X124675001Y-84700000I-249999J0D01*
G01*
X124149999Y-84700000D01*
G75*
G02*
X123900000Y-84450001I0J249999D01*
G01*
X123900000Y-83549999D01*
G75*
G02*
X124149999Y-83300000I249999J0D01*
G01*
X124675001Y-83300000D01*
G75*
G02*
X124925000Y-83549999I0J-249999D01*
G01*
G37*
%TD*%
%TO.C,R1*%
G36*
G01*
X169900000Y-100450001D02*
X169900000Y-99549999D01*
G75*
G02*
X170149999Y-99300000I249999J0D01*
G01*
X170675001Y-99300000D01*
G75*
G02*
X170925000Y-99549999I0J-249999D01*
G01*
X170925000Y-100450001D01*
G75*
G02*
X170675001Y-100700000I-249999J0D01*
G01*
X170149999Y-100700000D01*
G75*
G02*
X169900000Y-100450001I0J249999D01*
G01*
G37*
G36*
G01*
X168075000Y-100450001D02*
X168075000Y-99549999D01*
G75*
G02*
X168324999Y-99300000I249999J0D01*
G01*
X168850001Y-99300000D01*
G75*
G02*
X169100000Y-99549999I0J-249999D01*
G01*
X169100000Y-100450001D01*
G75*
G02*
X168850001Y-100700000I-249999J0D01*
G01*
X168324999Y-100700000D01*
G75*
G02*
X168075000Y-100450001I0J249999D01*
G01*
G37*
%TD*%
D19*
%TO.C,PO3*%
X113500000Y-113500000D03*
D20*
X107700000Y-113500000D03*
D21*
X110500000Y-118300000D03*
%TD*%
D19*
%TO.C,PO2*%
X178500000Y-133000000D03*
D20*
X184300000Y-133000000D03*
D21*
X181500000Y-128200000D03*
%TD*%
D19*
%TO.C,PO1*%
X178500000Y-119500000D03*
D20*
X184300000Y-119500000D03*
D21*
X181500000Y-114700000D03*
%TD*%
D22*
%TO.C,PI1*%
X165000000Y-128050000D03*
D23*
X165000000Y-134700000D03*
D24*
X170950000Y-133550000D03*
X170950000Y-138750000D03*
D22*
X165000000Y-139700000D03*
D24*
X159050000Y-138750000D03*
X159050000Y-133550000D03*
%TD*%
D13*
%TO.C,NM5*%
X123500000Y-97500000D03*
X124450000Y-99500000D03*
X122550000Y-99500000D03*
%TD*%
%TO.C,NM3*%
X123500000Y-79500000D03*
X124450000Y-81500000D03*
X122550000Y-81500000D03*
%TD*%
%TO.C,NM2*%
X169500000Y-104500000D03*
X168550000Y-102500000D03*
X170450000Y-102500000D03*
%TD*%
D25*
%TO.C,J1*%
X175500000Y-89000000D03*
D26*
X184390000Y-90910000D03*
D27*
X178040000Y-87730000D03*
X175500000Y-86460000D03*
X178040000Y-85190000D03*
X175500000Y-83920000D03*
X178040000Y-82650000D03*
D26*
X184390000Y-80750000D03*
%TD*%
D28*
%TO.C,H4*%
X105000000Y-75500000D03*
%TD*%
%TO.C,H3*%
X187000000Y-75500000D03*
%TD*%
%TO.C,H2*%
X187000000Y-141000000D03*
%TD*%
%TO.C,H1*%
X105000000Y-141000000D03*
%TD*%
%TO.C,F8*%
G36*
G01*
X135975000Y-74125000D02*
X135975000Y-75375000D01*
G75*
G02*
X135725000Y-75625000I-250000J0D01*
G01*
X134975000Y-75625000D01*
G75*
G02*
X134725000Y-75375000I0J250000D01*
G01*
X134725000Y-74125000D01*
G75*
G02*
X134975000Y-73875000I250000J0D01*
G01*
X135725000Y-73875000D01*
G75*
G02*
X135975000Y-74125000I0J-250000D01*
G01*
G37*
G36*
G01*
X138775000Y-74125000D02*
X138775000Y-75375000D01*
G75*
G02*
X138525000Y-75625000I-250000J0D01*
G01*
X137775000Y-75625000D01*
G75*
G02*
X137525000Y-75375000I0J250000D01*
G01*
X137525000Y-74125000D01*
G75*
G02*
X137775000Y-73875000I250000J0D01*
G01*
X138525000Y-73875000D01*
G75*
G02*
X138775000Y-74125000I0J-250000D01*
G01*
G37*
%TD*%
%TO.C,F7*%
G36*
G01*
X138775000Y-141125000D02*
X138775000Y-139875000D01*
G75*
G02*
X139025000Y-139625000I250000J0D01*
G01*
X139775000Y-139625000D01*
G75*
G02*
X140025000Y-139875000I0J-250000D01*
G01*
X140025000Y-141125000D01*
G75*
G02*
X139775000Y-141375000I-250000J0D01*
G01*
X139025000Y-141375000D01*
G75*
G02*
X138775000Y-141125000I0J250000D01*
G01*
G37*
G36*
G01*
X135975000Y-141125000D02*
X135975000Y-139875000D01*
G75*
G02*
X136225000Y-139625000I250000J0D01*
G01*
X136975000Y-139625000D01*
G75*
G02*
X137225000Y-139875000I0J-250000D01*
G01*
X137225000Y-141125000D01*
G75*
G02*
X136975000Y-141375000I-250000J0D01*
G01*
X136225000Y-141375000D01*
G75*
G02*
X135975000Y-141125000I0J250000D01*
G01*
G37*
%TD*%
%TO.C,F6*%
G36*
G01*
X118125000Y-111225000D02*
X116875000Y-111225000D01*
G75*
G02*
X116625000Y-110975000I0J250000D01*
G01*
X116625000Y-110225000D01*
G75*
G02*
X116875000Y-109975000I250000J0D01*
G01*
X118125000Y-109975000D01*
G75*
G02*
X118375000Y-110225000I0J-250000D01*
G01*
X118375000Y-110975000D01*
G75*
G02*
X118125000Y-111225000I-250000J0D01*
G01*
G37*
G36*
G01*
X118125000Y-114025000D02*
X116875000Y-114025000D01*
G75*
G02*
X116625000Y-113775000I0J250000D01*
G01*
X116625000Y-113025000D01*
G75*
G02*
X116875000Y-112775000I250000J0D01*
G01*
X118125000Y-112775000D01*
G75*
G02*
X118375000Y-113025000I0J-250000D01*
G01*
X118375000Y-113775000D01*
G75*
G02*
X118125000Y-114025000I-250000J0D01*
G01*
G37*
%TD*%
%TO.C,F4*%
G36*
G01*
X175875000Y-122975000D02*
X174625000Y-122975000D01*
G75*
G02*
X174375000Y-122725000I0J250000D01*
G01*
X174375000Y-121975000D01*
G75*
G02*
X174625000Y-121725000I250000J0D01*
G01*
X175875000Y-121725000D01*
G75*
G02*
X176125000Y-121975000I0J-250000D01*
G01*
X176125000Y-122725000D01*
G75*
G02*
X175875000Y-122975000I-250000J0D01*
G01*
G37*
G36*
G01*
X175875000Y-125775000D02*
X174625000Y-125775000D01*
G75*
G02*
X174375000Y-125525000I0J250000D01*
G01*
X174375000Y-124775000D01*
G75*
G02*
X174625000Y-124525000I250000J0D01*
G01*
X175875000Y-124525000D01*
G75*
G02*
X176125000Y-124775000I0J-250000D01*
G01*
X176125000Y-125525000D01*
G75*
G02*
X175875000Y-125775000I-250000J0D01*
G01*
G37*
%TD*%
%TO.C,F3*%
G36*
G01*
X173475000Y-110875000D02*
X173475000Y-112125000D01*
G75*
G02*
X173225000Y-112375000I-250000J0D01*
G01*
X172475000Y-112375000D01*
G75*
G02*
X172225000Y-112125000I0J250000D01*
G01*
X172225000Y-110875000D01*
G75*
G02*
X172475000Y-110625000I250000J0D01*
G01*
X173225000Y-110625000D01*
G75*
G02*
X173475000Y-110875000I0J-250000D01*
G01*
G37*
G36*
G01*
X176275000Y-110875000D02*
X176275000Y-112125000D01*
G75*
G02*
X176025000Y-112375000I-250000J0D01*
G01*
X175275000Y-112375000D01*
G75*
G02*
X175025000Y-112125000I0J250000D01*
G01*
X175025000Y-110875000D01*
G75*
G02*
X175275000Y-110625000I250000J0D01*
G01*
X176025000Y-110625000D01*
G75*
G02*
X176275000Y-110875000I0J-250000D01*
G01*
G37*
%TD*%
%TO.C,F1*%
G36*
G01*
X180275000Y-96125000D02*
X180275000Y-94875000D01*
G75*
G02*
X180525000Y-94625000I250000J0D01*
G01*
X181275000Y-94625000D01*
G75*
G02*
X181525000Y-94875000I0J-250000D01*
G01*
X181525000Y-96125000D01*
G75*
G02*
X181275000Y-96375000I-250000J0D01*
G01*
X180525000Y-96375000D01*
G75*
G02*
X180275000Y-96125000I0J250000D01*
G01*
G37*
G36*
G01*
X177475000Y-96125000D02*
X177475000Y-94875000D01*
G75*
G02*
X177725000Y-94625000I250000J0D01*
G01*
X178475000Y-94625000D01*
G75*
G02*
X178725000Y-94875000I0J-250000D01*
G01*
X178725000Y-96125000D01*
G75*
G02*
X178475000Y-96375000I-250000J0D01*
G01*
X177725000Y-96375000D01*
G75*
G02*
X177475000Y-96125000I0J250000D01*
G01*
G37*
%TD*%
D29*
%TO.C,DO3*%
X113500000Y-98000000D03*
D30*
X118000000Y-98000000D03*
%TD*%
D29*
%TO.C,DO2*%
X113500000Y-83000000D03*
D30*
X118000000Y-83000000D03*
%TD*%
D29*
%TO.C,DO1*%
X178500000Y-104000000D03*
D30*
X174000000Y-104000000D03*
%TD*%
M02*
