M48
; DRILL file {KiCad (5.1.8)-1} date 03/13/21 21:34:23
; FORMAT={-:-/ absolute / inch / decimal}
; #@! TF.CreationDate,2021-03-13T21:34:23+00:00
; #@! TF.GenerationSoftware,Kicad,Pcbnew,(5.1.8)-1
; #@! TF.FileFunction,Plated,1,4,PTH
FMAT,2
INCH
T1C0.0157
T2C0.0299
T3C0.0315
T4C0.0394
T5C0.0400
T6C0.0512
T7C0.0709
T8C0.0854
T9C0.0929
%
G90
G05
T1
X5.5118Y-3.937
X5.5217Y-3.0512
X6.063Y-3.189
X6.063Y-3.2283
X6.063Y-3.2677
X6.063Y-3.3071
X6.063Y-3.3465
X6.063Y-3.3858
X6.063Y-3.4252
X6.1024Y-3.189
X6.1024Y-3.2283
X6.1024Y-3.2677
X6.1024Y-3.3071
X6.1024Y-3.3465
X6.1024Y-3.3858
X6.1024Y-3.4252
X6.1417Y-3.189
X6.1417Y-3.2283
X6.1417Y-3.2677
X6.1417Y-3.3071
X6.1417Y-3.3465
X6.1417Y-3.3858
X6.1417Y-3.4252
X6.1811Y-3.189
X6.1811Y-3.2283
X6.1811Y-3.2677
X6.1811Y-3.3071
X6.1811Y-3.3465
X6.1811Y-3.3858
X6.1811Y-3.4252
X6.2205Y-3.189
X6.2205Y-3.2283
X6.2205Y-3.2677
X6.2205Y-3.3071
X6.2205Y-3.3465
X6.2205Y-3.3858
X6.2205Y-3.4252
X6.2598Y-3.189
X6.2598Y-3.2283
X6.2598Y-3.2677
X6.2598Y-3.3071
X6.2598Y-3.3465
X6.2598Y-3.3858
X6.2598Y-3.4252
X6.2992Y-3.189
X6.2992Y-3.2283
X6.2992Y-3.2677
X6.2992Y-3.3071
X6.2992Y-3.3465
X6.2992Y-3.3858
X6.2992Y-3.4252
X6.3386Y-3.189
X6.3386Y-3.2283
X6.3386Y-3.2677
X6.3386Y-3.3071
X6.3386Y-3.3465
X6.3386Y-3.3858
X6.3386Y-3.4252
X6.5551Y-3.8386
T2
X6.9094Y-3.3039
X6.9094Y-3.4039
X6.9094Y-3.5039
X7.0094Y-3.2539
X7.0094Y-3.3539
X7.0094Y-3.4539
T4
X4.2224Y-3.2677
X4.252Y-3.5728
X4.252Y-4.1535
X4.3898Y-5.5512
X4.4193Y-4.1339
X4.4193Y-4.2126
X4.8917Y-3.6811
X4.9606Y-3.6024
X5.0394Y-2.9823
X5.0394Y-3.1496
X5.1969Y-2.9724
X5.2067Y-5.5906
X5.2362Y-3.0512
X5.2461Y-5.4921
X5.4626Y-3.2972
X5.7874Y-5.5709
X6.1614Y-5.0787
X6.3189Y-5.0787
X6.6634Y-4.5374
X6.6634Y-4.6457
X6.6732Y-5.0787
X6.7421Y-4.4882
X6.7421Y-4.7047
X6.7618Y-4.813
X6.7717Y-3.7106
X6.7815Y-3.7992
X6.811Y-5.0787
X6.8406Y-3.8976
X6.9488Y-4.5374
X7.1457Y-2.9724
X7.372Y-4.9606
X5.215Y-3.1614
X5.215Y-3.2614
X5.215Y-3.3614
X5.215Y-3.4614
X5.215Y-3.5614
X5.215Y-3.6614
X5.315Y-3.1614
X5.315Y-3.2614
X5.315Y-3.3614
X5.315Y-3.4614
X5.315Y-3.5614
X5.315Y-3.6614
X4.1709Y-4.7835
X4.1709Y-5.3835
X4.2709Y-4.7835
X4.2709Y-5.3835
X4.3709Y-4.7835
X4.3709Y-5.3835
X4.4709Y-4.7835
X4.4709Y-5.3835
X4.5709Y-4.7835
X4.5709Y-5.3835
X4.6709Y-4.7835
X4.6709Y-5.3835
X4.7709Y-4.7835
X4.7709Y-5.3835
X4.8709Y-4.7835
X4.8709Y-5.3835
X4.9709Y-4.7835
X4.9709Y-5.3835
X5.0709Y-4.7835
X5.0709Y-5.3835
X5.1709Y-4.7835
X5.1709Y-5.3835
X5.2709Y-4.7835
X5.2709Y-5.3835
X5.3709Y-4.7835
X5.3709Y-5.3835
X5.4709Y-4.7835
X5.4709Y-5.3835
X5.5709Y-4.7835
X5.5709Y-5.3835
X5.0886Y-4.124
X5.0886Y-4.224
X5.0886Y-4.324
X5.1886Y-4.124
X5.1886Y-4.224
X5.1886Y-4.324
T5
X5.8944Y-3.0539
X5.8944Y-3.3539
X5.8944Y-3.4539
X5.8944Y-3.5539
X5.9594Y-3.4039
X5.9944Y-3.0539
X5.9944Y-3.5539
X6.0944Y-3.0539
X6.0944Y-3.5539
X6.1944Y-3.0539
X6.1944Y-3.5539
X6.2944Y-3.0539
X6.2944Y-3.5539
X6.3944Y-3.0539
X6.3944Y-3.5539
X6.4944Y-3.0539
X6.4944Y-3.5539
X6.5944Y-3.0539
X6.5944Y-3.5539
T7
X6.4961Y-5.0413
X6.4961Y-5.5
T8
X6.2618Y-5.2579
X6.2618Y-5.4626
X6.7303Y-5.2579
X6.7303Y-5.4626
T9
X6.4961Y-5.3031
T3
G00X7.0276Y-5.2874
M15
G01X7.0276Y-5.185
M16
G05
G00X7.189Y-5.0472
M15
G01X7.1024Y-5.0472
M16
G05
G00X7.2559Y-5.2795
M15
G01X7.2559Y-5.1929
M16
G05
G00X4.2402Y-4.4252
M15
G01X4.2402Y-4.5118
M16
G05
G00X4.3071Y-4.6575
M15
G01X4.3937Y-4.6575
M16
G05
G00X4.4685Y-4.4173
M15
G01X4.4685Y-4.5197
M16
G05
G00X7.0276Y-4.7559
M15
G01X7.0276Y-4.6535
M16
G05
G00X7.189Y-4.5157
M15
G01X7.1024Y-4.5157
M16
G05
G00X7.2559Y-4.748
M15
G01X7.2559Y-4.6614
M16
G05
T4
G00X4.6713Y-3.2677
M15
G01X4.6201Y-3.2677
M16
G05
G00X4.6713Y-3.8583
M15
G01X4.6201Y-3.8583
M16
G05
G00X6.8248Y-4.0945
M15
G01X6.876Y-4.0945
M16
G05
T6
G00X4.4685Y-3.3091
M15
G01X4.4685Y-3.2264
M16
G05
G00X4.4685Y-3.8996
M15
G01X4.4685Y-3.8169
M16
G05
G00X7.0276Y-4.0531
M15
G01X7.0276Y-4.1358
M16
G05
T0
M30
