%TF.GenerationSoftware,KiCad,Pcbnew,(5.1.8)-1*%
%TF.CreationDate,2021-03-13T21:34:25+00:00*%
%TF.ProjectId,Trio,5472696f-2e6b-4696-9361-645f70636258,rev?*%
%TF.SameCoordinates,Original*%
%TF.FileFunction,Soldermask,Bot*%
%TF.FilePolarity,Negative*%
%FSLAX46Y46*%
G04 Gerber Fmt 4.6, Leading zero omitted, Abs format (unit mm)*
G04 Created by KiCad (PCBNEW (5.1.8)-1) date 2021-03-13 21:34:25*
%MOMM*%
%LPD*%
G01*
G04 APERTURE LIST*
%ADD10O,1.600000X1.600000*%
%ADD11R,1.600000X1.600000*%
%ADD12O,1.700000X1.700000*%
%ADD13R,1.700000X1.700000*%
%ADD14C,1.524000*%
%ADD15R,1.524000X1.524000*%
%ADD16R,1.800000X4.400000*%
%ADD17O,1.800000X4.000000*%
%ADD18O,4.000000X1.800000*%
%ADD19C,2.700000*%
%ADD20C,3.615000*%
%ADD21C,3.330000*%
%ADD22R,1.520000X1.520000*%
%ADD23C,3.250000*%
%ADD24C,1.520000*%
%ADD25C,2.200000*%
%ADD26O,2.400000X4.800000*%
%ADD27O,3.400000X1.700000*%
G04 APERTURE END LIST*
D10*
%TO.C,A1*%
X105940000Y-136740000D03*
X105940000Y-121500000D03*
X141500000Y-136740000D03*
X108480000Y-121500000D03*
X138960000Y-136740000D03*
X111020000Y-121500000D03*
X136420000Y-136740000D03*
X113560000Y-121500000D03*
X133880000Y-136740000D03*
X116100000Y-121500000D03*
X131340000Y-136740000D03*
X118640000Y-121500000D03*
X128800000Y-136740000D03*
X121180000Y-121500000D03*
X126260000Y-136740000D03*
X123720000Y-121500000D03*
X123720000Y-136740000D03*
X126260000Y-121500000D03*
X121180000Y-136740000D03*
X128800000Y-121500000D03*
X118640000Y-136740000D03*
X131340000Y-121500000D03*
X116100000Y-136740000D03*
X133880000Y-121500000D03*
X113560000Y-136740000D03*
X136420000Y-121500000D03*
X111020000Y-136740000D03*
X138960000Y-121500000D03*
X108480000Y-136740000D03*
D11*
X141500000Y-121500000D03*
%TD*%
D12*
%TO.C,J2*%
X131790000Y-109830000D03*
X129250000Y-109830000D03*
X131790000Y-107290000D03*
X129250000Y-107290000D03*
X131790000Y-104750000D03*
D13*
X129250000Y-104750000D03*
%TD*%
D14*
%TO.C,U1*%
X151368000Y-86460000D03*
X149717000Y-85190000D03*
X149717000Y-87730000D03*
D15*
X167497000Y-90270000D03*
D14*
X164957000Y-90270000D03*
X162417000Y-90270000D03*
X159877000Y-90270000D03*
X157337000Y-90270000D03*
X154797000Y-90270000D03*
X152257000Y-90270000D03*
X149717000Y-90270000D03*
X149717000Y-77570000D03*
X152257000Y-77570000D03*
X154797000Y-77570000D03*
X157337000Y-77570000D03*
X159877000Y-77570000D03*
X162417000Y-77570000D03*
X164957000Y-77570000D03*
X167497000Y-77570000D03*
%TD*%
D12*
%TO.C,PINOUT1*%
X132460000Y-80300000D03*
X135000000Y-80300000D03*
X132460000Y-82840000D03*
X135000000Y-82840000D03*
X132460000Y-85380000D03*
X135000000Y-85380000D03*
X132460000Y-87920000D03*
X135000000Y-87920000D03*
X132460000Y-90460000D03*
X135000000Y-90460000D03*
X132460000Y-93000000D03*
D13*
X135000000Y-93000000D03*
%TD*%
D16*
%TO.C,PO3*%
X113500000Y-113500000D03*
D17*
X107700000Y-113500000D03*
D18*
X110500000Y-118300000D03*
%TD*%
D16*
%TO.C,PO2*%
X178500000Y-133000000D03*
D17*
X184300000Y-133000000D03*
D18*
X181500000Y-128200000D03*
%TD*%
D16*
%TO.C,PO1*%
X178500000Y-119500000D03*
D17*
X184300000Y-119500000D03*
D18*
X181500000Y-114700000D03*
%TD*%
D19*
%TO.C,PI1*%
X165000000Y-128050000D03*
D20*
X165000000Y-134700000D03*
D21*
X170950000Y-133550000D03*
X170950000Y-138750000D03*
D19*
X165000000Y-139700000D03*
D21*
X159050000Y-138750000D03*
X159050000Y-133550000D03*
%TD*%
D22*
%TO.C,J1*%
X175500000Y-89000000D03*
D23*
X184390000Y-90910000D03*
D24*
X178040000Y-87730000D03*
X175500000Y-86460000D03*
X178040000Y-85190000D03*
X175500000Y-83920000D03*
X178040000Y-82650000D03*
D23*
X184390000Y-80750000D03*
%TD*%
D25*
%TO.C,H4*%
X105000000Y-75500000D03*
%TD*%
%TO.C,H3*%
X187000000Y-75500000D03*
%TD*%
%TO.C,H2*%
X187000000Y-141000000D03*
%TD*%
%TO.C,H1*%
X105000000Y-141000000D03*
%TD*%
D26*
%TO.C,DO3*%
X113500000Y-98000000D03*
D27*
X118000000Y-98000000D03*
%TD*%
D26*
%TO.C,DO2*%
X113500000Y-83000000D03*
D27*
X118000000Y-83000000D03*
%TD*%
D26*
%TO.C,DO1*%
X178500000Y-104000000D03*
D27*
X174000000Y-104000000D03*
%TD*%
M02*
