%TF.GenerationSoftware,KiCad,Pcbnew,(5.1.8)-1*%
%TF.CreationDate,2021-03-13T21:34:25+00:00*%
%TF.ProjectId,Trio,5472696f-2e6b-4696-9361-645f70636258,rev?*%
%TF.SameCoordinates,Original*%
%TF.FileFunction,Legend,Top*%
%TF.FilePolarity,Positive*%
%FSLAX46Y46*%
G04 Gerber Fmt 4.6, Leading zero omitted, Abs format (unit mm)*
G04 Created by KiCad (PCBNEW (5.1.8)-1) date 2021-03-13 21:34:25*
%MOMM*%
%LPD*%
G01*
G04 APERTURE LIST*
%ADD10C,0.150000*%
%ADD11C,0.125000*%
%ADD12C,0.300000*%
%ADD13C,0.120000*%
%ADD14C,0.127000*%
%ADD15C,0.200000*%
%ADD16C,0.010000*%
%ADD17C,0.100000*%
%ADD18C,0.015000*%
%ADD19C,0.254000*%
G04 APERTURE END LIST*
D10*
X119880952Y-129202380D02*
X119880952Y-129916666D01*
X119833333Y-130059523D01*
X119738095Y-130154761D01*
X119595238Y-130202380D01*
X119500000Y-130202380D01*
X120833333Y-130202380D02*
X120357142Y-130202380D01*
X120357142Y-129202380D01*
X121738095Y-130107142D02*
X121690476Y-130154761D01*
X121547619Y-130202380D01*
X121452380Y-130202380D01*
X121309523Y-130154761D01*
X121214285Y-130059523D01*
X121166666Y-129964285D01*
X121119047Y-129773809D01*
X121119047Y-129630952D01*
X121166666Y-129440476D01*
X121214285Y-129345238D01*
X121309523Y-129250000D01*
X121452380Y-129202380D01*
X121547619Y-129202380D01*
X121690476Y-129250000D01*
X121738095Y-129297619D01*
X122452380Y-129202380D02*
X122452380Y-129916666D01*
X122404761Y-130059523D01*
X122309523Y-130154761D01*
X122166666Y-130202380D01*
X122071428Y-130202380D01*
X123404761Y-130202380D02*
X122928571Y-130202380D01*
X122928571Y-129202380D01*
X124309523Y-130107142D02*
X124261904Y-130154761D01*
X124119047Y-130202380D01*
X124023809Y-130202380D01*
X123880952Y-130154761D01*
X123785714Y-130059523D01*
X123738095Y-129964285D01*
X123690476Y-129773809D01*
X123690476Y-129630952D01*
X123738095Y-129440476D01*
X123785714Y-129345238D01*
X123880952Y-129250000D01*
X124023809Y-129202380D01*
X124119047Y-129202380D01*
X124261904Y-129250000D01*
X124309523Y-129297619D01*
X125023809Y-129202380D02*
X125023809Y-129916666D01*
X124976190Y-130059523D01*
X124880952Y-130154761D01*
X124738095Y-130202380D01*
X124642857Y-130202380D01*
X125976190Y-130202380D02*
X125500000Y-130202380D01*
X125500000Y-129202380D01*
X126880952Y-130107142D02*
X126833333Y-130154761D01*
X126690476Y-130202380D01*
X126595238Y-130202380D01*
X126452380Y-130154761D01*
X126357142Y-130059523D01*
X126309523Y-129964285D01*
X126261904Y-129773809D01*
X126261904Y-129630952D01*
X126309523Y-129440476D01*
X126357142Y-129345238D01*
X126452380Y-129250000D01*
X126595238Y-129202380D01*
X126690476Y-129202380D01*
X126833333Y-129250000D01*
X126880952Y-129297619D01*
X127595238Y-129202380D02*
X127595238Y-129916666D01*
X127547619Y-130059523D01*
X127452380Y-130154761D01*
X127309523Y-130202380D01*
X127214285Y-130202380D01*
X128547619Y-130202380D02*
X128071428Y-130202380D01*
X128071428Y-129202380D01*
X129452380Y-130107142D02*
X129404761Y-130154761D01*
X129261904Y-130202380D01*
X129166666Y-130202380D01*
X129023809Y-130154761D01*
X128928571Y-130059523D01*
X128880952Y-129964285D01*
X128833333Y-129773809D01*
X128833333Y-129630952D01*
X128880952Y-129440476D01*
X128928571Y-129345238D01*
X129023809Y-129250000D01*
X129166666Y-129202380D01*
X129261904Y-129202380D01*
X129404761Y-129250000D01*
X129452380Y-129297619D01*
D11*
X127559523Y-112476190D02*
X127559523Y-112880952D01*
X127583333Y-112928571D01*
X127607142Y-112952380D01*
X127654761Y-112976190D01*
X127750000Y-112976190D01*
X127797619Y-112952380D01*
X127821428Y-112928571D01*
X127845238Y-112880952D01*
X127845238Y-112476190D01*
X128059523Y-112833333D02*
X128297619Y-112833333D01*
X128011904Y-112976190D02*
X128178571Y-112476190D01*
X128345238Y-112976190D01*
X128797619Y-112976190D02*
X128630952Y-112738095D01*
X128511904Y-112976190D02*
X128511904Y-112476190D01*
X128702380Y-112476190D01*
X128750000Y-112500000D01*
X128773809Y-112523809D01*
X128797619Y-112571428D01*
X128797619Y-112642857D01*
X128773809Y-112690476D01*
X128750000Y-112714285D01*
X128702380Y-112738095D01*
X128511904Y-112738095D01*
X128940476Y-112476190D02*
X129226190Y-112476190D01*
X129083333Y-112976190D02*
X129083333Y-112476190D01*
X129916666Y-112476190D02*
X129916666Y-112833333D01*
X129892857Y-112904761D01*
X129845238Y-112952380D01*
X129773809Y-112976190D01*
X129726190Y-112976190D01*
X130154761Y-112476190D02*
X130154761Y-112880952D01*
X130178571Y-112928571D01*
X130202380Y-112952380D01*
X130250000Y-112976190D01*
X130345238Y-112976190D01*
X130392857Y-112952380D01*
X130416666Y-112928571D01*
X130440476Y-112880952D01*
X130440476Y-112476190D01*
X130678571Y-112976190D02*
X130678571Y-112476190D01*
X130845238Y-112833333D01*
X131011904Y-112476190D01*
X131011904Y-112976190D01*
X131250000Y-112976190D02*
X131250000Y-112476190D01*
X131440476Y-112476190D01*
X131488095Y-112500000D01*
X131511904Y-112523809D01*
X131535714Y-112571428D01*
X131535714Y-112642857D01*
X131511904Y-112690476D01*
X131488095Y-112714285D01*
X131440476Y-112738095D01*
X131250000Y-112738095D01*
X131750000Y-112714285D02*
X131916666Y-112714285D01*
X131988095Y-112976190D02*
X131750000Y-112976190D01*
X131750000Y-112476190D01*
X131988095Y-112476190D01*
X132488095Y-112976190D02*
X132321428Y-112738095D01*
X132202380Y-112976190D02*
X132202380Y-112476190D01*
X132392857Y-112476190D01*
X132440476Y-112500000D01*
X132464285Y-112523809D01*
X132488095Y-112571428D01*
X132488095Y-112642857D01*
X132464285Y-112690476D01*
X132440476Y-112714285D01*
X132392857Y-112738095D01*
X132202380Y-112738095D01*
X132678571Y-112952380D02*
X132750000Y-112976190D01*
X132869047Y-112976190D01*
X132916666Y-112952380D01*
X132940476Y-112928571D01*
X132964285Y-112880952D01*
X132964285Y-112833333D01*
X132940476Y-112785714D01*
X132916666Y-112761904D01*
X132869047Y-112738095D01*
X132773809Y-112714285D01*
X132726190Y-112690476D01*
X132702380Y-112666666D01*
X132678571Y-112619047D01*
X132678571Y-112571428D01*
X132702380Y-112523809D01*
X132726190Y-112500000D01*
X132773809Y-112476190D01*
X132892857Y-112476190D01*
X132964285Y-112500000D01*
D10*
X133809523Y-110404761D02*
X133952380Y-110452380D01*
X134190476Y-110452380D01*
X134285714Y-110404761D01*
X134333333Y-110357142D01*
X134380952Y-110261904D01*
X134380952Y-110166666D01*
X134333333Y-110071428D01*
X134285714Y-110023809D01*
X134190476Y-109976190D01*
X134000000Y-109928571D01*
X133904761Y-109880952D01*
X133857142Y-109833333D01*
X133809523Y-109738095D01*
X133809523Y-109642857D01*
X133857142Y-109547619D01*
X133904761Y-109500000D01*
X134000000Y-109452380D01*
X134238095Y-109452380D01*
X134380952Y-109500000D01*
X135285714Y-110452380D02*
X134809523Y-110452380D01*
X134809523Y-109452380D01*
X135619047Y-110452380D02*
X135619047Y-109452380D01*
X136000000Y-109452380D01*
X136095238Y-109500000D01*
X136142857Y-109547619D01*
X136190476Y-109642857D01*
X136190476Y-109785714D01*
X136142857Y-109880952D01*
X136095238Y-109928571D01*
X136000000Y-109976190D01*
X135619047Y-109976190D01*
X134190476Y-107702380D02*
X134190476Y-106702380D01*
X134523809Y-107416666D01*
X134857142Y-106702380D01*
X134857142Y-107702380D01*
X135285714Y-106797619D02*
X135333333Y-106750000D01*
X135428571Y-106702380D01*
X135666666Y-106702380D01*
X135761904Y-106750000D01*
X135809523Y-106797619D01*
X135857142Y-106892857D01*
X135857142Y-106988095D01*
X135809523Y-107130952D01*
X135238095Y-107702380D01*
X135857142Y-107702380D01*
X134452380Y-105202380D02*
X134119047Y-104726190D01*
X133880952Y-105202380D02*
X133880952Y-104202380D01*
X134261904Y-104202380D01*
X134357142Y-104250000D01*
X134404761Y-104297619D01*
X134452380Y-104392857D01*
X134452380Y-104535714D01*
X134404761Y-104630952D01*
X134357142Y-104678571D01*
X134261904Y-104726190D01*
X133880952Y-104726190D01*
X134833333Y-105154761D02*
X134976190Y-105202380D01*
X135214285Y-105202380D01*
X135309523Y-105154761D01*
X135357142Y-105107142D01*
X135404761Y-105011904D01*
X135404761Y-104916666D01*
X135357142Y-104821428D01*
X135309523Y-104773809D01*
X135214285Y-104726190D01*
X135023809Y-104678571D01*
X134928571Y-104630952D01*
X134880952Y-104583333D01*
X134833333Y-104488095D01*
X134833333Y-104392857D01*
X134880952Y-104297619D01*
X134928571Y-104250000D01*
X135023809Y-104202380D01*
X135261904Y-104202380D01*
X135404761Y-104250000D01*
X135690476Y-104202380D02*
X136261904Y-104202380D01*
X135976190Y-105202380D02*
X135976190Y-104202380D01*
X167952380Y-94000000D02*
X166952380Y-94000000D01*
X166952380Y-93761904D01*
X167000000Y-93619047D01*
X167095238Y-93523809D01*
X167190476Y-93476190D01*
X167380952Y-93428571D01*
X167523809Y-93428571D01*
X167714285Y-93476190D01*
X167809523Y-93523809D01*
X167904761Y-93619047D01*
X167952380Y-93761904D01*
X167952380Y-94000000D01*
X167952380Y-93000000D02*
X166952380Y-93000000D01*
X167952380Y-91952380D02*
X167476190Y-92285714D01*
X167952380Y-92523809D02*
X166952380Y-92523809D01*
X166952380Y-92142857D01*
X167000000Y-92047619D01*
X167047619Y-92000000D01*
X167142857Y-91952380D01*
X167285714Y-91952380D01*
X167380952Y-92000000D01*
X167428571Y-92047619D01*
X167476190Y-92142857D01*
X167476190Y-92523809D01*
X149678571Y-93488095D02*
X149678571Y-93154761D01*
X150202380Y-93011904D02*
X150202380Y-93488095D01*
X149202380Y-93488095D01*
X149202380Y-93011904D01*
X150202380Y-92583333D02*
X149202380Y-92583333D01*
X150202380Y-92011904D01*
X149202380Y-92011904D01*
X137035714Y-93654761D02*
X137178571Y-93702380D01*
X137416666Y-93702380D01*
X137511904Y-93654761D01*
X137559523Y-93607142D01*
X137607142Y-93511904D01*
X137607142Y-93416666D01*
X137559523Y-93321428D01*
X137511904Y-93273809D01*
X137416666Y-93226190D01*
X137226190Y-93178571D01*
X137130952Y-93130952D01*
X137083333Y-93083333D01*
X137035714Y-92988095D01*
X137035714Y-92892857D01*
X137083333Y-92797619D01*
X137130952Y-92750000D01*
X137226190Y-92702380D01*
X137464285Y-92702380D01*
X137607142Y-92750000D01*
X138035714Y-93702380D02*
X138035714Y-92702380D01*
X138273809Y-92702380D01*
X138416666Y-92750000D01*
X138511904Y-92845238D01*
X138559523Y-92940476D01*
X138607142Y-93130952D01*
X138607142Y-93273809D01*
X138559523Y-93464285D01*
X138511904Y-93559523D01*
X138416666Y-93654761D01*
X138273809Y-93702380D01*
X138035714Y-93702380D01*
X138988095Y-93416666D02*
X139464285Y-93416666D01*
X138892857Y-93702380D02*
X139226190Y-92702380D01*
X139559523Y-93702380D01*
X137059523Y-90904761D02*
X137202380Y-90952380D01*
X137440476Y-90952380D01*
X137535714Y-90904761D01*
X137583333Y-90857142D01*
X137630952Y-90761904D01*
X137630952Y-90666666D01*
X137583333Y-90571428D01*
X137535714Y-90523809D01*
X137440476Y-90476190D01*
X137250000Y-90428571D01*
X137154761Y-90380952D01*
X137107142Y-90333333D01*
X137059523Y-90238095D01*
X137059523Y-90142857D01*
X137107142Y-90047619D01*
X137154761Y-90000000D01*
X137250000Y-89952380D01*
X137488095Y-89952380D01*
X137630952Y-90000000D01*
X138630952Y-90857142D02*
X138583333Y-90904761D01*
X138440476Y-90952380D01*
X138345238Y-90952380D01*
X138202380Y-90904761D01*
X138107142Y-90809523D01*
X138059523Y-90714285D01*
X138011904Y-90523809D01*
X138011904Y-90380952D01*
X138059523Y-90190476D01*
X138107142Y-90095238D01*
X138202380Y-90000000D01*
X138345238Y-89952380D01*
X138440476Y-89952380D01*
X138583333Y-90000000D01*
X138630952Y-90047619D01*
X139535714Y-90952380D02*
X139059523Y-90952380D01*
X139059523Y-89952380D01*
X137250000Y-88166666D02*
X137726190Y-88166666D01*
X137154761Y-88452380D02*
X137488095Y-87452380D01*
X137821428Y-88452380D01*
X138583333Y-87452380D02*
X138392857Y-87452380D01*
X138297619Y-87500000D01*
X138250000Y-87547619D01*
X138154761Y-87690476D01*
X138107142Y-87880952D01*
X138107142Y-88261904D01*
X138154761Y-88357142D01*
X138202380Y-88404761D01*
X138297619Y-88452380D01*
X138488095Y-88452380D01*
X138583333Y-88404761D01*
X138630952Y-88357142D01*
X138678571Y-88261904D01*
X138678571Y-88023809D01*
X138630952Y-87928571D01*
X138583333Y-87880952D01*
X138488095Y-87833333D01*
X138297619Y-87833333D01*
X138202380Y-87880952D01*
X138154761Y-87928571D01*
X138107142Y-88023809D01*
X138964285Y-87547619D02*
X139154761Y-87404761D01*
X139345238Y-87547619D01*
X137250000Y-85666666D02*
X137726190Y-85666666D01*
X137154761Y-85952380D02*
X137488095Y-84952380D01*
X137821428Y-85952380D01*
X138059523Y-84952380D02*
X138726190Y-84952380D01*
X138297619Y-85952380D01*
X138964285Y-85047619D02*
X139154761Y-84904761D01*
X139345238Y-85047619D01*
X137559523Y-82202380D02*
X137083333Y-82202380D01*
X137035714Y-82678571D01*
X137083333Y-82630952D01*
X137178571Y-82583333D01*
X137416666Y-82583333D01*
X137511904Y-82630952D01*
X137559523Y-82678571D01*
X137607142Y-82773809D01*
X137607142Y-83011904D01*
X137559523Y-83107142D01*
X137511904Y-83154761D01*
X137416666Y-83202380D01*
X137178571Y-83202380D01*
X137083333Y-83154761D01*
X137035714Y-83107142D01*
X137892857Y-82202380D02*
X138226190Y-83202380D01*
X138559523Y-82202380D01*
X137488095Y-80000000D02*
X137392857Y-79952380D01*
X137250000Y-79952380D01*
X137107142Y-80000000D01*
X137011904Y-80095238D01*
X136964285Y-80190476D01*
X136916666Y-80380952D01*
X136916666Y-80523809D01*
X136964285Y-80714285D01*
X137011904Y-80809523D01*
X137107142Y-80904761D01*
X137250000Y-80952380D01*
X137345238Y-80952380D01*
X137488095Y-80904761D01*
X137535714Y-80857142D01*
X137535714Y-80523809D01*
X137345238Y-80523809D01*
X137964285Y-80952380D02*
X137964285Y-79952380D01*
X138535714Y-80952380D01*
X138535714Y-79952380D01*
X139011904Y-80952380D02*
X139011904Y-79952380D01*
X139250000Y-79952380D01*
X139392857Y-80000000D01*
X139488095Y-80095238D01*
X139535714Y-80190476D01*
X139583333Y-80380952D01*
X139583333Y-80523809D01*
X139535714Y-80714285D01*
X139488095Y-80809523D01*
X139392857Y-80904761D01*
X139250000Y-80952380D01*
X139011904Y-80952380D01*
X128654761Y-93166666D02*
X129130952Y-93166666D01*
X128559523Y-93452380D02*
X128892857Y-92452380D01*
X129226190Y-93452380D01*
X129464285Y-92452380D02*
X130083333Y-92452380D01*
X129750000Y-92833333D01*
X129892857Y-92833333D01*
X129988095Y-92880952D01*
X130035714Y-92928571D01*
X130083333Y-93023809D01*
X130083333Y-93261904D01*
X130035714Y-93357142D01*
X129988095Y-93404761D01*
X129892857Y-93452380D01*
X129607142Y-93452380D01*
X129511904Y-93404761D01*
X129464285Y-93357142D01*
X130654761Y-92452380D02*
X130654761Y-92690476D01*
X130416666Y-92595238D02*
X130654761Y-92690476D01*
X130892857Y-92595238D01*
X130511904Y-92880952D02*
X130654761Y-92690476D01*
X130797619Y-92880952D01*
X128654761Y-90666666D02*
X129130952Y-90666666D01*
X128559523Y-90952380D02*
X128892857Y-89952380D01*
X129226190Y-90952380D01*
X129511904Y-90047619D02*
X129559523Y-90000000D01*
X129654761Y-89952380D01*
X129892857Y-89952380D01*
X129988095Y-90000000D01*
X130035714Y-90047619D01*
X130083333Y-90142857D01*
X130083333Y-90238095D01*
X130035714Y-90380952D01*
X129464285Y-90952380D01*
X130083333Y-90952380D01*
X130654761Y-89952380D02*
X130654761Y-90190476D01*
X130416666Y-90095238D02*
X130654761Y-90190476D01*
X130892857Y-90095238D01*
X130511904Y-90380952D02*
X130654761Y-90190476D01*
X130797619Y-90380952D01*
X129035714Y-88166666D02*
X129511904Y-88166666D01*
X128940476Y-88452380D02*
X129273809Y-87452380D01*
X129607142Y-88452380D01*
X130130952Y-87452380D02*
X130226190Y-87452380D01*
X130321428Y-87500000D01*
X130369047Y-87547619D01*
X130416666Y-87642857D01*
X130464285Y-87833333D01*
X130464285Y-88071428D01*
X130416666Y-88261904D01*
X130369047Y-88357142D01*
X130321428Y-88404761D01*
X130226190Y-88452380D01*
X130130952Y-88452380D01*
X130035714Y-88404761D01*
X129988095Y-88357142D01*
X129940476Y-88261904D01*
X129892857Y-88071428D01*
X129892857Y-87833333D01*
X129940476Y-87642857D01*
X129988095Y-87547619D01*
X130035714Y-87500000D01*
X130130952Y-87452380D01*
X128011904Y-84952380D02*
X128630952Y-84952380D01*
X128297619Y-85333333D01*
X128440476Y-85333333D01*
X128535714Y-85380952D01*
X128583333Y-85428571D01*
X128630952Y-85523809D01*
X128630952Y-85761904D01*
X128583333Y-85857142D01*
X128535714Y-85904761D01*
X128440476Y-85952380D01*
X128154761Y-85952380D01*
X128059523Y-85904761D01*
X128011904Y-85857142D01*
X128916666Y-84952380D02*
X129250000Y-85952380D01*
X129583333Y-84952380D01*
X129821428Y-84952380D02*
X130440476Y-84952380D01*
X130107142Y-85333333D01*
X130250000Y-85333333D01*
X130345238Y-85380952D01*
X130392857Y-85428571D01*
X130440476Y-85523809D01*
X130440476Y-85761904D01*
X130392857Y-85857142D01*
X130345238Y-85904761D01*
X130250000Y-85952380D01*
X129964285Y-85952380D01*
X129869047Y-85904761D01*
X129821428Y-85857142D01*
X128035714Y-83452380D02*
X128035714Y-82452380D01*
X128273809Y-82452380D01*
X128416666Y-82500000D01*
X128511904Y-82595238D01*
X128559523Y-82690476D01*
X128607142Y-82880952D01*
X128607142Y-83023809D01*
X128559523Y-83214285D01*
X128511904Y-83309523D01*
X128416666Y-83404761D01*
X128273809Y-83452380D01*
X128035714Y-83452380D01*
X129559523Y-83452380D02*
X128988095Y-83452380D01*
X129273809Y-83452380D02*
X129273809Y-82452380D01*
X129178571Y-82595238D01*
X129083333Y-82690476D01*
X128988095Y-82738095D01*
X129892857Y-82452380D02*
X130511904Y-82452380D01*
X130178571Y-82833333D01*
X130321428Y-82833333D01*
X130416666Y-82880952D01*
X130464285Y-82928571D01*
X130511904Y-83023809D01*
X130511904Y-83261904D01*
X130464285Y-83357142D01*
X130416666Y-83404761D01*
X130321428Y-83452380D01*
X130035714Y-83452380D01*
X129940476Y-83404761D01*
X129892857Y-83357142D01*
X127404761Y-80952380D02*
X127404761Y-79952380D01*
X127642857Y-79952380D01*
X127785714Y-80000000D01*
X127880952Y-80095238D01*
X127928571Y-80190476D01*
X127976190Y-80380952D01*
X127976190Y-80523809D01*
X127928571Y-80714285D01*
X127880952Y-80809523D01*
X127785714Y-80904761D01*
X127642857Y-80952380D01*
X127404761Y-80952380D01*
X128928571Y-80952380D02*
X128357142Y-80952380D01*
X128642857Y-80952380D02*
X128642857Y-79952380D01*
X128547619Y-80095238D01*
X128452380Y-80190476D01*
X128357142Y-80238095D01*
X129309523Y-80047619D02*
X129357142Y-80000000D01*
X129452380Y-79952380D01*
X129690476Y-79952380D01*
X129785714Y-80000000D01*
X129833333Y-80047619D01*
X129880952Y-80142857D01*
X129880952Y-80238095D01*
X129833333Y-80380952D01*
X129261904Y-80952380D01*
X129880952Y-80952380D01*
X130452380Y-79952380D02*
X130452380Y-80190476D01*
X130214285Y-80095238D02*
X130452380Y-80190476D01*
X130690476Y-80095238D01*
X130309523Y-80380952D02*
X130452380Y-80190476D01*
X130595238Y-80380952D01*
D12*
X148714285Y-101404761D02*
X148047619Y-100452380D01*
X147571428Y-101404761D02*
X147571428Y-99404761D01*
X148333333Y-99404761D01*
X148523809Y-99500000D01*
X148619047Y-99595238D01*
X148714285Y-99785714D01*
X148714285Y-100071428D01*
X148619047Y-100261904D01*
X148523809Y-100357142D01*
X148333333Y-100452380D01*
X147571428Y-100452380D01*
X149857142Y-101404761D02*
X149666666Y-101309523D01*
X149571428Y-101214285D01*
X149476190Y-101023809D01*
X149476190Y-100452380D01*
X149571428Y-100261904D01*
X149666666Y-100166666D01*
X149857142Y-100071428D01*
X150142857Y-100071428D01*
X150333333Y-100166666D01*
X150428571Y-100261904D01*
X150523809Y-100452380D01*
X150523809Y-101023809D01*
X150428571Y-101214285D01*
X150333333Y-101309523D01*
X150142857Y-101404761D01*
X149857142Y-101404761D01*
X151380952Y-101404761D02*
X151380952Y-99404761D01*
X151380952Y-100357142D02*
X152523809Y-100357142D01*
X152523809Y-101404761D02*
X152523809Y-99404761D01*
X153380952Y-101309523D02*
X153666666Y-101404761D01*
X154142857Y-101404761D01*
X154333333Y-101309523D01*
X154428571Y-101214285D01*
X154523809Y-101023809D01*
X154523809Y-100833333D01*
X154428571Y-100642857D01*
X154333333Y-100547619D01*
X154142857Y-100452380D01*
X153761904Y-100357142D01*
X153571428Y-100261904D01*
X153476190Y-100166666D01*
X153380952Y-99976190D01*
X153380952Y-99785714D01*
X153476190Y-99595238D01*
X153571428Y-99500000D01*
X153761904Y-99404761D01*
X154238095Y-99404761D01*
X154523809Y-99500000D01*
X135726190Y-113104761D02*
X135059523Y-112152380D01*
X134583333Y-113104761D02*
X134583333Y-111104761D01*
X135345238Y-111104761D01*
X135535714Y-111200000D01*
X135630952Y-111295238D01*
X135726190Y-111485714D01*
X135726190Y-111771428D01*
X135630952Y-111961904D01*
X135535714Y-112057142D01*
X135345238Y-112152380D01*
X134583333Y-112152380D01*
X137345238Y-113009523D02*
X137154761Y-113104761D01*
X136773809Y-113104761D01*
X136583333Y-113009523D01*
X136488095Y-112819047D01*
X136488095Y-112057142D01*
X136583333Y-111866666D01*
X136773809Y-111771428D01*
X137154761Y-111771428D01*
X137345238Y-111866666D01*
X137440476Y-112057142D01*
X137440476Y-112247619D01*
X136488095Y-112438095D01*
X139154761Y-113104761D02*
X139154761Y-112057142D01*
X139059523Y-111866666D01*
X138869047Y-111771428D01*
X138488095Y-111771428D01*
X138297619Y-111866666D01*
X139154761Y-113009523D02*
X138964285Y-113104761D01*
X138488095Y-113104761D01*
X138297619Y-113009523D01*
X138202380Y-112819047D01*
X138202380Y-112628571D01*
X138297619Y-112438095D01*
X138488095Y-112342857D01*
X138964285Y-112342857D01*
X139154761Y-112247619D01*
X140392857Y-113104761D02*
X140202380Y-113009523D01*
X140107142Y-112819047D01*
X140107142Y-111104761D01*
X140869047Y-111771428D02*
X141630952Y-111771428D01*
X141154761Y-111104761D02*
X141154761Y-112819047D01*
X141250000Y-113009523D01*
X141440476Y-113104761D01*
X141630952Y-113104761D01*
X143154761Y-113104761D02*
X143154761Y-112057142D01*
X143059523Y-111866666D01*
X142869047Y-111771428D01*
X142488095Y-111771428D01*
X142297619Y-111866666D01*
X143154761Y-113009523D02*
X142964285Y-113104761D01*
X142488095Y-113104761D01*
X142297619Y-113009523D01*
X142202380Y-112819047D01*
X142202380Y-112628571D01*
X142297619Y-112438095D01*
X142488095Y-112342857D01*
X142964285Y-112342857D01*
X143154761Y-112247619D01*
X145535714Y-113009523D02*
X145821428Y-113104761D01*
X146297619Y-113104761D01*
X146488095Y-113009523D01*
X146583333Y-112914285D01*
X146678571Y-112723809D01*
X146678571Y-112533333D01*
X146583333Y-112342857D01*
X146488095Y-112247619D01*
X146297619Y-112152380D01*
X145916666Y-112057142D01*
X145726190Y-111961904D01*
X145630952Y-111866666D01*
X145535714Y-111676190D01*
X145535714Y-111485714D01*
X145630952Y-111295238D01*
X145726190Y-111200000D01*
X145916666Y-111104761D01*
X146392857Y-111104761D01*
X146678571Y-111200000D01*
X148392857Y-113009523D02*
X148202380Y-113104761D01*
X147821428Y-113104761D01*
X147630952Y-113009523D01*
X147535714Y-112914285D01*
X147440476Y-112723809D01*
X147440476Y-112152380D01*
X147535714Y-111961904D01*
X147630952Y-111866666D01*
X147821428Y-111771428D01*
X148202380Y-111771428D01*
X148392857Y-111866666D01*
X149535714Y-113104761D02*
X149345238Y-113009523D01*
X149250000Y-112914285D01*
X149154761Y-112723809D01*
X149154761Y-112152380D01*
X149250000Y-111961904D01*
X149345238Y-111866666D01*
X149535714Y-111771428D01*
X149821428Y-111771428D01*
X150011904Y-111866666D01*
X150107142Y-111961904D01*
X150202380Y-112152380D01*
X150202380Y-112723809D01*
X150107142Y-112914285D01*
X150011904Y-113009523D01*
X149821428Y-113104761D01*
X149535714Y-113104761D01*
X151059523Y-111771428D02*
X151059523Y-113771428D01*
X151059523Y-111866666D02*
X151250000Y-111771428D01*
X151630952Y-111771428D01*
X151821428Y-111866666D01*
X151916666Y-111961904D01*
X152011904Y-112152380D01*
X152011904Y-112723809D01*
X151916666Y-112914285D01*
X151821428Y-113009523D01*
X151630952Y-113104761D01*
X151250000Y-113104761D01*
X151059523Y-113009523D01*
X153630952Y-113009523D02*
X153440476Y-113104761D01*
X153059523Y-113104761D01*
X152869047Y-113009523D01*
X152773809Y-112819047D01*
X152773809Y-112057142D01*
X152869047Y-111866666D01*
X153059523Y-111771428D01*
X153440476Y-111771428D01*
X153630952Y-111866666D01*
X153726190Y-112057142D01*
X153726190Y-112247619D01*
X152773809Y-112438095D01*
X155821428Y-111104761D02*
X156964285Y-111104761D01*
X156392857Y-113104761D02*
X156392857Y-111104761D01*
X158392857Y-113009523D02*
X158202380Y-113104761D01*
X157821428Y-113104761D01*
X157630952Y-113009523D01*
X157535714Y-112819047D01*
X157535714Y-112057142D01*
X157630952Y-111866666D01*
X157821428Y-111771428D01*
X158202380Y-111771428D01*
X158392857Y-111866666D01*
X158488095Y-112057142D01*
X158488095Y-112247619D01*
X157535714Y-112438095D01*
X160202380Y-113009523D02*
X160011904Y-113104761D01*
X159630952Y-113104761D01*
X159440476Y-113009523D01*
X159345238Y-112914285D01*
X159250000Y-112723809D01*
X159250000Y-112152380D01*
X159345238Y-111961904D01*
X159440476Y-111866666D01*
X159630952Y-111771428D01*
X160011904Y-111771428D01*
X160202380Y-111866666D01*
X161059523Y-113104761D02*
X161059523Y-111104761D01*
X161916666Y-113104761D02*
X161916666Y-112057142D01*
X161821428Y-111866666D01*
X161630952Y-111771428D01*
X161345238Y-111771428D01*
X161154761Y-111866666D01*
X161059523Y-111961904D01*
X162869047Y-112914285D02*
X162964285Y-113009523D01*
X162869047Y-113104761D01*
X162773809Y-113009523D01*
X162869047Y-112914285D01*
X162869047Y-113104761D01*
X162869047Y-111866666D02*
X162964285Y-111961904D01*
X162869047Y-112057142D01*
X162773809Y-111961904D01*
X162869047Y-111866666D01*
X162869047Y-112057142D01*
X165059523Y-111104761D02*
X166202380Y-111104761D01*
X165630952Y-113104761D02*
X165630952Y-111104761D01*
X166869047Y-113104761D02*
X166869047Y-111771428D01*
X166869047Y-112152380D02*
X166964285Y-111961904D01*
X167059523Y-111866666D01*
X167249999Y-111771428D01*
X167440476Y-111771428D01*
X168107142Y-113104761D02*
X168107142Y-111771428D01*
X168107142Y-111104761D02*
X168011904Y-111200000D01*
X168107142Y-111295238D01*
X168202380Y-111200000D01*
X168107142Y-111104761D01*
X168107142Y-111295238D01*
X169345238Y-113104761D02*
X169154761Y-113009523D01*
X169059523Y-112914285D01*
X168964285Y-112723809D01*
X168964285Y-112152380D01*
X169059523Y-111961904D01*
X169154761Y-111866666D01*
X169345238Y-111771428D01*
X169630952Y-111771428D01*
X169821428Y-111866666D01*
X169916666Y-111961904D01*
X170011904Y-112152380D01*
X170011904Y-112723809D01*
X169916666Y-112914285D01*
X169821428Y-113009523D01*
X169630952Y-113104761D01*
X169345238Y-113104761D01*
X137630952Y-116404761D02*
X137630952Y-114404761D01*
X138107142Y-114404761D01*
X138392857Y-114500000D01*
X138583333Y-114690476D01*
X138678571Y-114880952D01*
X138773809Y-115261904D01*
X138773809Y-115547619D01*
X138678571Y-115928571D01*
X138583333Y-116119047D01*
X138392857Y-116309523D01*
X138107142Y-116404761D01*
X137630952Y-116404761D01*
X140392857Y-116309523D02*
X140202380Y-116404761D01*
X139821428Y-116404761D01*
X139630952Y-116309523D01*
X139535714Y-116119047D01*
X139535714Y-115357142D01*
X139630952Y-115166666D01*
X139821428Y-115071428D01*
X140202380Y-115071428D01*
X140392857Y-115166666D01*
X140488095Y-115357142D01*
X140488095Y-115547619D01*
X139535714Y-115738095D01*
X141250000Y-116309523D02*
X141440476Y-116404761D01*
X141821428Y-116404761D01*
X142011904Y-116309523D01*
X142107142Y-116119047D01*
X142107142Y-116023809D01*
X142011904Y-115833333D01*
X141821428Y-115738095D01*
X141535714Y-115738095D01*
X141345238Y-115642857D01*
X141250000Y-115452380D01*
X141250000Y-115357142D01*
X141345238Y-115166666D01*
X141535714Y-115071428D01*
X141821428Y-115071428D01*
X142011904Y-115166666D01*
X142964285Y-116404761D02*
X142964285Y-115071428D01*
X142964285Y-114404761D02*
X142869047Y-114500000D01*
X142964285Y-114595238D01*
X143059523Y-114500000D01*
X142964285Y-114404761D01*
X142964285Y-114595238D01*
X144773809Y-115071428D02*
X144773809Y-116690476D01*
X144678571Y-116880952D01*
X144583333Y-116976190D01*
X144392857Y-117071428D01*
X144107142Y-117071428D01*
X143916666Y-116976190D01*
X144773809Y-116309523D02*
X144583333Y-116404761D01*
X144202380Y-116404761D01*
X144011904Y-116309523D01*
X143916666Y-116214285D01*
X143821428Y-116023809D01*
X143821428Y-115452380D01*
X143916666Y-115261904D01*
X144011904Y-115166666D01*
X144202380Y-115071428D01*
X144583333Y-115071428D01*
X144773809Y-115166666D01*
X145726190Y-115071428D02*
X145726190Y-116404761D01*
X145726190Y-115261904D02*
X145821428Y-115166666D01*
X146011904Y-115071428D01*
X146297619Y-115071428D01*
X146488095Y-115166666D01*
X146583333Y-115357142D01*
X146583333Y-116404761D01*
X148297619Y-116309523D02*
X148107142Y-116404761D01*
X147726190Y-116404761D01*
X147535714Y-116309523D01*
X147440476Y-116119047D01*
X147440476Y-115357142D01*
X147535714Y-115166666D01*
X147726190Y-115071428D01*
X148107142Y-115071428D01*
X148297619Y-115166666D01*
X148392857Y-115357142D01*
X148392857Y-115547619D01*
X147440476Y-115738095D01*
X150107142Y-116404761D02*
X150107142Y-114404761D01*
X150107142Y-116309523D02*
X149916666Y-116404761D01*
X149535714Y-116404761D01*
X149345238Y-116309523D01*
X149250000Y-116214285D01*
X149154761Y-116023809D01*
X149154761Y-115452380D01*
X149250000Y-115261904D01*
X149345238Y-115166666D01*
X149535714Y-115071428D01*
X149916666Y-115071428D01*
X150107142Y-115166666D01*
X151059523Y-116214285D02*
X151154761Y-116309523D01*
X151059523Y-116404761D01*
X150964285Y-116309523D01*
X151059523Y-116214285D01*
X151059523Y-116404761D01*
X151059523Y-115166666D02*
X151154761Y-115261904D01*
X151059523Y-115357142D01*
X150964285Y-115261904D01*
X151059523Y-115166666D01*
X151059523Y-115357142D01*
X154107142Y-114404761D02*
X154107142Y-115833333D01*
X154011904Y-116119047D01*
X153821428Y-116309523D01*
X153535714Y-116404761D01*
X153345238Y-116404761D01*
X155916666Y-116404761D02*
X155916666Y-115357142D01*
X155821428Y-115166666D01*
X155630952Y-115071428D01*
X155250000Y-115071428D01*
X155059523Y-115166666D01*
X155916666Y-116309523D02*
X155726190Y-116404761D01*
X155250000Y-116404761D01*
X155059523Y-116309523D01*
X154964285Y-116119047D01*
X154964285Y-115928571D01*
X155059523Y-115738095D01*
X155250000Y-115642857D01*
X155726190Y-115642857D01*
X155916666Y-115547619D01*
X156869047Y-115071428D02*
X156869047Y-116404761D01*
X156869047Y-115261904D02*
X156964285Y-115166666D01*
X157154761Y-115071428D01*
X157440476Y-115071428D01*
X157630952Y-115166666D01*
X157726190Y-115357142D01*
X157726190Y-116404761D01*
X160107142Y-114595238D02*
X160202380Y-114500000D01*
X160392857Y-114404761D01*
X160869047Y-114404761D01*
X161059523Y-114500000D01*
X161154761Y-114595238D01*
X161250000Y-114785714D01*
X161250000Y-114976190D01*
X161154761Y-115261904D01*
X160011904Y-116404761D01*
X161250000Y-116404761D01*
X162488095Y-114404761D02*
X162678571Y-114404761D01*
X162869047Y-114500000D01*
X162964285Y-114595238D01*
X163059523Y-114785714D01*
X163154761Y-115166666D01*
X163154761Y-115642857D01*
X163059523Y-116023809D01*
X162964285Y-116214285D01*
X162869047Y-116309523D01*
X162678571Y-116404761D01*
X162488095Y-116404761D01*
X162297619Y-116309523D01*
X162202380Y-116214285D01*
X162107142Y-116023809D01*
X162011904Y-115642857D01*
X162011904Y-115166666D01*
X162107142Y-114785714D01*
X162202380Y-114595238D01*
X162297619Y-114500000D01*
X162488095Y-114404761D01*
X163916666Y-114595238D02*
X164011904Y-114500000D01*
X164202380Y-114404761D01*
X164678571Y-114404761D01*
X164869047Y-114500000D01*
X164964285Y-114595238D01*
X165059523Y-114785714D01*
X165059523Y-114976190D01*
X164964285Y-115261904D01*
X163821428Y-116404761D01*
X165059523Y-116404761D01*
X166964285Y-116404761D02*
X165821428Y-116404761D01*
X166392857Y-116404761D02*
X166392857Y-114404761D01*
X166202380Y-114690476D01*
X166011904Y-114880952D01*
X165821428Y-114976190D01*
X143392857Y-117704761D02*
X144059523Y-119704761D01*
X144726190Y-117704761D01*
X146154761Y-119609523D02*
X145964285Y-119704761D01*
X145583333Y-119704761D01*
X145392857Y-119609523D01*
X145297619Y-119419047D01*
X145297619Y-118657142D01*
X145392857Y-118466666D01*
X145583333Y-118371428D01*
X145964285Y-118371428D01*
X146154761Y-118466666D01*
X146250000Y-118657142D01*
X146250000Y-118847619D01*
X145297619Y-119038095D01*
X147107142Y-119704761D02*
X147107142Y-118371428D01*
X147107142Y-118752380D02*
X147202380Y-118561904D01*
X147297619Y-118466666D01*
X147488095Y-118371428D01*
X147678571Y-118371428D01*
X148250000Y-119609523D02*
X148440476Y-119704761D01*
X148821428Y-119704761D01*
X149011904Y-119609523D01*
X149107142Y-119419047D01*
X149107142Y-119323809D01*
X149011904Y-119133333D01*
X148821428Y-119038095D01*
X148535714Y-119038095D01*
X148345238Y-118942857D01*
X148250000Y-118752380D01*
X148250000Y-118657142D01*
X148345238Y-118466666D01*
X148535714Y-118371428D01*
X148821428Y-118371428D01*
X149011904Y-118466666D01*
X149964285Y-119704761D02*
X149964285Y-118371428D01*
X149964285Y-117704761D02*
X149869047Y-117800000D01*
X149964285Y-117895238D01*
X150059523Y-117800000D01*
X149964285Y-117704761D01*
X149964285Y-117895238D01*
X151202380Y-119704761D02*
X151011904Y-119609523D01*
X150916666Y-119514285D01*
X150821428Y-119323809D01*
X150821428Y-118752380D01*
X150916666Y-118561904D01*
X151011904Y-118466666D01*
X151202380Y-118371428D01*
X151488095Y-118371428D01*
X151678571Y-118466666D01*
X151773809Y-118561904D01*
X151869047Y-118752380D01*
X151869047Y-119323809D01*
X151773809Y-119514285D01*
X151678571Y-119609523D01*
X151488095Y-119704761D01*
X151202380Y-119704761D01*
X152726190Y-118371428D02*
X152726190Y-119704761D01*
X152726190Y-118561904D02*
X152821428Y-118466666D01*
X153011904Y-118371428D01*
X153297619Y-118371428D01*
X153488095Y-118466666D01*
X153583333Y-118657142D01*
X153583333Y-119704761D01*
X154535714Y-119514285D02*
X154630952Y-119609523D01*
X154535714Y-119704761D01*
X154440476Y-119609523D01*
X154535714Y-119514285D01*
X154535714Y-119704761D01*
X154535714Y-118466666D02*
X154630952Y-118561904D01*
X154535714Y-118657142D01*
X154440476Y-118561904D01*
X154535714Y-118466666D01*
X154535714Y-118657142D01*
X156916666Y-117895238D02*
X157011904Y-117800000D01*
X157202380Y-117704761D01*
X157678571Y-117704761D01*
X157869047Y-117800000D01*
X157964285Y-117895238D01*
X158059523Y-118085714D01*
X158059523Y-118276190D01*
X157964285Y-118561904D01*
X156821428Y-119704761D01*
X158059523Y-119704761D01*
X158916666Y-119514285D02*
X159011904Y-119609523D01*
X158916666Y-119704761D01*
X158821428Y-119609523D01*
X158916666Y-119514285D01*
X158916666Y-119704761D01*
X160250000Y-117704761D02*
X160440476Y-117704761D01*
X160630952Y-117800000D01*
X160726190Y-117895238D01*
X160821428Y-118085714D01*
X160916666Y-118466666D01*
X160916666Y-118942857D01*
X160821428Y-119323809D01*
X160726190Y-119514285D01*
X160630952Y-119609523D01*
X160440476Y-119704761D01*
X160250000Y-119704761D01*
X160059523Y-119609523D01*
X159964285Y-119514285D01*
X159869047Y-119323809D01*
X159773809Y-118942857D01*
X159773809Y-118466666D01*
X159869047Y-118085714D01*
X159964285Y-117895238D01*
X160059523Y-117800000D01*
X160250000Y-117704761D01*
D13*
%TO.C,A1*%
X140230000Y-122770000D02*
X142770000Y-122770000D01*
X142770000Y-122770000D02*
X142770000Y-120100000D01*
X140230000Y-120100000D02*
X102000000Y-120100000D01*
X145440000Y-120100000D02*
X142770000Y-120100000D01*
X142770000Y-135470000D02*
X142770000Y-138140000D01*
X142770000Y-135470000D02*
X104670000Y-135470000D01*
X104670000Y-135470000D02*
X104670000Y-138140000D01*
X140230000Y-122770000D02*
X140230000Y-120100000D01*
X140230000Y-122770000D02*
X104670000Y-122770000D01*
X104670000Y-122770000D02*
X104670000Y-120100000D01*
X102000000Y-120100000D02*
X102000000Y-138140000D01*
X102000000Y-138140000D02*
X145440000Y-138140000D01*
X145440000Y-138140000D02*
X145440000Y-120100000D01*
%TO.C,Q8*%
X123260000Y-77330000D02*
X123260000Y-76400000D01*
X123260000Y-74170000D02*
X123260000Y-75100000D01*
X123260000Y-74170000D02*
X121100000Y-74170000D01*
X123260000Y-77330000D02*
X121800000Y-77330000D01*
%TO.C,Q7*%
X118330000Y-105240000D02*
X117400000Y-105240000D01*
X115170000Y-105240000D02*
X116100000Y-105240000D01*
X115170000Y-105240000D02*
X115170000Y-107400000D01*
X118330000Y-105240000D02*
X118330000Y-106700000D01*
%TO.C,Q6*%
X122260000Y-92080000D02*
X122260000Y-91150000D01*
X122260000Y-88920000D02*
X122260000Y-89850000D01*
X122260000Y-88920000D02*
X120100000Y-88920000D01*
X122260000Y-92080000D02*
X120800000Y-92080000D01*
%TO.C,Q5*%
X175830000Y-118490000D02*
X174900000Y-118490000D01*
X172670000Y-118490000D02*
X173600000Y-118490000D01*
X172670000Y-118490000D02*
X172670000Y-120650000D01*
X175830000Y-118490000D02*
X175830000Y-119950000D01*
%TO.C,Q4*%
X172670000Y-115510000D02*
X173600000Y-115510000D01*
X175830000Y-115510000D02*
X174900000Y-115510000D01*
X175830000Y-115510000D02*
X175830000Y-113350000D01*
X172670000Y-115510000D02*
X172670000Y-114050000D01*
%TO.C,Q3*%
X174240000Y-94170000D02*
X174240000Y-95100000D01*
X174240000Y-97330000D02*
X174240000Y-96400000D01*
X174240000Y-97330000D02*
X176400000Y-97330000D01*
X174240000Y-94170000D02*
X175700000Y-94170000D01*
%TO.C,F5*%
X117352064Y-76660000D02*
X116147936Y-76660000D01*
X117352064Y-74840000D02*
X116147936Y-74840000D01*
%TO.C,F2*%
X117102064Y-91160000D02*
X115897936Y-91160000D01*
X117102064Y-89340000D02*
X115897936Y-89340000D01*
%TO.C,D1*%
X139000000Y-78250000D02*
X139000000Y-76250000D01*
X139000000Y-76250000D02*
X135100000Y-76250000D01*
X139000000Y-78250000D02*
X135100000Y-78250000D01*
%TO.C,Q2*%
X142240000Y-138920000D02*
X142240000Y-139850000D01*
X142240000Y-142080000D02*
X142240000Y-141150000D01*
X142240000Y-142080000D02*
X144400000Y-142080000D01*
X142240000Y-138920000D02*
X143700000Y-138920000D01*
%TO.C,Q1*%
X144580000Y-75740000D02*
X143650000Y-75740000D01*
X141420000Y-75740000D02*
X142350000Y-75740000D01*
X141420000Y-75740000D02*
X141420000Y-77900000D01*
X144580000Y-75740000D02*
X144580000Y-77200000D01*
%TO.C,R7*%
X129985000Y-100977064D02*
X129985000Y-100522936D01*
X128515000Y-100977064D02*
X128515000Y-100522936D01*
%TO.C,J2*%
X127920000Y-103420000D02*
X129250000Y-103420000D01*
X127920000Y-104750000D02*
X127920000Y-103420000D01*
X130520000Y-103420000D02*
X133120000Y-103420000D01*
X130520000Y-106020000D02*
X130520000Y-103420000D01*
X127920000Y-106020000D02*
X130520000Y-106020000D01*
X133120000Y-103420000D02*
X133120000Y-111160000D01*
X127920000Y-106020000D02*
X127920000Y-111160000D01*
X127920000Y-111160000D02*
X133120000Y-111160000D01*
D14*
%TO.C,U1*%
X148447000Y-91540000D02*
X148447000Y-76300000D01*
X148447000Y-76300000D02*
X168767000Y-76300000D01*
X168767000Y-76300000D02*
X168767000Y-91540000D01*
X168767000Y-91540000D02*
X148447000Y-91540000D01*
D15*
X167597000Y-92220000D02*
G75*
G03*
X167597000Y-92220000I-100000J0D01*
G01*
D13*
%TO.C,PINOUT1*%
X136330000Y-94330000D02*
X135000000Y-94330000D01*
X136330000Y-93000000D02*
X136330000Y-94330000D01*
X133730000Y-94330000D02*
X131130000Y-94330000D01*
X133730000Y-91730000D02*
X133730000Y-94330000D01*
X136330000Y-91730000D02*
X133730000Y-91730000D01*
X131130000Y-94330000D02*
X131130000Y-78970000D01*
X136330000Y-91730000D02*
X136330000Y-78970000D01*
X136330000Y-78970000D02*
X131130000Y-78970000D01*
D16*
%TO.C,REF\u002A\u002A*%
G36*
X157599744Y-102419918D02*
G01*
X157655201Y-102447568D01*
X157704148Y-102498480D01*
X157717629Y-102517338D01*
X157732314Y-102542015D01*
X157741842Y-102568816D01*
X157747293Y-102604587D01*
X157749747Y-102656169D01*
X157750286Y-102724267D01*
X157747852Y-102817588D01*
X157739394Y-102887657D01*
X157723174Y-102939931D01*
X157697454Y-102979869D01*
X157660497Y-103012929D01*
X157657782Y-103014886D01*
X157621360Y-103034908D01*
X157577502Y-103044815D01*
X157521724Y-103047257D01*
X157431048Y-103047257D01*
X157431010Y-103135283D01*
X157430166Y-103184308D01*
X157425024Y-103213065D01*
X157411587Y-103230311D01*
X157385858Y-103244808D01*
X157379679Y-103247769D01*
X157350764Y-103261648D01*
X157328376Y-103270414D01*
X157311729Y-103271171D01*
X157300036Y-103261023D01*
X157292510Y-103237073D01*
X157288366Y-103196426D01*
X157286815Y-103136186D01*
X157287071Y-103053455D01*
X157288349Y-102945339D01*
X157288748Y-102913000D01*
X157290185Y-102801524D01*
X157291472Y-102728603D01*
X157430971Y-102728603D01*
X157431755Y-102790499D01*
X157435240Y-102830997D01*
X157443124Y-102857708D01*
X157457105Y-102878244D01*
X157466597Y-102888260D01*
X157505404Y-102917567D01*
X157539763Y-102919952D01*
X157575216Y-102895750D01*
X157576114Y-102894857D01*
X157590539Y-102876153D01*
X157599313Y-102850732D01*
X157603739Y-102811584D01*
X157605118Y-102751697D01*
X157605143Y-102738430D01*
X157601812Y-102655901D01*
X157590969Y-102598691D01*
X157571340Y-102563766D01*
X157541650Y-102548094D01*
X157524491Y-102546514D01*
X157483766Y-102553926D01*
X157455832Y-102578330D01*
X157439017Y-102622980D01*
X157431650Y-102691130D01*
X157430971Y-102728603D01*
X157291472Y-102728603D01*
X157291708Y-102715245D01*
X157293677Y-102650333D01*
X157296450Y-102602958D01*
X157300388Y-102569290D01*
X157305849Y-102545498D01*
X157313192Y-102527753D01*
X157322777Y-102512224D01*
X157326887Y-102506381D01*
X157381405Y-102451185D01*
X157450336Y-102419890D01*
X157530072Y-102411165D01*
X157599744Y-102419918D01*
G37*
X157599744Y-102419918D02*
X157655201Y-102447568D01*
X157704148Y-102498480D01*
X157717629Y-102517338D01*
X157732314Y-102542015D01*
X157741842Y-102568816D01*
X157747293Y-102604587D01*
X157749747Y-102656169D01*
X157750286Y-102724267D01*
X157747852Y-102817588D01*
X157739394Y-102887657D01*
X157723174Y-102939931D01*
X157697454Y-102979869D01*
X157660497Y-103012929D01*
X157657782Y-103014886D01*
X157621360Y-103034908D01*
X157577502Y-103044815D01*
X157521724Y-103047257D01*
X157431048Y-103047257D01*
X157431010Y-103135283D01*
X157430166Y-103184308D01*
X157425024Y-103213065D01*
X157411587Y-103230311D01*
X157385858Y-103244808D01*
X157379679Y-103247769D01*
X157350764Y-103261648D01*
X157328376Y-103270414D01*
X157311729Y-103271171D01*
X157300036Y-103261023D01*
X157292510Y-103237073D01*
X157288366Y-103196426D01*
X157286815Y-103136186D01*
X157287071Y-103053455D01*
X157288349Y-102945339D01*
X157288748Y-102913000D01*
X157290185Y-102801524D01*
X157291472Y-102728603D01*
X157430971Y-102728603D01*
X157431755Y-102790499D01*
X157435240Y-102830997D01*
X157443124Y-102857708D01*
X157457105Y-102878244D01*
X157466597Y-102888260D01*
X157505404Y-102917567D01*
X157539763Y-102919952D01*
X157575216Y-102895750D01*
X157576114Y-102894857D01*
X157590539Y-102876153D01*
X157599313Y-102850732D01*
X157603739Y-102811584D01*
X157605118Y-102751697D01*
X157605143Y-102738430D01*
X157601812Y-102655901D01*
X157590969Y-102598691D01*
X157571340Y-102563766D01*
X157541650Y-102548094D01*
X157524491Y-102546514D01*
X157483766Y-102553926D01*
X157455832Y-102578330D01*
X157439017Y-102622980D01*
X157431650Y-102691130D01*
X157430971Y-102728603D01*
X157291472Y-102728603D01*
X157291708Y-102715245D01*
X157293677Y-102650333D01*
X157296450Y-102602958D01*
X157300388Y-102569290D01*
X157305849Y-102545498D01*
X157313192Y-102527753D01*
X157322777Y-102512224D01*
X157326887Y-102506381D01*
X157381405Y-102451185D01*
X157450336Y-102419890D01*
X157530072Y-102411165D01*
X157599744Y-102419918D01*
G36*
X158716093Y-102427780D02*
G01*
X158762672Y-102454723D01*
X158795057Y-102481466D01*
X158818742Y-102509484D01*
X158835059Y-102543748D01*
X158845339Y-102589227D01*
X158850914Y-102650892D01*
X158853116Y-102733711D01*
X158853371Y-102793246D01*
X158853371Y-103012391D01*
X158791686Y-103040044D01*
X158730000Y-103067697D01*
X158722743Y-102827670D01*
X158719744Y-102738028D01*
X158716598Y-102672962D01*
X158712701Y-102628026D01*
X158707447Y-102598770D01*
X158700231Y-102580748D01*
X158690450Y-102569511D01*
X158687312Y-102567079D01*
X158639761Y-102548083D01*
X158591697Y-102555600D01*
X158563086Y-102575543D01*
X158551447Y-102589675D01*
X158543391Y-102608220D01*
X158538271Y-102636334D01*
X158535441Y-102679173D01*
X158534256Y-102741895D01*
X158534057Y-102807261D01*
X158534018Y-102889268D01*
X158532614Y-102947316D01*
X158527914Y-102986465D01*
X158517987Y-103011780D01*
X158500903Y-103028323D01*
X158474732Y-103041156D01*
X158439775Y-103054491D01*
X158401596Y-103069007D01*
X158406141Y-102811389D01*
X158407971Y-102718519D01*
X158410112Y-102649889D01*
X158413181Y-102600711D01*
X158417794Y-102566198D01*
X158424568Y-102541562D01*
X158434119Y-102522016D01*
X158445634Y-102504770D01*
X158501190Y-102449680D01*
X158568980Y-102417822D01*
X158642713Y-102410191D01*
X158716093Y-102427780D01*
G37*
X158716093Y-102427780D02*
X158762672Y-102454723D01*
X158795057Y-102481466D01*
X158818742Y-102509484D01*
X158835059Y-102543748D01*
X158845339Y-102589227D01*
X158850914Y-102650892D01*
X158853116Y-102733711D01*
X158853371Y-102793246D01*
X158853371Y-103012391D01*
X158791686Y-103040044D01*
X158730000Y-103067697D01*
X158722743Y-102827670D01*
X158719744Y-102738028D01*
X158716598Y-102672962D01*
X158712701Y-102628026D01*
X158707447Y-102598770D01*
X158700231Y-102580748D01*
X158690450Y-102569511D01*
X158687312Y-102567079D01*
X158639761Y-102548083D01*
X158591697Y-102555600D01*
X158563086Y-102575543D01*
X158551447Y-102589675D01*
X158543391Y-102608220D01*
X158538271Y-102636334D01*
X158535441Y-102679173D01*
X158534256Y-102741895D01*
X158534057Y-102807261D01*
X158534018Y-102889268D01*
X158532614Y-102947316D01*
X158527914Y-102986465D01*
X158517987Y-103011780D01*
X158500903Y-103028323D01*
X158474732Y-103041156D01*
X158439775Y-103054491D01*
X158401596Y-103069007D01*
X158406141Y-102811389D01*
X158407971Y-102718519D01*
X158410112Y-102649889D01*
X158413181Y-102600711D01*
X158417794Y-102566198D01*
X158424568Y-102541562D01*
X158434119Y-102522016D01*
X158445634Y-102504770D01*
X158501190Y-102449680D01*
X158568980Y-102417822D01*
X158642713Y-102410191D01*
X158716093Y-102427780D01*
G36*
X157041115Y-102421962D02*
G01*
X157109145Y-102457733D01*
X157159351Y-102515301D01*
X157177185Y-102552312D01*
X157191063Y-102607882D01*
X157198167Y-102678096D01*
X157198840Y-102754727D01*
X157193427Y-102829552D01*
X157182270Y-102894342D01*
X157165714Y-102940873D01*
X157160626Y-102948887D01*
X157100355Y-103008707D01*
X157028769Y-103044535D01*
X156951092Y-103055020D01*
X156872548Y-103038810D01*
X156850689Y-103029092D01*
X156808122Y-102999143D01*
X156770763Y-102959433D01*
X156767232Y-102954397D01*
X156752881Y-102930124D01*
X156743394Y-102904178D01*
X156737790Y-102870022D01*
X156735086Y-102821119D01*
X156734299Y-102750935D01*
X156734286Y-102735200D01*
X156734322Y-102730192D01*
X156879429Y-102730192D01*
X156880273Y-102796430D01*
X156883596Y-102840386D01*
X156890583Y-102868779D01*
X156902416Y-102888325D01*
X156908457Y-102894857D01*
X156943186Y-102919680D01*
X156976903Y-102918548D01*
X157010995Y-102897016D01*
X157031329Y-102874029D01*
X157043371Y-102840478D01*
X157050134Y-102787569D01*
X157050598Y-102781399D01*
X157051752Y-102685513D01*
X157039688Y-102614299D01*
X157014570Y-102568194D01*
X156976560Y-102547635D01*
X156962992Y-102546514D01*
X156927364Y-102552152D01*
X156902994Y-102571686D01*
X156888093Y-102609042D01*
X156880875Y-102668150D01*
X156879429Y-102730192D01*
X156734322Y-102730192D01*
X156734826Y-102660413D01*
X156737096Y-102608159D01*
X156742068Y-102571949D01*
X156750713Y-102545299D01*
X156764005Y-102521722D01*
X156766943Y-102517338D01*
X156816313Y-102458249D01*
X156870109Y-102423947D01*
X156935602Y-102410331D01*
X156957842Y-102409665D01*
X157041115Y-102421962D01*
G37*
X157041115Y-102421962D02*
X157109145Y-102457733D01*
X157159351Y-102515301D01*
X157177185Y-102552312D01*
X157191063Y-102607882D01*
X157198167Y-102678096D01*
X157198840Y-102754727D01*
X157193427Y-102829552D01*
X157182270Y-102894342D01*
X157165714Y-102940873D01*
X157160626Y-102948887D01*
X157100355Y-103008707D01*
X157028769Y-103044535D01*
X156951092Y-103055020D01*
X156872548Y-103038810D01*
X156850689Y-103029092D01*
X156808122Y-102999143D01*
X156770763Y-102959433D01*
X156767232Y-102954397D01*
X156752881Y-102930124D01*
X156743394Y-102904178D01*
X156737790Y-102870022D01*
X156735086Y-102821119D01*
X156734299Y-102750935D01*
X156734286Y-102735200D01*
X156734322Y-102730192D01*
X156879429Y-102730192D01*
X156880273Y-102796430D01*
X156883596Y-102840386D01*
X156890583Y-102868779D01*
X156902416Y-102888325D01*
X156908457Y-102894857D01*
X156943186Y-102919680D01*
X156976903Y-102918548D01*
X157010995Y-102897016D01*
X157031329Y-102874029D01*
X157043371Y-102840478D01*
X157050134Y-102787569D01*
X157050598Y-102781399D01*
X157051752Y-102685513D01*
X157039688Y-102614299D01*
X157014570Y-102568194D01*
X156976560Y-102547635D01*
X156962992Y-102546514D01*
X156927364Y-102552152D01*
X156902994Y-102571686D01*
X156888093Y-102609042D01*
X156880875Y-102668150D01*
X156879429Y-102730192D01*
X156734322Y-102730192D01*
X156734826Y-102660413D01*
X156737096Y-102608159D01*
X156742068Y-102571949D01*
X156750713Y-102545299D01*
X156764005Y-102521722D01*
X156766943Y-102517338D01*
X156816313Y-102458249D01*
X156870109Y-102423947D01*
X156935602Y-102410331D01*
X156957842Y-102409665D01*
X157041115Y-102421962D01*
G36*
X158168303Y-102431239D02*
G01*
X158225527Y-102469735D01*
X158269749Y-102525335D01*
X158296167Y-102596086D01*
X158301510Y-102648162D01*
X158300903Y-102669893D01*
X158295822Y-102686531D01*
X158281855Y-102701437D01*
X158254589Y-102717973D01*
X158209612Y-102739498D01*
X158142511Y-102769374D01*
X158142171Y-102769524D01*
X158080407Y-102797813D01*
X158029759Y-102822933D01*
X157995404Y-102842179D01*
X157982518Y-102852848D01*
X157982514Y-102852934D01*
X157993872Y-102876166D01*
X158020431Y-102901774D01*
X158050923Y-102920221D01*
X158066370Y-102923886D01*
X158108515Y-102911212D01*
X158144808Y-102879471D01*
X158162517Y-102844572D01*
X158179552Y-102818845D01*
X158212922Y-102789546D01*
X158252149Y-102764235D01*
X158286756Y-102750471D01*
X158293993Y-102749714D01*
X158302139Y-102762160D01*
X158302630Y-102793972D01*
X158296643Y-102836866D01*
X158285357Y-102882558D01*
X158269950Y-102922761D01*
X158269171Y-102924322D01*
X158222804Y-102989062D01*
X158162711Y-103033097D01*
X158094465Y-103054711D01*
X158023638Y-103052185D01*
X157955804Y-103023804D01*
X157952788Y-103021808D01*
X157899427Y-102973448D01*
X157864340Y-102910352D01*
X157844922Y-102827387D01*
X157842316Y-102804078D01*
X157837701Y-102694055D01*
X157843233Y-102642748D01*
X157982514Y-102642748D01*
X157984324Y-102674753D01*
X157994222Y-102684093D01*
X158018898Y-102677105D01*
X158057795Y-102660587D01*
X158101275Y-102639881D01*
X158102356Y-102639333D01*
X158139209Y-102619949D01*
X158154000Y-102607013D01*
X158150353Y-102593451D01*
X158134995Y-102575632D01*
X158095923Y-102549845D01*
X158053846Y-102547950D01*
X158016103Y-102566717D01*
X157990034Y-102602915D01*
X157982514Y-102642748D01*
X157843233Y-102642748D01*
X157847194Y-102606027D01*
X157871550Y-102536212D01*
X157905456Y-102487302D01*
X157966653Y-102437878D01*
X158034063Y-102413359D01*
X158102880Y-102411797D01*
X158168303Y-102431239D01*
G37*
X158168303Y-102431239D02*
X158225527Y-102469735D01*
X158269749Y-102525335D01*
X158296167Y-102596086D01*
X158301510Y-102648162D01*
X158300903Y-102669893D01*
X158295822Y-102686531D01*
X158281855Y-102701437D01*
X158254589Y-102717973D01*
X158209612Y-102739498D01*
X158142511Y-102769374D01*
X158142171Y-102769524D01*
X158080407Y-102797813D01*
X158029759Y-102822933D01*
X157995404Y-102842179D01*
X157982518Y-102852848D01*
X157982514Y-102852934D01*
X157993872Y-102876166D01*
X158020431Y-102901774D01*
X158050923Y-102920221D01*
X158066370Y-102923886D01*
X158108515Y-102911212D01*
X158144808Y-102879471D01*
X158162517Y-102844572D01*
X158179552Y-102818845D01*
X158212922Y-102789546D01*
X158252149Y-102764235D01*
X158286756Y-102750471D01*
X158293993Y-102749714D01*
X158302139Y-102762160D01*
X158302630Y-102793972D01*
X158296643Y-102836866D01*
X158285357Y-102882558D01*
X158269950Y-102922761D01*
X158269171Y-102924322D01*
X158222804Y-102989062D01*
X158162711Y-103033097D01*
X158094465Y-103054711D01*
X158023638Y-103052185D01*
X157955804Y-103023804D01*
X157952788Y-103021808D01*
X157899427Y-102973448D01*
X157864340Y-102910352D01*
X157844922Y-102827387D01*
X157842316Y-102804078D01*
X157837701Y-102694055D01*
X157843233Y-102642748D01*
X157982514Y-102642748D01*
X157984324Y-102674753D01*
X157994222Y-102684093D01*
X158018898Y-102677105D01*
X158057795Y-102660587D01*
X158101275Y-102639881D01*
X158102356Y-102639333D01*
X158139209Y-102619949D01*
X158154000Y-102607013D01*
X158150353Y-102593451D01*
X158134995Y-102575632D01*
X158095923Y-102549845D01*
X158053846Y-102547950D01*
X158016103Y-102566717D01*
X157990034Y-102602915D01*
X157982514Y-102642748D01*
X157843233Y-102642748D01*
X157847194Y-102606027D01*
X157871550Y-102536212D01*
X157905456Y-102487302D01*
X157966653Y-102437878D01*
X158034063Y-102413359D01*
X158102880Y-102411797D01*
X158168303Y-102431239D01*
G36*
X159375886Y-102351289D02*
G01*
X159380139Y-102410613D01*
X159385025Y-102445572D01*
X159391795Y-102460820D01*
X159401702Y-102461015D01*
X159404914Y-102459195D01*
X159447644Y-102446015D01*
X159503227Y-102446785D01*
X159559737Y-102460333D01*
X159595082Y-102477861D01*
X159631321Y-102505861D01*
X159657813Y-102537549D01*
X159675999Y-102577813D01*
X159687322Y-102631543D01*
X159693222Y-102703626D01*
X159695143Y-102798951D01*
X159695177Y-102817237D01*
X159695200Y-103022646D01*
X159649491Y-103038580D01*
X159617027Y-103049420D01*
X159599215Y-103054468D01*
X159598691Y-103054514D01*
X159596937Y-103040828D01*
X159595444Y-103003076D01*
X159594326Y-102946224D01*
X159593697Y-102875234D01*
X159593600Y-102832073D01*
X159593398Y-102746973D01*
X159592358Y-102685981D01*
X159589831Y-102644177D01*
X159585164Y-102616642D01*
X159577707Y-102598456D01*
X159566811Y-102584698D01*
X159560007Y-102578073D01*
X159513272Y-102551375D01*
X159462272Y-102549375D01*
X159416001Y-102571955D01*
X159407444Y-102580107D01*
X159394893Y-102595436D01*
X159386188Y-102613618D01*
X159380631Y-102639909D01*
X159377526Y-102679562D01*
X159376176Y-102737832D01*
X159375886Y-102818173D01*
X159375886Y-103022646D01*
X159330177Y-103038580D01*
X159297713Y-103049420D01*
X159279901Y-103054468D01*
X159279377Y-103054514D01*
X159278037Y-103040623D01*
X159276828Y-103001439D01*
X159275801Y-102940700D01*
X159275002Y-102862141D01*
X159274481Y-102769498D01*
X159274286Y-102666509D01*
X159274286Y-102269342D01*
X159321457Y-102249444D01*
X159368629Y-102229547D01*
X159375886Y-102351289D01*
G37*
X159375886Y-102351289D02*
X159380139Y-102410613D01*
X159385025Y-102445572D01*
X159391795Y-102460820D01*
X159401702Y-102461015D01*
X159404914Y-102459195D01*
X159447644Y-102446015D01*
X159503227Y-102446785D01*
X159559737Y-102460333D01*
X159595082Y-102477861D01*
X159631321Y-102505861D01*
X159657813Y-102537549D01*
X159675999Y-102577813D01*
X159687322Y-102631543D01*
X159693222Y-102703626D01*
X159695143Y-102798951D01*
X159695177Y-102817237D01*
X159695200Y-103022646D01*
X159649491Y-103038580D01*
X159617027Y-103049420D01*
X159599215Y-103054468D01*
X159598691Y-103054514D01*
X159596937Y-103040828D01*
X159595444Y-103003076D01*
X159594326Y-102946224D01*
X159593697Y-102875234D01*
X159593600Y-102832073D01*
X159593398Y-102746973D01*
X159592358Y-102685981D01*
X159589831Y-102644177D01*
X159585164Y-102616642D01*
X159577707Y-102598456D01*
X159566811Y-102584698D01*
X159560007Y-102578073D01*
X159513272Y-102551375D01*
X159462272Y-102549375D01*
X159416001Y-102571955D01*
X159407444Y-102580107D01*
X159394893Y-102595436D01*
X159386188Y-102613618D01*
X159380631Y-102639909D01*
X159377526Y-102679562D01*
X159376176Y-102737832D01*
X159375886Y-102818173D01*
X159375886Y-103022646D01*
X159330177Y-103038580D01*
X159297713Y-103049420D01*
X159279901Y-103054468D01*
X159279377Y-103054514D01*
X159278037Y-103040623D01*
X159276828Y-103001439D01*
X159275801Y-102940700D01*
X159275002Y-102862141D01*
X159274481Y-102769498D01*
X159274286Y-102666509D01*
X159274286Y-102269342D01*
X159321457Y-102249444D01*
X159368629Y-102229547D01*
X159375886Y-102351289D01*
G36*
X160039744Y-102450968D02*
G01*
X160096616Y-102472087D01*
X160097267Y-102472493D01*
X160132440Y-102498380D01*
X160158407Y-102528633D01*
X160176670Y-102568058D01*
X160188732Y-102621462D01*
X160196096Y-102693651D01*
X160200264Y-102789432D01*
X160200629Y-102803078D01*
X160205876Y-103008842D01*
X160161716Y-103031678D01*
X160129763Y-103047110D01*
X160110470Y-103054423D01*
X160109578Y-103054514D01*
X160106239Y-103041022D01*
X160103587Y-103004626D01*
X160101956Y-102951452D01*
X160101600Y-102908393D01*
X160101592Y-102838641D01*
X160098403Y-102794837D01*
X160087288Y-102773944D01*
X160063501Y-102772925D01*
X160022296Y-102788741D01*
X159960086Y-102817815D01*
X159914341Y-102841963D01*
X159890813Y-102862913D01*
X159883896Y-102885747D01*
X159883886Y-102886877D01*
X159895299Y-102926212D01*
X159929092Y-102947462D01*
X159980809Y-102950539D01*
X160018061Y-102950006D01*
X160037703Y-102960735D01*
X160049952Y-102986505D01*
X160057002Y-103019337D01*
X160046842Y-103037966D01*
X160043017Y-103040632D01*
X160007001Y-103051340D01*
X159956566Y-103052856D01*
X159904626Y-103045759D01*
X159867822Y-103032788D01*
X159816938Y-102989585D01*
X159788014Y-102929446D01*
X159782286Y-102882462D01*
X159786657Y-102840082D01*
X159802475Y-102805488D01*
X159833797Y-102774763D01*
X159884678Y-102743990D01*
X159959176Y-102709252D01*
X159963714Y-102707288D01*
X160030821Y-102676287D01*
X160072232Y-102650862D01*
X160089981Y-102628014D01*
X160086107Y-102604745D01*
X160062643Y-102578056D01*
X160055627Y-102571914D01*
X160008630Y-102548100D01*
X159959933Y-102549103D01*
X159917522Y-102572451D01*
X159889384Y-102615675D01*
X159886769Y-102624160D01*
X159861308Y-102665308D01*
X159829001Y-102685128D01*
X159782286Y-102704770D01*
X159782286Y-102653950D01*
X159796496Y-102580082D01*
X159838675Y-102512327D01*
X159860624Y-102489661D01*
X159910517Y-102460569D01*
X159973967Y-102447400D01*
X160039744Y-102450968D01*
G37*
X160039744Y-102450968D02*
X160096616Y-102472087D01*
X160097267Y-102472493D01*
X160132440Y-102498380D01*
X160158407Y-102528633D01*
X160176670Y-102568058D01*
X160188732Y-102621462D01*
X160196096Y-102693651D01*
X160200264Y-102789432D01*
X160200629Y-102803078D01*
X160205876Y-103008842D01*
X160161716Y-103031678D01*
X160129763Y-103047110D01*
X160110470Y-103054423D01*
X160109578Y-103054514D01*
X160106239Y-103041022D01*
X160103587Y-103004626D01*
X160101956Y-102951452D01*
X160101600Y-102908393D01*
X160101592Y-102838641D01*
X160098403Y-102794837D01*
X160087288Y-102773944D01*
X160063501Y-102772925D01*
X160022296Y-102788741D01*
X159960086Y-102817815D01*
X159914341Y-102841963D01*
X159890813Y-102862913D01*
X159883896Y-102885747D01*
X159883886Y-102886877D01*
X159895299Y-102926212D01*
X159929092Y-102947462D01*
X159980809Y-102950539D01*
X160018061Y-102950006D01*
X160037703Y-102960735D01*
X160049952Y-102986505D01*
X160057002Y-103019337D01*
X160046842Y-103037966D01*
X160043017Y-103040632D01*
X160007001Y-103051340D01*
X159956566Y-103052856D01*
X159904626Y-103045759D01*
X159867822Y-103032788D01*
X159816938Y-102989585D01*
X159788014Y-102929446D01*
X159782286Y-102882462D01*
X159786657Y-102840082D01*
X159802475Y-102805488D01*
X159833797Y-102774763D01*
X159884678Y-102743990D01*
X159959176Y-102709252D01*
X159963714Y-102707288D01*
X160030821Y-102676287D01*
X160072232Y-102650862D01*
X160089981Y-102628014D01*
X160086107Y-102604745D01*
X160062643Y-102578056D01*
X160055627Y-102571914D01*
X160008630Y-102548100D01*
X159959933Y-102549103D01*
X159917522Y-102572451D01*
X159889384Y-102615675D01*
X159886769Y-102624160D01*
X159861308Y-102665308D01*
X159829001Y-102685128D01*
X159782286Y-102704770D01*
X159782286Y-102653950D01*
X159796496Y-102580082D01*
X159838675Y-102512327D01*
X159860624Y-102489661D01*
X159910517Y-102460569D01*
X159973967Y-102447400D01*
X160039744Y-102450968D01*
G36*
X160529926Y-102449755D02*
G01*
X160595858Y-102474084D01*
X160649273Y-102517117D01*
X160670164Y-102547409D01*
X160692939Y-102602994D01*
X160692466Y-102643186D01*
X160668562Y-102670217D01*
X160659717Y-102674813D01*
X160621530Y-102689144D01*
X160602028Y-102685472D01*
X160595422Y-102661407D01*
X160595086Y-102648114D01*
X160582992Y-102599210D01*
X160551471Y-102564999D01*
X160507659Y-102548476D01*
X160458695Y-102552634D01*
X160418894Y-102574227D01*
X160405450Y-102586544D01*
X160395921Y-102601487D01*
X160389485Y-102624075D01*
X160385317Y-102659328D01*
X160382597Y-102712266D01*
X160380502Y-102787907D01*
X160379960Y-102811857D01*
X160377981Y-102893790D01*
X160375731Y-102951455D01*
X160372357Y-102989608D01*
X160367006Y-103013004D01*
X160358824Y-103026398D01*
X160346959Y-103034545D01*
X160339362Y-103038144D01*
X160307102Y-103050452D01*
X160288111Y-103054514D01*
X160281836Y-103040948D01*
X160278006Y-102999934D01*
X160276600Y-102930999D01*
X160277598Y-102833669D01*
X160277908Y-102818657D01*
X160280101Y-102729859D01*
X160282693Y-102665019D01*
X160286382Y-102619067D01*
X160291864Y-102586935D01*
X160299835Y-102563553D01*
X160310993Y-102543852D01*
X160316830Y-102535410D01*
X160350296Y-102498057D01*
X160387727Y-102469003D01*
X160392309Y-102466467D01*
X160459426Y-102446443D01*
X160529926Y-102449755D01*
G37*
X160529926Y-102449755D02*
X160595858Y-102474084D01*
X160649273Y-102517117D01*
X160670164Y-102547409D01*
X160692939Y-102602994D01*
X160692466Y-102643186D01*
X160668562Y-102670217D01*
X160659717Y-102674813D01*
X160621530Y-102689144D01*
X160602028Y-102685472D01*
X160595422Y-102661407D01*
X160595086Y-102648114D01*
X160582992Y-102599210D01*
X160551471Y-102564999D01*
X160507659Y-102548476D01*
X160458695Y-102552634D01*
X160418894Y-102574227D01*
X160405450Y-102586544D01*
X160395921Y-102601487D01*
X160389485Y-102624075D01*
X160385317Y-102659328D01*
X160382597Y-102712266D01*
X160380502Y-102787907D01*
X160379960Y-102811857D01*
X160377981Y-102893790D01*
X160375731Y-102951455D01*
X160372357Y-102989608D01*
X160367006Y-103013004D01*
X160358824Y-103026398D01*
X160346959Y-103034545D01*
X160339362Y-103038144D01*
X160307102Y-103050452D01*
X160288111Y-103054514D01*
X160281836Y-103040948D01*
X160278006Y-102999934D01*
X160276600Y-102930999D01*
X160277598Y-102833669D01*
X160277908Y-102818657D01*
X160280101Y-102729859D01*
X160282693Y-102665019D01*
X160286382Y-102619067D01*
X160291864Y-102586935D01*
X160299835Y-102563553D01*
X160310993Y-102543852D01*
X160316830Y-102535410D01*
X160350296Y-102498057D01*
X160387727Y-102469003D01*
X160392309Y-102466467D01*
X160459426Y-102446443D01*
X160529926Y-102449755D01*
G36*
X161190117Y-102565358D02*
G01*
X161189933Y-102673837D01*
X161189219Y-102757287D01*
X161187675Y-102819704D01*
X161185001Y-102865085D01*
X161180894Y-102897429D01*
X161175055Y-102920733D01*
X161167182Y-102938995D01*
X161161221Y-102949418D01*
X161111855Y-103005945D01*
X161049264Y-103041377D01*
X160980013Y-103054090D01*
X160910668Y-103042463D01*
X160869375Y-103021568D01*
X160826025Y-102985422D01*
X160796481Y-102941276D01*
X160778655Y-102883462D01*
X160770463Y-102806313D01*
X160769302Y-102749714D01*
X160769458Y-102745647D01*
X160870857Y-102745647D01*
X160871476Y-102810550D01*
X160874314Y-102853514D01*
X160880840Y-102881622D01*
X160892523Y-102901953D01*
X160906483Y-102917288D01*
X160953365Y-102946890D01*
X161003701Y-102949419D01*
X161051276Y-102924705D01*
X161054979Y-102921356D01*
X161070783Y-102903935D01*
X161080693Y-102883209D01*
X161086058Y-102852362D01*
X161088228Y-102804577D01*
X161088571Y-102751748D01*
X161087827Y-102685381D01*
X161084748Y-102641106D01*
X161078061Y-102612009D01*
X161066496Y-102591173D01*
X161057013Y-102580107D01*
X161012960Y-102552198D01*
X160962224Y-102548843D01*
X160913796Y-102570159D01*
X160904450Y-102578073D01*
X160888540Y-102595647D01*
X160878610Y-102616587D01*
X160873278Y-102647782D01*
X160871163Y-102696122D01*
X160870857Y-102745647D01*
X160769458Y-102745647D01*
X160772810Y-102658568D01*
X160784726Y-102590086D01*
X160807135Y-102538600D01*
X160842124Y-102498443D01*
X160869375Y-102477861D01*
X160918907Y-102455625D01*
X160976316Y-102445304D01*
X161029682Y-102448067D01*
X161059543Y-102459212D01*
X161071261Y-102462383D01*
X161079037Y-102450557D01*
X161084465Y-102418866D01*
X161088571Y-102370593D01*
X161093067Y-102316829D01*
X161099313Y-102284482D01*
X161110676Y-102265985D01*
X161130528Y-102253770D01*
X161143000Y-102248362D01*
X161190171Y-102228601D01*
X161190117Y-102565358D01*
G37*
X161190117Y-102565358D02*
X161189933Y-102673837D01*
X161189219Y-102757287D01*
X161187675Y-102819704D01*
X161185001Y-102865085D01*
X161180894Y-102897429D01*
X161175055Y-102920733D01*
X161167182Y-102938995D01*
X161161221Y-102949418D01*
X161111855Y-103005945D01*
X161049264Y-103041377D01*
X160980013Y-103054090D01*
X160910668Y-103042463D01*
X160869375Y-103021568D01*
X160826025Y-102985422D01*
X160796481Y-102941276D01*
X160778655Y-102883462D01*
X160770463Y-102806313D01*
X160769302Y-102749714D01*
X160769458Y-102745647D01*
X160870857Y-102745647D01*
X160871476Y-102810550D01*
X160874314Y-102853514D01*
X160880840Y-102881622D01*
X160892523Y-102901953D01*
X160906483Y-102917288D01*
X160953365Y-102946890D01*
X161003701Y-102949419D01*
X161051276Y-102924705D01*
X161054979Y-102921356D01*
X161070783Y-102903935D01*
X161080693Y-102883209D01*
X161086058Y-102852362D01*
X161088228Y-102804577D01*
X161088571Y-102751748D01*
X161087827Y-102685381D01*
X161084748Y-102641106D01*
X161078061Y-102612009D01*
X161066496Y-102591173D01*
X161057013Y-102580107D01*
X161012960Y-102552198D01*
X160962224Y-102548843D01*
X160913796Y-102570159D01*
X160904450Y-102578073D01*
X160888540Y-102595647D01*
X160878610Y-102616587D01*
X160873278Y-102647782D01*
X160871163Y-102696122D01*
X160870857Y-102745647D01*
X160769458Y-102745647D01*
X160772810Y-102658568D01*
X160784726Y-102590086D01*
X160807135Y-102538600D01*
X160842124Y-102498443D01*
X160869375Y-102477861D01*
X160918907Y-102455625D01*
X160976316Y-102445304D01*
X161029682Y-102448067D01*
X161059543Y-102459212D01*
X161071261Y-102462383D01*
X161079037Y-102450557D01*
X161084465Y-102418866D01*
X161088571Y-102370593D01*
X161093067Y-102316829D01*
X161099313Y-102284482D01*
X161110676Y-102265985D01*
X161130528Y-102253770D01*
X161143000Y-102248362D01*
X161190171Y-102228601D01*
X161190117Y-102565358D01*
G36*
X161779833Y-102458663D02*
G01*
X161782048Y-102496850D01*
X161783784Y-102554886D01*
X161784899Y-102628180D01*
X161785257Y-102705055D01*
X161785257Y-102965196D01*
X161739326Y-103011127D01*
X161707675Y-103039429D01*
X161679890Y-103050893D01*
X161641915Y-103050168D01*
X161626840Y-103048321D01*
X161579726Y-103042948D01*
X161540756Y-103039869D01*
X161531257Y-103039585D01*
X161499233Y-103041445D01*
X161453432Y-103046114D01*
X161435674Y-103048321D01*
X161392057Y-103051735D01*
X161362745Y-103044320D01*
X161333680Y-103021427D01*
X161323188Y-103011127D01*
X161277257Y-102965196D01*
X161277257Y-102478602D01*
X161314226Y-102461758D01*
X161346059Y-102449282D01*
X161364683Y-102444914D01*
X161369458Y-102458718D01*
X161373921Y-102497286D01*
X161377775Y-102556356D01*
X161380722Y-102631663D01*
X161382143Y-102695286D01*
X161386114Y-102945657D01*
X161420759Y-102950556D01*
X161452268Y-102947131D01*
X161467708Y-102936041D01*
X161472023Y-102915308D01*
X161475708Y-102871145D01*
X161478469Y-102809146D01*
X161480012Y-102734909D01*
X161480235Y-102696706D01*
X161480457Y-102476783D01*
X161526166Y-102460849D01*
X161558518Y-102450015D01*
X161576115Y-102444962D01*
X161576623Y-102444914D01*
X161578388Y-102458648D01*
X161580329Y-102496730D01*
X161582282Y-102554482D01*
X161584084Y-102627227D01*
X161585343Y-102695286D01*
X161589314Y-102945657D01*
X161676400Y-102945657D01*
X161680396Y-102717240D01*
X161684392Y-102488822D01*
X161726847Y-102466868D01*
X161758192Y-102451793D01*
X161776744Y-102444951D01*
X161777279Y-102444914D01*
X161779833Y-102458663D01*
G37*
X161779833Y-102458663D02*
X161782048Y-102496850D01*
X161783784Y-102554886D01*
X161784899Y-102628180D01*
X161785257Y-102705055D01*
X161785257Y-102965196D01*
X161739326Y-103011127D01*
X161707675Y-103039429D01*
X161679890Y-103050893D01*
X161641915Y-103050168D01*
X161626840Y-103048321D01*
X161579726Y-103042948D01*
X161540756Y-103039869D01*
X161531257Y-103039585D01*
X161499233Y-103041445D01*
X161453432Y-103046114D01*
X161435674Y-103048321D01*
X161392057Y-103051735D01*
X161362745Y-103044320D01*
X161333680Y-103021427D01*
X161323188Y-103011127D01*
X161277257Y-102965196D01*
X161277257Y-102478602D01*
X161314226Y-102461758D01*
X161346059Y-102449282D01*
X161364683Y-102444914D01*
X161369458Y-102458718D01*
X161373921Y-102497286D01*
X161377775Y-102556356D01*
X161380722Y-102631663D01*
X161382143Y-102695286D01*
X161386114Y-102945657D01*
X161420759Y-102950556D01*
X161452268Y-102947131D01*
X161467708Y-102936041D01*
X161472023Y-102915308D01*
X161475708Y-102871145D01*
X161478469Y-102809146D01*
X161480012Y-102734909D01*
X161480235Y-102696706D01*
X161480457Y-102476783D01*
X161526166Y-102460849D01*
X161558518Y-102450015D01*
X161576115Y-102444962D01*
X161576623Y-102444914D01*
X161578388Y-102458648D01*
X161580329Y-102496730D01*
X161582282Y-102554482D01*
X161584084Y-102627227D01*
X161585343Y-102695286D01*
X161589314Y-102945657D01*
X161676400Y-102945657D01*
X161680396Y-102717240D01*
X161684392Y-102488822D01*
X161726847Y-102466868D01*
X161758192Y-102451793D01*
X161776744Y-102444951D01*
X161777279Y-102444914D01*
X161779833Y-102458663D01*
G36*
X162144876Y-102456335D02*
G01*
X162186667Y-102475344D01*
X162219469Y-102498378D01*
X162243503Y-102524133D01*
X162260097Y-102557358D01*
X162270577Y-102602800D01*
X162276271Y-102665207D01*
X162278507Y-102749327D01*
X162278743Y-102804721D01*
X162278743Y-103020826D01*
X162241774Y-103037670D01*
X162212656Y-103049981D01*
X162198231Y-103054514D01*
X162195472Y-103041025D01*
X162193282Y-103004653D01*
X162191942Y-102951542D01*
X162191657Y-102909372D01*
X162190434Y-102848447D01*
X162187136Y-102800115D01*
X162182321Y-102770518D01*
X162178496Y-102764229D01*
X162152783Y-102770652D01*
X162112418Y-102787125D01*
X162065679Y-102809458D01*
X162020845Y-102833457D01*
X161986193Y-102854930D01*
X161970002Y-102869685D01*
X161969938Y-102869845D01*
X161971330Y-102897152D01*
X161983818Y-102923219D01*
X162005743Y-102944392D01*
X162037743Y-102951474D01*
X162065092Y-102950649D01*
X162103826Y-102950042D01*
X162124158Y-102959116D01*
X162136369Y-102983092D01*
X162137909Y-102987613D01*
X162143203Y-103021806D01*
X162129047Y-103042568D01*
X162092148Y-103052462D01*
X162052289Y-103054292D01*
X161980562Y-103040727D01*
X161943432Y-103021355D01*
X161897576Y-102975845D01*
X161873256Y-102919983D01*
X161871073Y-102860957D01*
X161891629Y-102805953D01*
X161922549Y-102771486D01*
X161953420Y-102752189D01*
X162001942Y-102727759D01*
X162058485Y-102702985D01*
X162067910Y-102699199D01*
X162130019Y-102671791D01*
X162165822Y-102647634D01*
X162177337Y-102623619D01*
X162166580Y-102596635D01*
X162148114Y-102575543D01*
X162104469Y-102549572D01*
X162056446Y-102547624D01*
X162012406Y-102567637D01*
X161980709Y-102607551D01*
X161976549Y-102617848D01*
X161952327Y-102655724D01*
X161916965Y-102683842D01*
X161872343Y-102706917D01*
X161872343Y-102641485D01*
X161874969Y-102601506D01*
X161886230Y-102569997D01*
X161911199Y-102536378D01*
X161935169Y-102510484D01*
X161972441Y-102473817D01*
X162001401Y-102454121D01*
X162032505Y-102446220D01*
X162067713Y-102444914D01*
X162144876Y-102456335D01*
G37*
X162144876Y-102456335D02*
X162186667Y-102475344D01*
X162219469Y-102498378D01*
X162243503Y-102524133D01*
X162260097Y-102557358D01*
X162270577Y-102602800D01*
X162276271Y-102665207D01*
X162278507Y-102749327D01*
X162278743Y-102804721D01*
X162278743Y-103020826D01*
X162241774Y-103037670D01*
X162212656Y-103049981D01*
X162198231Y-103054514D01*
X162195472Y-103041025D01*
X162193282Y-103004653D01*
X162191942Y-102951542D01*
X162191657Y-102909372D01*
X162190434Y-102848447D01*
X162187136Y-102800115D01*
X162182321Y-102770518D01*
X162178496Y-102764229D01*
X162152783Y-102770652D01*
X162112418Y-102787125D01*
X162065679Y-102809458D01*
X162020845Y-102833457D01*
X161986193Y-102854930D01*
X161970002Y-102869685D01*
X161969938Y-102869845D01*
X161971330Y-102897152D01*
X161983818Y-102923219D01*
X162005743Y-102944392D01*
X162037743Y-102951474D01*
X162065092Y-102950649D01*
X162103826Y-102950042D01*
X162124158Y-102959116D01*
X162136369Y-102983092D01*
X162137909Y-102987613D01*
X162143203Y-103021806D01*
X162129047Y-103042568D01*
X162092148Y-103052462D01*
X162052289Y-103054292D01*
X161980562Y-103040727D01*
X161943432Y-103021355D01*
X161897576Y-102975845D01*
X161873256Y-102919983D01*
X161871073Y-102860957D01*
X161891629Y-102805953D01*
X161922549Y-102771486D01*
X161953420Y-102752189D01*
X162001942Y-102727759D01*
X162058485Y-102702985D01*
X162067910Y-102699199D01*
X162130019Y-102671791D01*
X162165822Y-102647634D01*
X162177337Y-102623619D01*
X162166580Y-102596635D01*
X162148114Y-102575543D01*
X162104469Y-102549572D01*
X162056446Y-102547624D01*
X162012406Y-102567637D01*
X161980709Y-102607551D01*
X161976549Y-102617848D01*
X161952327Y-102655724D01*
X161916965Y-102683842D01*
X161872343Y-102706917D01*
X161872343Y-102641485D01*
X161874969Y-102601506D01*
X161886230Y-102569997D01*
X161911199Y-102536378D01*
X161935169Y-102510484D01*
X161972441Y-102473817D01*
X162001401Y-102454121D01*
X162032505Y-102446220D01*
X162067713Y-102444914D01*
X162144876Y-102456335D01*
G36*
X162652600Y-102458752D02*
G01*
X162669948Y-102466334D01*
X162711356Y-102499128D01*
X162746765Y-102546547D01*
X162768664Y-102597151D01*
X162772229Y-102622098D01*
X162760279Y-102656927D01*
X162734067Y-102675357D01*
X162705964Y-102686516D01*
X162693095Y-102688572D01*
X162686829Y-102673649D01*
X162674456Y-102641175D01*
X162669028Y-102626502D01*
X162638590Y-102575744D01*
X162594520Y-102550427D01*
X162538010Y-102551206D01*
X162533825Y-102552203D01*
X162503655Y-102566507D01*
X162481476Y-102594393D01*
X162466327Y-102639287D01*
X162457250Y-102704615D01*
X162453286Y-102793804D01*
X162452914Y-102841261D01*
X162452730Y-102916071D01*
X162451522Y-102967069D01*
X162448309Y-102999471D01*
X162442109Y-103018495D01*
X162431940Y-103029356D01*
X162416819Y-103037272D01*
X162415946Y-103037670D01*
X162386828Y-103049981D01*
X162372403Y-103054514D01*
X162370186Y-103040809D01*
X162368289Y-103002925D01*
X162366847Y-102945715D01*
X162365998Y-102874027D01*
X162365829Y-102821565D01*
X162366692Y-102720047D01*
X162370070Y-102643032D01*
X162377142Y-102586023D01*
X162389088Y-102544526D01*
X162407090Y-102514043D01*
X162432327Y-102490080D01*
X162457247Y-102473355D01*
X162517171Y-102451097D01*
X162586911Y-102446076D01*
X162652600Y-102458752D01*
G37*
X162652600Y-102458752D02*
X162669948Y-102466334D01*
X162711356Y-102499128D01*
X162746765Y-102546547D01*
X162768664Y-102597151D01*
X162772229Y-102622098D01*
X162760279Y-102656927D01*
X162734067Y-102675357D01*
X162705964Y-102686516D01*
X162693095Y-102688572D01*
X162686829Y-102673649D01*
X162674456Y-102641175D01*
X162669028Y-102626502D01*
X162638590Y-102575744D01*
X162594520Y-102550427D01*
X162538010Y-102551206D01*
X162533825Y-102552203D01*
X162503655Y-102566507D01*
X162481476Y-102594393D01*
X162466327Y-102639287D01*
X162457250Y-102704615D01*
X162453286Y-102793804D01*
X162452914Y-102841261D01*
X162452730Y-102916071D01*
X162451522Y-102967069D01*
X162448309Y-102999471D01*
X162442109Y-103018495D01*
X162431940Y-103029356D01*
X162416819Y-103037272D01*
X162415946Y-103037670D01*
X162386828Y-103049981D01*
X162372403Y-103054514D01*
X162370186Y-103040809D01*
X162368289Y-103002925D01*
X162366847Y-102945715D01*
X162365998Y-102874027D01*
X162365829Y-102821565D01*
X162366692Y-102720047D01*
X162370070Y-102643032D01*
X162377142Y-102586023D01*
X162389088Y-102544526D01*
X162407090Y-102514043D01*
X162432327Y-102490080D01*
X162457247Y-102473355D01*
X162517171Y-102451097D01*
X162586911Y-102446076D01*
X162652600Y-102458752D01*
G36*
X163153595Y-102466966D02*
G01*
X163211021Y-102504497D01*
X163238719Y-102538096D01*
X163260662Y-102599064D01*
X163262405Y-102647308D01*
X163258457Y-102711816D01*
X163109686Y-102776934D01*
X163037349Y-102810202D01*
X162990084Y-102836964D01*
X162965507Y-102860144D01*
X162961237Y-102882667D01*
X162974889Y-102907455D01*
X162989943Y-102923886D01*
X163033746Y-102950235D01*
X163081389Y-102952081D01*
X163125145Y-102931546D01*
X163157289Y-102890752D01*
X163163038Y-102876347D01*
X163190576Y-102831356D01*
X163222258Y-102812182D01*
X163265714Y-102795779D01*
X163265714Y-102857966D01*
X163261872Y-102900283D01*
X163246823Y-102935969D01*
X163215280Y-102976943D01*
X163210592Y-102982267D01*
X163175506Y-103018720D01*
X163145347Y-103038283D01*
X163107615Y-103047283D01*
X163076335Y-103050230D01*
X163020385Y-103050965D01*
X162980555Y-103041660D01*
X162955708Y-103027846D01*
X162916656Y-102997467D01*
X162889625Y-102964613D01*
X162872517Y-102923294D01*
X162863238Y-102867521D01*
X162859693Y-102791305D01*
X162859410Y-102752622D01*
X162860372Y-102706247D01*
X162948007Y-102706247D01*
X162949023Y-102731126D01*
X162951556Y-102735200D01*
X162968274Y-102729665D01*
X163004249Y-102715017D01*
X163052331Y-102694190D01*
X163062386Y-102689714D01*
X163123152Y-102658814D01*
X163156632Y-102631657D01*
X163163990Y-102606220D01*
X163146391Y-102580481D01*
X163131856Y-102569109D01*
X163079410Y-102546364D01*
X163030322Y-102550122D01*
X162989227Y-102577884D01*
X162960758Y-102627152D01*
X162951631Y-102666257D01*
X162948007Y-102706247D01*
X162860372Y-102706247D01*
X162861285Y-102662249D01*
X162868196Y-102595384D01*
X162881884Y-102546695D01*
X162904096Y-102510849D01*
X162936574Y-102482513D01*
X162950733Y-102473355D01*
X163015053Y-102449507D01*
X163085473Y-102448006D01*
X163153595Y-102466966D01*
G37*
X163153595Y-102466966D02*
X163211021Y-102504497D01*
X163238719Y-102538096D01*
X163260662Y-102599064D01*
X163262405Y-102647308D01*
X163258457Y-102711816D01*
X163109686Y-102776934D01*
X163037349Y-102810202D01*
X162990084Y-102836964D01*
X162965507Y-102860144D01*
X162961237Y-102882667D01*
X162974889Y-102907455D01*
X162989943Y-102923886D01*
X163033746Y-102950235D01*
X163081389Y-102952081D01*
X163125145Y-102931546D01*
X163157289Y-102890752D01*
X163163038Y-102876347D01*
X163190576Y-102831356D01*
X163222258Y-102812182D01*
X163265714Y-102795779D01*
X163265714Y-102857966D01*
X163261872Y-102900283D01*
X163246823Y-102935969D01*
X163215280Y-102976943D01*
X163210592Y-102982267D01*
X163175506Y-103018720D01*
X163145347Y-103038283D01*
X163107615Y-103047283D01*
X163076335Y-103050230D01*
X163020385Y-103050965D01*
X162980555Y-103041660D01*
X162955708Y-103027846D01*
X162916656Y-102997467D01*
X162889625Y-102964613D01*
X162872517Y-102923294D01*
X162863238Y-102867521D01*
X162859693Y-102791305D01*
X162859410Y-102752622D01*
X162860372Y-102706247D01*
X162948007Y-102706247D01*
X162949023Y-102731126D01*
X162951556Y-102735200D01*
X162968274Y-102729665D01*
X163004249Y-102715017D01*
X163052331Y-102694190D01*
X163062386Y-102689714D01*
X163123152Y-102658814D01*
X163156632Y-102631657D01*
X163163990Y-102606220D01*
X163146391Y-102580481D01*
X163131856Y-102569109D01*
X163079410Y-102546364D01*
X163030322Y-102550122D01*
X162989227Y-102577884D01*
X162960758Y-102627152D01*
X162951631Y-102666257D01*
X162948007Y-102706247D01*
X162860372Y-102706247D01*
X162861285Y-102662249D01*
X162868196Y-102595384D01*
X162881884Y-102546695D01*
X162904096Y-102510849D01*
X162936574Y-102482513D01*
X162950733Y-102473355D01*
X163015053Y-102449507D01*
X163085473Y-102448006D01*
X163153595Y-102466966D01*
G36*
X160103910Y-97742348D02*
G01*
X160182454Y-97742778D01*
X160239298Y-97743942D01*
X160278105Y-97746207D01*
X160302538Y-97749940D01*
X160316262Y-97755506D01*
X160322940Y-97763273D01*
X160326236Y-97773605D01*
X160326556Y-97774943D01*
X160331562Y-97799079D01*
X160340829Y-97846701D01*
X160353392Y-97912741D01*
X160368287Y-97992128D01*
X160384551Y-98079796D01*
X160385119Y-98082875D01*
X160401410Y-98168789D01*
X160416652Y-98244696D01*
X160429861Y-98306045D01*
X160440054Y-98348282D01*
X160446248Y-98366855D01*
X160446543Y-98367184D01*
X160464788Y-98376253D01*
X160502405Y-98391367D01*
X160551271Y-98409262D01*
X160551543Y-98409358D01*
X160613093Y-98432493D01*
X160685657Y-98461965D01*
X160754057Y-98491597D01*
X160757294Y-98493062D01*
X160868702Y-98543626D01*
X161115399Y-98375160D01*
X161191077Y-98323803D01*
X161259631Y-98277889D01*
X161317088Y-98240030D01*
X161359476Y-98212837D01*
X161382825Y-98198921D01*
X161385042Y-98197889D01*
X161402010Y-98202484D01*
X161433701Y-98224655D01*
X161481352Y-98265447D01*
X161546198Y-98325905D01*
X161612397Y-98390227D01*
X161676214Y-98453612D01*
X161733329Y-98511451D01*
X161780305Y-98560175D01*
X161813703Y-98596210D01*
X161830085Y-98615984D01*
X161830694Y-98617002D01*
X161832505Y-98630572D01*
X161825683Y-98652733D01*
X161808540Y-98686478D01*
X161779393Y-98734800D01*
X161736555Y-98800692D01*
X161679448Y-98885517D01*
X161628766Y-98960177D01*
X161583461Y-99027140D01*
X161546150Y-99082516D01*
X161519452Y-99122420D01*
X161505985Y-99142962D01*
X161505137Y-99144356D01*
X161506781Y-99164038D01*
X161519245Y-99202293D01*
X161540048Y-99251889D01*
X161547462Y-99267728D01*
X161579814Y-99338290D01*
X161614328Y-99418353D01*
X161642365Y-99487629D01*
X161662568Y-99539045D01*
X161678615Y-99578119D01*
X161687888Y-99598541D01*
X161689041Y-99600114D01*
X161706096Y-99602721D01*
X161746298Y-99609863D01*
X161804302Y-99620523D01*
X161874763Y-99633685D01*
X161952335Y-99648333D01*
X162031672Y-99663449D01*
X162107431Y-99678018D01*
X162174264Y-99691022D01*
X162226828Y-99701445D01*
X162259776Y-99708270D01*
X162267857Y-99710199D01*
X162276205Y-99714962D01*
X162282506Y-99725718D01*
X162287045Y-99746098D01*
X162290104Y-99779734D01*
X162291967Y-99830255D01*
X162292918Y-99901292D01*
X162293240Y-99996476D01*
X162293257Y-100035492D01*
X162293257Y-100352799D01*
X162217057Y-100367839D01*
X162174663Y-100375995D01*
X162111400Y-100387899D01*
X162034962Y-100402116D01*
X161953043Y-100417210D01*
X161930400Y-100421355D01*
X161854806Y-100436053D01*
X161788953Y-100450505D01*
X161738366Y-100463375D01*
X161708574Y-100473322D01*
X161703612Y-100476287D01*
X161691426Y-100497283D01*
X161673953Y-100537967D01*
X161654577Y-100590322D01*
X161650734Y-100601600D01*
X161625339Y-100671523D01*
X161593817Y-100750418D01*
X161562969Y-100821266D01*
X161562817Y-100821595D01*
X161511447Y-100932733D01*
X161680399Y-101181253D01*
X161849352Y-101429772D01*
X161632429Y-101647058D01*
X161566819Y-101711726D01*
X161506979Y-101768733D01*
X161456267Y-101815033D01*
X161418046Y-101847584D01*
X161395675Y-101863343D01*
X161392466Y-101864343D01*
X161373626Y-101856469D01*
X161335180Y-101834578D01*
X161281330Y-101801267D01*
X161216276Y-101759131D01*
X161145940Y-101711943D01*
X161074555Y-101663810D01*
X161010908Y-101621928D01*
X160959041Y-101588871D01*
X160922995Y-101567218D01*
X160906867Y-101559543D01*
X160887189Y-101566037D01*
X160849875Y-101583150D01*
X160802621Y-101607326D01*
X160797612Y-101610013D01*
X160733977Y-101641927D01*
X160690341Y-101657579D01*
X160663202Y-101657745D01*
X160649057Y-101643204D01*
X160648975Y-101643000D01*
X160641905Y-101625779D01*
X160625042Y-101584899D01*
X160599695Y-101523525D01*
X160567171Y-101444819D01*
X160528778Y-101351947D01*
X160485822Y-101248072D01*
X160444222Y-101147502D01*
X160398504Y-101036516D01*
X160356526Y-100933703D01*
X160319548Y-100842215D01*
X160288827Y-100765201D01*
X160265622Y-100705815D01*
X160251190Y-100667209D01*
X160246743Y-100652800D01*
X160257896Y-100636272D01*
X160287069Y-100609930D01*
X160325971Y-100580887D01*
X160436757Y-100489039D01*
X160523351Y-100383759D01*
X160584716Y-100267266D01*
X160619815Y-100141776D01*
X160627608Y-100009507D01*
X160621943Y-99948457D01*
X160591078Y-99821795D01*
X160537920Y-99709941D01*
X160465767Y-99614001D01*
X160377917Y-99535076D01*
X160277665Y-99474270D01*
X160168310Y-99432687D01*
X160053147Y-99411428D01*
X159935475Y-99411599D01*
X159818590Y-99434301D01*
X159705789Y-99480638D01*
X159600369Y-99551713D01*
X159556368Y-99591911D01*
X159471979Y-99695129D01*
X159413222Y-99807925D01*
X159379704Y-99927010D01*
X159371035Y-100049095D01*
X159386823Y-100170893D01*
X159426678Y-100289116D01*
X159490207Y-100400475D01*
X159577021Y-100501684D01*
X159674029Y-100580887D01*
X159714437Y-100611162D01*
X159742982Y-100637219D01*
X159753257Y-100652825D01*
X159747877Y-100669843D01*
X159732575Y-100710500D01*
X159708612Y-100771642D01*
X159677244Y-100850119D01*
X159639732Y-100942780D01*
X159597333Y-101046472D01*
X159555663Y-101147526D01*
X159509690Y-101258607D01*
X159467107Y-101361541D01*
X159429221Y-101453165D01*
X159397340Y-101530316D01*
X159372771Y-101589831D01*
X159356820Y-101628544D01*
X159350910Y-101643000D01*
X159336948Y-101657685D01*
X159309940Y-101657642D01*
X159266413Y-101642099D01*
X159202890Y-101610284D01*
X159202388Y-101610013D01*
X159154560Y-101585323D01*
X159115897Y-101567338D01*
X159094095Y-101559614D01*
X159093133Y-101559543D01*
X159076721Y-101567378D01*
X159040487Y-101589165D01*
X158988474Y-101622328D01*
X158924725Y-101664291D01*
X158854060Y-101711943D01*
X158782116Y-101760191D01*
X158717274Y-101802151D01*
X158663735Y-101835227D01*
X158625697Y-101856821D01*
X158607533Y-101864343D01*
X158590808Y-101854457D01*
X158557180Y-101826826D01*
X158510010Y-101784495D01*
X158452658Y-101730505D01*
X158388484Y-101667899D01*
X158367497Y-101646983D01*
X158150499Y-101429623D01*
X158315668Y-101187220D01*
X158365864Y-101112781D01*
X158409919Y-101045972D01*
X158445362Y-100990665D01*
X158469719Y-100950729D01*
X158480522Y-100930036D01*
X158480838Y-100928563D01*
X158475143Y-100909058D01*
X158459826Y-100869822D01*
X158437537Y-100817430D01*
X158421893Y-100782355D01*
X158392641Y-100715201D01*
X158365094Y-100647358D01*
X158343737Y-100590034D01*
X158337935Y-100572572D01*
X158321452Y-100525938D01*
X158305340Y-100489905D01*
X158296490Y-100476287D01*
X158276960Y-100467952D01*
X158234334Y-100456137D01*
X158174145Y-100442181D01*
X158101922Y-100427422D01*
X158069600Y-100421355D01*
X157987522Y-100406273D01*
X157908795Y-100391669D01*
X157841109Y-100378980D01*
X157792160Y-100369642D01*
X157782943Y-100367839D01*
X157706743Y-100352799D01*
X157706743Y-100035492D01*
X157706914Y-99931154D01*
X157707616Y-99852213D01*
X157709134Y-99795038D01*
X157711749Y-99755999D01*
X157715746Y-99731465D01*
X157721409Y-99717805D01*
X157729020Y-99711389D01*
X157732143Y-99710199D01*
X157750978Y-99705980D01*
X157792588Y-99697562D01*
X157851630Y-99685961D01*
X157922757Y-99672195D01*
X158000625Y-99657280D01*
X158079887Y-99642232D01*
X158155198Y-99628069D01*
X158221213Y-99615806D01*
X158272587Y-99606461D01*
X158303975Y-99601050D01*
X158310959Y-99600114D01*
X158317285Y-99587596D01*
X158331290Y-99554246D01*
X158350355Y-99506377D01*
X158357634Y-99487629D01*
X158386996Y-99415195D01*
X158421571Y-99335170D01*
X158452537Y-99267728D01*
X158475323Y-99216159D01*
X158490482Y-99173785D01*
X158495542Y-99147834D01*
X158494736Y-99144356D01*
X158484041Y-99127936D01*
X158459620Y-99091417D01*
X158424095Y-99038687D01*
X158380087Y-98973635D01*
X158330217Y-98900151D01*
X158320356Y-98885645D01*
X158262492Y-98799704D01*
X158219956Y-98734261D01*
X158191054Y-98686304D01*
X158174090Y-98652820D01*
X158167367Y-98630795D01*
X158169190Y-98617217D01*
X158169236Y-98617131D01*
X158183586Y-98599297D01*
X158215323Y-98564817D01*
X158261010Y-98517268D01*
X158317204Y-98460222D01*
X158380468Y-98397255D01*
X158387602Y-98390227D01*
X158467330Y-98313020D01*
X158528857Y-98256330D01*
X158573421Y-98219110D01*
X158602257Y-98200315D01*
X158614958Y-98197889D01*
X158633494Y-98208471D01*
X158671961Y-98232916D01*
X158726386Y-98268612D01*
X158792798Y-98312947D01*
X158867225Y-98363311D01*
X158884601Y-98375160D01*
X159131297Y-98543626D01*
X159242706Y-98493062D01*
X159310457Y-98463595D01*
X159383183Y-98433959D01*
X159445703Y-98410330D01*
X159448457Y-98409358D01*
X159497360Y-98391457D01*
X159535057Y-98376320D01*
X159553425Y-98367210D01*
X159553456Y-98367184D01*
X159559285Y-98350717D01*
X159569192Y-98310219D01*
X159582195Y-98250242D01*
X159597309Y-98175340D01*
X159613552Y-98090064D01*
X159614881Y-98082875D01*
X159631175Y-97995014D01*
X159646133Y-97915260D01*
X159658791Y-97848681D01*
X159668186Y-97800347D01*
X159673354Y-97775325D01*
X159673444Y-97774943D01*
X159676589Y-97764299D01*
X159682704Y-97756262D01*
X159695453Y-97750467D01*
X159718500Y-97746547D01*
X159755509Y-97744135D01*
X159810144Y-97742865D01*
X159886067Y-97742371D01*
X159986944Y-97742286D01*
X160000000Y-97742286D01*
X160103910Y-97742348D01*
G37*
X160103910Y-97742348D02*
X160182454Y-97742778D01*
X160239298Y-97743942D01*
X160278105Y-97746207D01*
X160302538Y-97749940D01*
X160316262Y-97755506D01*
X160322940Y-97763273D01*
X160326236Y-97773605D01*
X160326556Y-97774943D01*
X160331562Y-97799079D01*
X160340829Y-97846701D01*
X160353392Y-97912741D01*
X160368287Y-97992128D01*
X160384551Y-98079796D01*
X160385119Y-98082875D01*
X160401410Y-98168789D01*
X160416652Y-98244696D01*
X160429861Y-98306045D01*
X160440054Y-98348282D01*
X160446248Y-98366855D01*
X160446543Y-98367184D01*
X160464788Y-98376253D01*
X160502405Y-98391367D01*
X160551271Y-98409262D01*
X160551543Y-98409358D01*
X160613093Y-98432493D01*
X160685657Y-98461965D01*
X160754057Y-98491597D01*
X160757294Y-98493062D01*
X160868702Y-98543626D01*
X161115399Y-98375160D01*
X161191077Y-98323803D01*
X161259631Y-98277889D01*
X161317088Y-98240030D01*
X161359476Y-98212837D01*
X161382825Y-98198921D01*
X161385042Y-98197889D01*
X161402010Y-98202484D01*
X161433701Y-98224655D01*
X161481352Y-98265447D01*
X161546198Y-98325905D01*
X161612397Y-98390227D01*
X161676214Y-98453612D01*
X161733329Y-98511451D01*
X161780305Y-98560175D01*
X161813703Y-98596210D01*
X161830085Y-98615984D01*
X161830694Y-98617002D01*
X161832505Y-98630572D01*
X161825683Y-98652733D01*
X161808540Y-98686478D01*
X161779393Y-98734800D01*
X161736555Y-98800692D01*
X161679448Y-98885517D01*
X161628766Y-98960177D01*
X161583461Y-99027140D01*
X161546150Y-99082516D01*
X161519452Y-99122420D01*
X161505985Y-99142962D01*
X161505137Y-99144356D01*
X161506781Y-99164038D01*
X161519245Y-99202293D01*
X161540048Y-99251889D01*
X161547462Y-99267728D01*
X161579814Y-99338290D01*
X161614328Y-99418353D01*
X161642365Y-99487629D01*
X161662568Y-99539045D01*
X161678615Y-99578119D01*
X161687888Y-99598541D01*
X161689041Y-99600114D01*
X161706096Y-99602721D01*
X161746298Y-99609863D01*
X161804302Y-99620523D01*
X161874763Y-99633685D01*
X161952335Y-99648333D01*
X162031672Y-99663449D01*
X162107431Y-99678018D01*
X162174264Y-99691022D01*
X162226828Y-99701445D01*
X162259776Y-99708270D01*
X162267857Y-99710199D01*
X162276205Y-99714962D01*
X162282506Y-99725718D01*
X162287045Y-99746098D01*
X162290104Y-99779734D01*
X162291967Y-99830255D01*
X162292918Y-99901292D01*
X162293240Y-99996476D01*
X162293257Y-100035492D01*
X162293257Y-100352799D01*
X162217057Y-100367839D01*
X162174663Y-100375995D01*
X162111400Y-100387899D01*
X162034962Y-100402116D01*
X161953043Y-100417210D01*
X161930400Y-100421355D01*
X161854806Y-100436053D01*
X161788953Y-100450505D01*
X161738366Y-100463375D01*
X161708574Y-100473322D01*
X161703612Y-100476287D01*
X161691426Y-100497283D01*
X161673953Y-100537967D01*
X161654577Y-100590322D01*
X161650734Y-100601600D01*
X161625339Y-100671523D01*
X161593817Y-100750418D01*
X161562969Y-100821266D01*
X161562817Y-100821595D01*
X161511447Y-100932733D01*
X161680399Y-101181253D01*
X161849352Y-101429772D01*
X161632429Y-101647058D01*
X161566819Y-101711726D01*
X161506979Y-101768733D01*
X161456267Y-101815033D01*
X161418046Y-101847584D01*
X161395675Y-101863343D01*
X161392466Y-101864343D01*
X161373626Y-101856469D01*
X161335180Y-101834578D01*
X161281330Y-101801267D01*
X161216276Y-101759131D01*
X161145940Y-101711943D01*
X161074555Y-101663810D01*
X161010908Y-101621928D01*
X160959041Y-101588871D01*
X160922995Y-101567218D01*
X160906867Y-101559543D01*
X160887189Y-101566037D01*
X160849875Y-101583150D01*
X160802621Y-101607326D01*
X160797612Y-101610013D01*
X160733977Y-101641927D01*
X160690341Y-101657579D01*
X160663202Y-101657745D01*
X160649057Y-101643204D01*
X160648975Y-101643000D01*
X160641905Y-101625779D01*
X160625042Y-101584899D01*
X160599695Y-101523525D01*
X160567171Y-101444819D01*
X160528778Y-101351947D01*
X160485822Y-101248072D01*
X160444222Y-101147502D01*
X160398504Y-101036516D01*
X160356526Y-100933703D01*
X160319548Y-100842215D01*
X160288827Y-100765201D01*
X160265622Y-100705815D01*
X160251190Y-100667209D01*
X160246743Y-100652800D01*
X160257896Y-100636272D01*
X160287069Y-100609930D01*
X160325971Y-100580887D01*
X160436757Y-100489039D01*
X160523351Y-100383759D01*
X160584716Y-100267266D01*
X160619815Y-100141776D01*
X160627608Y-100009507D01*
X160621943Y-99948457D01*
X160591078Y-99821795D01*
X160537920Y-99709941D01*
X160465767Y-99614001D01*
X160377917Y-99535076D01*
X160277665Y-99474270D01*
X160168310Y-99432687D01*
X160053147Y-99411428D01*
X159935475Y-99411599D01*
X159818590Y-99434301D01*
X159705789Y-99480638D01*
X159600369Y-99551713D01*
X159556368Y-99591911D01*
X159471979Y-99695129D01*
X159413222Y-99807925D01*
X159379704Y-99927010D01*
X159371035Y-100049095D01*
X159386823Y-100170893D01*
X159426678Y-100289116D01*
X159490207Y-100400475D01*
X159577021Y-100501684D01*
X159674029Y-100580887D01*
X159714437Y-100611162D01*
X159742982Y-100637219D01*
X159753257Y-100652825D01*
X159747877Y-100669843D01*
X159732575Y-100710500D01*
X159708612Y-100771642D01*
X159677244Y-100850119D01*
X159639732Y-100942780D01*
X159597333Y-101046472D01*
X159555663Y-101147526D01*
X159509690Y-101258607D01*
X159467107Y-101361541D01*
X159429221Y-101453165D01*
X159397340Y-101530316D01*
X159372771Y-101589831D01*
X159356820Y-101628544D01*
X159350910Y-101643000D01*
X159336948Y-101657685D01*
X159309940Y-101657642D01*
X159266413Y-101642099D01*
X159202890Y-101610284D01*
X159202388Y-101610013D01*
X159154560Y-101585323D01*
X159115897Y-101567338D01*
X159094095Y-101559614D01*
X159093133Y-101559543D01*
X159076721Y-101567378D01*
X159040487Y-101589165D01*
X158988474Y-101622328D01*
X158924725Y-101664291D01*
X158854060Y-101711943D01*
X158782116Y-101760191D01*
X158717274Y-101802151D01*
X158663735Y-101835227D01*
X158625697Y-101856821D01*
X158607533Y-101864343D01*
X158590808Y-101854457D01*
X158557180Y-101826826D01*
X158510010Y-101784495D01*
X158452658Y-101730505D01*
X158388484Y-101667899D01*
X158367497Y-101646983D01*
X158150499Y-101429623D01*
X158315668Y-101187220D01*
X158365864Y-101112781D01*
X158409919Y-101045972D01*
X158445362Y-100990665D01*
X158469719Y-100950729D01*
X158480522Y-100930036D01*
X158480838Y-100928563D01*
X158475143Y-100909058D01*
X158459826Y-100869822D01*
X158437537Y-100817430D01*
X158421893Y-100782355D01*
X158392641Y-100715201D01*
X158365094Y-100647358D01*
X158343737Y-100590034D01*
X158337935Y-100572572D01*
X158321452Y-100525938D01*
X158305340Y-100489905D01*
X158296490Y-100476287D01*
X158276960Y-100467952D01*
X158234334Y-100456137D01*
X158174145Y-100442181D01*
X158101922Y-100427422D01*
X158069600Y-100421355D01*
X157987522Y-100406273D01*
X157908795Y-100391669D01*
X157841109Y-100378980D01*
X157792160Y-100369642D01*
X157782943Y-100367839D01*
X157706743Y-100352799D01*
X157706743Y-100035492D01*
X157706914Y-99931154D01*
X157707616Y-99852213D01*
X157709134Y-99795038D01*
X157711749Y-99755999D01*
X157715746Y-99731465D01*
X157721409Y-99717805D01*
X157729020Y-99711389D01*
X157732143Y-99710199D01*
X157750978Y-99705980D01*
X157792588Y-99697562D01*
X157851630Y-99685961D01*
X157922757Y-99672195D01*
X158000625Y-99657280D01*
X158079887Y-99642232D01*
X158155198Y-99628069D01*
X158221213Y-99615806D01*
X158272587Y-99606461D01*
X158303975Y-99601050D01*
X158310959Y-99600114D01*
X158317285Y-99587596D01*
X158331290Y-99554246D01*
X158350355Y-99506377D01*
X158357634Y-99487629D01*
X158386996Y-99415195D01*
X158421571Y-99335170D01*
X158452537Y-99267728D01*
X158475323Y-99216159D01*
X158490482Y-99173785D01*
X158495542Y-99147834D01*
X158494736Y-99144356D01*
X158484041Y-99127936D01*
X158459620Y-99091417D01*
X158424095Y-99038687D01*
X158380087Y-98973635D01*
X158330217Y-98900151D01*
X158320356Y-98885645D01*
X158262492Y-98799704D01*
X158219956Y-98734261D01*
X158191054Y-98686304D01*
X158174090Y-98652820D01*
X158167367Y-98630795D01*
X158169190Y-98617217D01*
X158169236Y-98617131D01*
X158183586Y-98599297D01*
X158215323Y-98564817D01*
X158261010Y-98517268D01*
X158317204Y-98460222D01*
X158380468Y-98397255D01*
X158387602Y-98390227D01*
X158467330Y-98313020D01*
X158528857Y-98256330D01*
X158573421Y-98219110D01*
X158602257Y-98200315D01*
X158614958Y-98197889D01*
X158633494Y-98208471D01*
X158671961Y-98232916D01*
X158726386Y-98268612D01*
X158792798Y-98312947D01*
X158867225Y-98363311D01*
X158884601Y-98375160D01*
X159131297Y-98543626D01*
X159242706Y-98493062D01*
X159310457Y-98463595D01*
X159383183Y-98433959D01*
X159445703Y-98410330D01*
X159448457Y-98409358D01*
X159497360Y-98391457D01*
X159535057Y-98376320D01*
X159553425Y-98367210D01*
X159553456Y-98367184D01*
X159559285Y-98350717D01*
X159569192Y-98310219D01*
X159582195Y-98250242D01*
X159597309Y-98175340D01*
X159613552Y-98090064D01*
X159614881Y-98082875D01*
X159631175Y-97995014D01*
X159646133Y-97915260D01*
X159658791Y-97848681D01*
X159668186Y-97800347D01*
X159673354Y-97775325D01*
X159673444Y-97774943D01*
X159676589Y-97764299D01*
X159682704Y-97756262D01*
X159695453Y-97750467D01*
X159718500Y-97746547D01*
X159755509Y-97744135D01*
X159810144Y-97742865D01*
X159886067Y-97742371D01*
X159986944Y-97742286D01*
X160000000Y-97742286D01*
X160103910Y-97742348D01*
D13*
%TO.C,C1*%
X140590000Y-86910000D02*
X142940000Y-86910000D01*
X147410000Y-86910000D02*
X145060000Y-86910000D01*
X147410000Y-81154437D02*
X147410000Y-86910000D01*
X140590000Y-81154437D02*
X140590000Y-86910000D01*
X141654437Y-80090000D02*
X142940000Y-80090000D01*
X146345563Y-80090000D02*
X145060000Y-80090000D01*
X146345563Y-80090000D02*
X147410000Y-81154437D01*
X141654437Y-80090000D02*
X140590000Y-81154437D01*
X145847500Y-79062500D02*
X145847500Y-79850000D01*
X146241250Y-79456250D02*
X145453750Y-79456250D01*
%TO.C,R6*%
X123272936Y-85765000D02*
X123727064Y-85765000D01*
X123272936Y-87235000D02*
X123727064Y-87235000D01*
%TO.C,R5*%
X123272936Y-104265000D02*
X123727064Y-104265000D01*
X123272936Y-105735000D02*
X123727064Y-105735000D01*
%TO.C,R4*%
X169727064Y-98235000D02*
X169272936Y-98235000D01*
X169727064Y-96765000D02*
X169272936Y-96765000D01*
%TO.C,R3*%
X123727064Y-102735000D02*
X123272936Y-102735000D01*
X123727064Y-101265000D02*
X123272936Y-101265000D01*
%TO.C,R2*%
X123727064Y-84735000D02*
X123272936Y-84735000D01*
X123727064Y-83265000D02*
X123272936Y-83265000D01*
%TO.C,R1*%
X169272936Y-99265000D02*
X169727064Y-99265000D01*
X169272936Y-100735000D02*
X169727064Y-100735000D01*
%TO.C,PO3*%
X108300000Y-118100000D02*
X99800000Y-118100000D01*
X99800000Y-118100000D02*
X99800000Y-108900000D01*
X99800000Y-108900000D02*
X114500000Y-108900000D01*
X114500000Y-116000000D02*
X114500000Y-118100000D01*
X114500000Y-118100000D02*
X112700000Y-118100000D01*
X114800000Y-110300000D02*
X114800000Y-108600000D01*
X114800000Y-108600000D02*
X113200000Y-108600000D01*
X114500000Y-108900000D02*
X114500000Y-111000000D01*
%TO.C,PO2*%
X183700000Y-128400000D02*
X192200000Y-128400000D01*
X192200000Y-128400000D02*
X192200000Y-137600000D01*
X192200000Y-137600000D02*
X177500000Y-137600000D01*
X177500000Y-130500000D02*
X177500000Y-128400000D01*
X177500000Y-128400000D02*
X179300000Y-128400000D01*
X177200000Y-136200000D02*
X177200000Y-137900000D01*
X177200000Y-137900000D02*
X178800000Y-137900000D01*
X177500000Y-137600000D02*
X177500000Y-135500000D01*
%TO.C,PO1*%
X183700000Y-114900000D02*
X192200000Y-114900000D01*
X192200000Y-114900000D02*
X192200000Y-124100000D01*
X192200000Y-124100000D02*
X177500000Y-124100000D01*
X177500000Y-117000000D02*
X177500000Y-114900000D01*
X177500000Y-114900000D02*
X179300000Y-114900000D01*
X177200000Y-122700000D02*
X177200000Y-124400000D01*
X177200000Y-124400000D02*
X178800000Y-124400000D01*
X177500000Y-124100000D02*
X177500000Y-122000000D01*
D17*
%TO.C,PI1*%
X171300000Y-141025000D02*
X171300000Y-146025000D01*
X171300000Y-146025000D02*
X158700000Y-146025000D01*
X158700000Y-146025000D02*
X158700000Y-141025000D01*
D15*
X165000000Y-125525000D02*
X165000000Y-125525000D01*
X165000000Y-125325000D02*
X165000000Y-125325000D01*
X165000000Y-125325000D02*
G75*
G02*
X165000000Y-125525000I0J-100000D01*
G01*
X165000000Y-125525000D02*
G75*
G02*
X165000000Y-125325000I0J100000D01*
G01*
D13*
%TO.C,NM5*%
X125080000Y-97740000D02*
X124150000Y-97740000D01*
X121920000Y-97740000D02*
X122850000Y-97740000D01*
X121920000Y-97740000D02*
X121920000Y-99900000D01*
X125080000Y-97740000D02*
X125080000Y-99200000D01*
%TO.C,NM3*%
X125080000Y-79740000D02*
X124150000Y-79740000D01*
X121920000Y-79740000D02*
X122850000Y-79740000D01*
X121920000Y-79740000D02*
X121920000Y-81900000D01*
X125080000Y-79740000D02*
X125080000Y-81200000D01*
%TO.C,NM2*%
X167920000Y-104260000D02*
X168850000Y-104260000D01*
X171080000Y-104260000D02*
X170150000Y-104260000D01*
X171080000Y-104260000D02*
X171080000Y-102100000D01*
X167920000Y-104260000D02*
X167920000Y-102800000D01*
%TO.C,J1*%
X176270000Y-92900000D02*
X174740000Y-92900000D01*
X183290000Y-92430000D02*
X174270000Y-92430000D01*
D17*
X183220000Y-92430000D02*
X183290000Y-92430000D01*
D13*
X192270000Y-92430000D02*
X185490000Y-92430000D01*
X192270000Y-79230000D02*
X192270000Y-92430000D01*
D17*
X192260000Y-79230000D02*
X192270000Y-79230000D01*
D13*
X192270000Y-79230000D02*
X185490000Y-79230000D01*
D17*
X192150000Y-79230000D02*
X192270000Y-79230000D01*
D13*
X174270000Y-79230000D02*
X183290000Y-79230000D01*
X174270000Y-92430000D02*
X174270000Y-79230000D01*
%TO.C,F8*%
X137352064Y-75660000D02*
X136147936Y-75660000D01*
X137352064Y-73840000D02*
X136147936Y-73840000D01*
%TO.C,F7*%
X137397936Y-139590000D02*
X138602064Y-139590000D01*
X137397936Y-141410000D02*
X138602064Y-141410000D01*
%TO.C,F6*%
X116590000Y-112602064D02*
X116590000Y-111397936D01*
X118410000Y-112602064D02*
X118410000Y-111397936D01*
%TO.C,F4*%
X174340000Y-124352064D02*
X174340000Y-123147936D01*
X176160000Y-124352064D02*
X176160000Y-123147936D01*
%TO.C,F3*%
X174852064Y-112410000D02*
X173647936Y-112410000D01*
X174852064Y-110590000D02*
X173647936Y-110590000D01*
%TO.C,F1*%
X178897936Y-94590000D02*
X180102064Y-94590000D01*
X178897936Y-96410000D02*
X180102064Y-96410000D01*
D14*
%TO.C,DO3*%
X119500000Y-93000000D02*
X111500000Y-93000000D01*
X109500000Y-95000000D02*
X109500000Y-101000000D01*
X119500000Y-93000000D02*
X119500000Y-96000000D01*
X119500000Y-96000000D02*
X119100000Y-96000000D01*
X119100000Y-100000000D02*
X119500000Y-100000000D01*
X119500000Y-100000000D02*
X119500000Y-103000000D01*
X119500000Y-103000000D02*
X111500000Y-103000000D01*
X119100000Y-99000000D02*
X119100000Y-100000000D01*
D15*
X113590000Y-92487000D02*
G75*
G03*
X113590000Y-92487000I-100000J0D01*
G01*
D14*
X109250000Y-102150000D02*
X100610000Y-102150000D01*
X100000000Y-101540000D02*
X100000000Y-94240000D01*
X100390000Y-93850000D02*
X109250000Y-93850000D01*
X119100000Y-96000000D02*
X119100000Y-97000000D01*
X100610000Y-102150000D02*
G75*
G02*
X100000000Y-101540000I0J610000D01*
G01*
X100000000Y-94240000D02*
G75*
G02*
X100390000Y-93850000I390000J0D01*
G01*
%TO.C,DO2*%
X119500000Y-78000000D02*
X111500000Y-78000000D01*
X109500000Y-80000000D02*
X109500000Y-86000000D01*
X119500000Y-78000000D02*
X119500000Y-81000000D01*
X119500000Y-81000000D02*
X119100000Y-81000000D01*
X119100000Y-85000000D02*
X119500000Y-85000000D01*
X119500000Y-85000000D02*
X119500000Y-88000000D01*
X119500000Y-88000000D02*
X111500000Y-88000000D01*
X119100000Y-84000000D02*
X119100000Y-85000000D01*
D15*
X113590000Y-77487000D02*
G75*
G03*
X113590000Y-77487000I-100000J0D01*
G01*
D14*
X109250000Y-87150000D02*
X100610000Y-87150000D01*
X100000000Y-86540000D02*
X100000000Y-79240000D01*
X100390000Y-78850000D02*
X109250000Y-78850000D01*
X119100000Y-81000000D02*
X119100000Y-82000000D01*
X100610000Y-87150000D02*
G75*
G02*
X100000000Y-86540000I0J610000D01*
G01*
X100000000Y-79240000D02*
G75*
G02*
X100390000Y-78850000I390000J0D01*
G01*
%TO.C,DO1*%
X172500000Y-109000000D02*
X180500000Y-109000000D01*
X182500000Y-107000000D02*
X182500000Y-101000000D01*
X172500000Y-109000000D02*
X172500000Y-106000000D01*
X172500000Y-106000000D02*
X172900000Y-106000000D01*
X172900000Y-102000000D02*
X172500000Y-102000000D01*
X172500000Y-102000000D02*
X172500000Y-99000000D01*
X172500000Y-99000000D02*
X180500000Y-99000000D01*
X172900000Y-103000000D02*
X172900000Y-102000000D01*
D15*
X178610000Y-109513000D02*
G75*
G03*
X178610000Y-109513000I-100000J0D01*
G01*
D14*
X182750000Y-99850000D02*
X191390000Y-99850000D01*
X192000000Y-100460000D02*
X192000000Y-107760000D01*
X191610000Y-108150000D02*
X182750000Y-108150000D01*
X172900000Y-106000000D02*
X172900000Y-105000000D01*
X191390000Y-99850000D02*
G75*
G02*
X192000000Y-100460000I0J-610000D01*
G01*
X192000000Y-107760000D02*
G75*
G02*
X191610000Y-108150000I-390000J0D01*
G01*
%TO.C,A1*%
D10*
X143285714Y-122666666D02*
X143761904Y-122666666D01*
X143190476Y-122952380D02*
X143523809Y-121952380D01*
X143857142Y-122952380D01*
X144714285Y-122952380D02*
X144142857Y-122952380D01*
X144428571Y-122952380D02*
X144428571Y-121952380D01*
X144333333Y-122095238D01*
X144238095Y-122190476D01*
X144142857Y-122238095D01*
%TO.C,Q8*%
X122404761Y-73797619D02*
X122309523Y-73750000D01*
X122214285Y-73654761D01*
X122071428Y-73511904D01*
X121976190Y-73464285D01*
X121880952Y-73464285D01*
X121928571Y-73702380D02*
X121833333Y-73654761D01*
X121738095Y-73559523D01*
X121690476Y-73369047D01*
X121690476Y-73035714D01*
X121738095Y-72845238D01*
X121833333Y-72750000D01*
X121928571Y-72702380D01*
X122119047Y-72702380D01*
X122214285Y-72750000D01*
X122309523Y-72845238D01*
X122357142Y-73035714D01*
X122357142Y-73369047D01*
X122309523Y-73559523D01*
X122214285Y-73654761D01*
X122119047Y-73702380D01*
X121928571Y-73702380D01*
X122928571Y-73130952D02*
X122833333Y-73083333D01*
X122785714Y-73035714D01*
X122738095Y-72940476D01*
X122738095Y-72892857D01*
X122785714Y-72797619D01*
X122833333Y-72750000D01*
X122928571Y-72702380D01*
X123119047Y-72702380D01*
X123214285Y-72750000D01*
X123261904Y-72797619D01*
X123309523Y-72892857D01*
X123309523Y-72940476D01*
X123261904Y-73035714D01*
X123214285Y-73083333D01*
X123119047Y-73130952D01*
X122928571Y-73130952D01*
X122833333Y-73178571D01*
X122785714Y-73226190D01*
X122738095Y-73321428D01*
X122738095Y-73511904D01*
X122785714Y-73607142D01*
X122833333Y-73654761D01*
X122928571Y-73702380D01*
X123119047Y-73702380D01*
X123214285Y-73654761D01*
X123261904Y-73607142D01*
X123309523Y-73511904D01*
X123309523Y-73321428D01*
X123261904Y-73226190D01*
X123214285Y-73178571D01*
X123119047Y-73130952D01*
%TO.C,Q7*%
X114797619Y-106095238D02*
X114750000Y-106190476D01*
X114654761Y-106285714D01*
X114511904Y-106428571D01*
X114464285Y-106523809D01*
X114464285Y-106619047D01*
X114702380Y-106571428D02*
X114654761Y-106666666D01*
X114559523Y-106761904D01*
X114369047Y-106809523D01*
X114035714Y-106809523D01*
X113845238Y-106761904D01*
X113750000Y-106666666D01*
X113702380Y-106571428D01*
X113702380Y-106380952D01*
X113750000Y-106285714D01*
X113845238Y-106190476D01*
X114035714Y-106142857D01*
X114369047Y-106142857D01*
X114559523Y-106190476D01*
X114654761Y-106285714D01*
X114702380Y-106380952D01*
X114702380Y-106571428D01*
X113702380Y-105809523D02*
X113702380Y-105142857D01*
X114702380Y-105571428D01*
%TO.C,Q6*%
X121404761Y-88547619D02*
X121309523Y-88500000D01*
X121214285Y-88404761D01*
X121071428Y-88261904D01*
X120976190Y-88214285D01*
X120880952Y-88214285D01*
X120928571Y-88452380D02*
X120833333Y-88404761D01*
X120738095Y-88309523D01*
X120690476Y-88119047D01*
X120690476Y-87785714D01*
X120738095Y-87595238D01*
X120833333Y-87500000D01*
X120928571Y-87452380D01*
X121119047Y-87452380D01*
X121214285Y-87500000D01*
X121309523Y-87595238D01*
X121357142Y-87785714D01*
X121357142Y-88119047D01*
X121309523Y-88309523D01*
X121214285Y-88404761D01*
X121119047Y-88452380D01*
X120928571Y-88452380D01*
X122214285Y-87452380D02*
X122023809Y-87452380D01*
X121928571Y-87500000D01*
X121880952Y-87547619D01*
X121785714Y-87690476D01*
X121738095Y-87880952D01*
X121738095Y-88261904D01*
X121785714Y-88357142D01*
X121833333Y-88404761D01*
X121928571Y-88452380D01*
X122119047Y-88452380D01*
X122214285Y-88404761D01*
X122261904Y-88357142D01*
X122309523Y-88261904D01*
X122309523Y-88023809D01*
X122261904Y-87928571D01*
X122214285Y-87880952D01*
X122119047Y-87833333D01*
X121928571Y-87833333D01*
X121833333Y-87880952D01*
X121785714Y-87928571D01*
X121738095Y-88023809D01*
%TO.C,Q5*%
X172297619Y-119345238D02*
X172250000Y-119440476D01*
X172154761Y-119535714D01*
X172011904Y-119678571D01*
X171964285Y-119773809D01*
X171964285Y-119869047D01*
X172202380Y-119821428D02*
X172154761Y-119916666D01*
X172059523Y-120011904D01*
X171869047Y-120059523D01*
X171535714Y-120059523D01*
X171345238Y-120011904D01*
X171250000Y-119916666D01*
X171202380Y-119821428D01*
X171202380Y-119630952D01*
X171250000Y-119535714D01*
X171345238Y-119440476D01*
X171535714Y-119392857D01*
X171869047Y-119392857D01*
X172059523Y-119440476D01*
X172154761Y-119535714D01*
X172202380Y-119630952D01*
X172202380Y-119821428D01*
X171202380Y-118488095D02*
X171202380Y-118964285D01*
X171678571Y-119011904D01*
X171630952Y-118964285D01*
X171583333Y-118869047D01*
X171583333Y-118630952D01*
X171630952Y-118535714D01*
X171678571Y-118488095D01*
X171773809Y-118440476D01*
X172011904Y-118440476D01*
X172107142Y-118488095D01*
X172154761Y-118535714D01*
X172202380Y-118630952D01*
X172202380Y-118869047D01*
X172154761Y-118964285D01*
X172107142Y-119011904D01*
%TO.C,Q4*%
X177297619Y-114845238D02*
X177250000Y-114940476D01*
X177154761Y-115035714D01*
X177011904Y-115178571D01*
X176964285Y-115273809D01*
X176964285Y-115369047D01*
X177202380Y-115321428D02*
X177154761Y-115416666D01*
X177059523Y-115511904D01*
X176869047Y-115559523D01*
X176535714Y-115559523D01*
X176345238Y-115511904D01*
X176250000Y-115416666D01*
X176202380Y-115321428D01*
X176202380Y-115130952D01*
X176250000Y-115035714D01*
X176345238Y-114940476D01*
X176535714Y-114892857D01*
X176869047Y-114892857D01*
X177059523Y-114940476D01*
X177154761Y-115035714D01*
X177202380Y-115130952D01*
X177202380Y-115321428D01*
X176535714Y-114035714D02*
X177202380Y-114035714D01*
X176154761Y-114273809D02*
X176869047Y-114511904D01*
X176869047Y-113892857D01*
%TO.C,Q3*%
X174904761Y-98797619D02*
X174809523Y-98750000D01*
X174714285Y-98654761D01*
X174571428Y-98511904D01*
X174476190Y-98464285D01*
X174380952Y-98464285D01*
X174428571Y-98702380D02*
X174333333Y-98654761D01*
X174238095Y-98559523D01*
X174190476Y-98369047D01*
X174190476Y-98035714D01*
X174238095Y-97845238D01*
X174333333Y-97750000D01*
X174428571Y-97702380D01*
X174619047Y-97702380D01*
X174714285Y-97750000D01*
X174809523Y-97845238D01*
X174857142Y-98035714D01*
X174857142Y-98369047D01*
X174809523Y-98559523D01*
X174714285Y-98654761D01*
X174619047Y-98702380D01*
X174428571Y-98702380D01*
X175190476Y-97702380D02*
X175809523Y-97702380D01*
X175476190Y-98083333D01*
X175619047Y-98083333D01*
X175714285Y-98130952D01*
X175761904Y-98178571D01*
X175809523Y-98273809D01*
X175809523Y-98511904D01*
X175761904Y-98607142D01*
X175714285Y-98654761D01*
X175619047Y-98702380D01*
X175333333Y-98702380D01*
X175238095Y-98654761D01*
X175190476Y-98607142D01*
%TO.C,F5*%
X116416666Y-77498571D02*
X116083333Y-77498571D01*
X116083333Y-78022380D02*
X116083333Y-77022380D01*
X116559523Y-77022380D01*
X117416666Y-77022380D02*
X116940476Y-77022380D01*
X116892857Y-77498571D01*
X116940476Y-77450952D01*
X117035714Y-77403333D01*
X117273809Y-77403333D01*
X117369047Y-77450952D01*
X117416666Y-77498571D01*
X117464285Y-77593809D01*
X117464285Y-77831904D01*
X117416666Y-77927142D01*
X117369047Y-77974761D01*
X117273809Y-78022380D01*
X117035714Y-78022380D01*
X116940476Y-77974761D01*
X116892857Y-77927142D01*
%TO.C,F2*%
X116166666Y-91998571D02*
X115833333Y-91998571D01*
X115833333Y-92522380D02*
X115833333Y-91522380D01*
X116309523Y-91522380D01*
X116642857Y-91617619D02*
X116690476Y-91570000D01*
X116785714Y-91522380D01*
X117023809Y-91522380D01*
X117119047Y-91570000D01*
X117166666Y-91617619D01*
X117214285Y-91712857D01*
X117214285Y-91808095D01*
X117166666Y-91950952D01*
X116595238Y-92522380D01*
X117214285Y-92522380D01*
%TO.C,D1*%
X136011904Y-79702380D02*
X136011904Y-78702380D01*
X136250000Y-78702380D01*
X136392857Y-78750000D01*
X136488095Y-78845238D01*
X136535714Y-78940476D01*
X136583333Y-79130952D01*
X136583333Y-79273809D01*
X136535714Y-79464285D01*
X136488095Y-79559523D01*
X136392857Y-79654761D01*
X136250000Y-79702380D01*
X136011904Y-79702380D01*
X137535714Y-79702380D02*
X136964285Y-79702380D01*
X137250000Y-79702380D02*
X137250000Y-78702380D01*
X137154761Y-78845238D01*
X137059523Y-78940476D01*
X136964285Y-78988095D01*
%TO.C,Q2*%
X142904761Y-143547619D02*
X142809523Y-143500000D01*
X142714285Y-143404761D01*
X142571428Y-143261904D01*
X142476190Y-143214285D01*
X142380952Y-143214285D01*
X142428571Y-143452380D02*
X142333333Y-143404761D01*
X142238095Y-143309523D01*
X142190476Y-143119047D01*
X142190476Y-142785714D01*
X142238095Y-142595238D01*
X142333333Y-142500000D01*
X142428571Y-142452380D01*
X142619047Y-142452380D01*
X142714285Y-142500000D01*
X142809523Y-142595238D01*
X142857142Y-142785714D01*
X142857142Y-143119047D01*
X142809523Y-143309523D01*
X142714285Y-143404761D01*
X142619047Y-143452380D01*
X142428571Y-143452380D01*
X143238095Y-142547619D02*
X143285714Y-142500000D01*
X143380952Y-142452380D01*
X143619047Y-142452380D01*
X143714285Y-142500000D01*
X143761904Y-142547619D01*
X143809523Y-142642857D01*
X143809523Y-142738095D01*
X143761904Y-142880952D01*
X143190476Y-143452380D01*
X143809523Y-143452380D01*
%TO.C,Q1*%
X141047619Y-76595238D02*
X141000000Y-76690476D01*
X140904761Y-76785714D01*
X140761904Y-76928571D01*
X140714285Y-77023809D01*
X140714285Y-77119047D01*
X140952380Y-77071428D02*
X140904761Y-77166666D01*
X140809523Y-77261904D01*
X140619047Y-77309523D01*
X140285714Y-77309523D01*
X140095238Y-77261904D01*
X140000000Y-77166666D01*
X139952380Y-77071428D01*
X139952380Y-76880952D01*
X140000000Y-76785714D01*
X140095238Y-76690476D01*
X140285714Y-76642857D01*
X140619047Y-76642857D01*
X140809523Y-76690476D01*
X140904761Y-76785714D01*
X140952380Y-76880952D01*
X140952380Y-77071428D01*
X140952380Y-75690476D02*
X140952380Y-76261904D01*
X140952380Y-75976190D02*
X139952380Y-75976190D01*
X140095238Y-76071428D01*
X140190476Y-76166666D01*
X140238095Y-76261904D01*
%TO.C,R7*%
X128052380Y-100916666D02*
X127576190Y-101250000D01*
X128052380Y-101488095D02*
X127052380Y-101488095D01*
X127052380Y-101107142D01*
X127100000Y-101011904D01*
X127147619Y-100964285D01*
X127242857Y-100916666D01*
X127385714Y-100916666D01*
X127480952Y-100964285D01*
X127528571Y-101011904D01*
X127576190Y-101107142D01*
X127576190Y-101488095D01*
X127052380Y-100583333D02*
X127052380Y-99916666D01*
X128052380Y-100345238D01*
%TO.C,J2*%
X130186666Y-101872380D02*
X130186666Y-102586666D01*
X130139047Y-102729523D01*
X130043809Y-102824761D01*
X129900952Y-102872380D01*
X129805714Y-102872380D01*
X130615238Y-101967619D02*
X130662857Y-101920000D01*
X130758095Y-101872380D01*
X130996190Y-101872380D01*
X131091428Y-101920000D01*
X131139047Y-101967619D01*
X131186666Y-102062857D01*
X131186666Y-102158095D01*
X131139047Y-102300952D01*
X130567619Y-102872380D01*
X131186666Y-102872380D01*
%TO.C,U1*%
D18*
X159373666Y-83234333D02*
X158240333Y-83234333D01*
X158107000Y-83301000D01*
X158040333Y-83367666D01*
X157973666Y-83501000D01*
X157973666Y-83767666D01*
X158040333Y-83901000D01*
X158107000Y-83967666D01*
X158240333Y-84034333D01*
X159373666Y-84034333D01*
X157973666Y-85434333D02*
X157973666Y-84634333D01*
X157973666Y-85034333D02*
X159373666Y-85034333D01*
X159173666Y-84901000D01*
X159040333Y-84767666D01*
X158973666Y-84634333D01*
%TO.C,PINOUT1*%
D10*
X130801428Y-95782380D02*
X130801428Y-94782380D01*
X131182380Y-94782380D01*
X131277619Y-94830000D01*
X131325238Y-94877619D01*
X131372857Y-94972857D01*
X131372857Y-95115714D01*
X131325238Y-95210952D01*
X131277619Y-95258571D01*
X131182380Y-95306190D01*
X130801428Y-95306190D01*
X131801428Y-95782380D02*
X131801428Y-94782380D01*
X132277619Y-95782380D02*
X132277619Y-94782380D01*
X132849047Y-95782380D01*
X132849047Y-94782380D01*
X133515714Y-94782380D02*
X133706190Y-94782380D01*
X133801428Y-94830000D01*
X133896666Y-94925238D01*
X133944285Y-95115714D01*
X133944285Y-95449047D01*
X133896666Y-95639523D01*
X133801428Y-95734761D01*
X133706190Y-95782380D01*
X133515714Y-95782380D01*
X133420476Y-95734761D01*
X133325238Y-95639523D01*
X133277619Y-95449047D01*
X133277619Y-95115714D01*
X133325238Y-94925238D01*
X133420476Y-94830000D01*
X133515714Y-94782380D01*
X134372857Y-94782380D02*
X134372857Y-95591904D01*
X134420476Y-95687142D01*
X134468095Y-95734761D01*
X134563333Y-95782380D01*
X134753809Y-95782380D01*
X134849047Y-95734761D01*
X134896666Y-95687142D01*
X134944285Y-95591904D01*
X134944285Y-94782380D01*
X135277619Y-94782380D02*
X135849047Y-94782380D01*
X135563333Y-95782380D02*
X135563333Y-94782380D01*
X136706190Y-95782380D02*
X136134761Y-95782380D01*
X136420476Y-95782380D02*
X136420476Y-94782380D01*
X136325238Y-94925238D01*
X136230000Y-95020476D01*
X136134761Y-95068095D01*
%TO.C,C1*%
X146333333Y-88357142D02*
X146285714Y-88404761D01*
X146142857Y-88452380D01*
X146047619Y-88452380D01*
X145904761Y-88404761D01*
X145809523Y-88309523D01*
X145761904Y-88214285D01*
X145714285Y-88023809D01*
X145714285Y-87880952D01*
X145761904Y-87690476D01*
X145809523Y-87595238D01*
X145904761Y-87500000D01*
X146047619Y-87452380D01*
X146142857Y-87452380D01*
X146285714Y-87500000D01*
X146333333Y-87547619D01*
X147285714Y-88452380D02*
X146714285Y-88452380D01*
X147000000Y-88452380D02*
X147000000Y-87452380D01*
X146904761Y-87595238D01*
X146809523Y-87690476D01*
X146714285Y-87738095D01*
%TO.C,R6*%
X126333333Y-84452380D02*
X126000000Y-83976190D01*
X125761904Y-84452380D02*
X125761904Y-83452380D01*
X126142857Y-83452380D01*
X126238095Y-83500000D01*
X126285714Y-83547619D01*
X126333333Y-83642857D01*
X126333333Y-83785714D01*
X126285714Y-83880952D01*
X126238095Y-83928571D01*
X126142857Y-83976190D01*
X125761904Y-83976190D01*
X127190476Y-83452380D02*
X127000000Y-83452380D01*
X126904761Y-83500000D01*
X126857142Y-83547619D01*
X126761904Y-83690476D01*
X126714285Y-83880952D01*
X126714285Y-84261904D01*
X126761904Y-84357142D01*
X126809523Y-84404761D01*
X126904761Y-84452380D01*
X127095238Y-84452380D01*
X127190476Y-84404761D01*
X127238095Y-84357142D01*
X127285714Y-84261904D01*
X127285714Y-84023809D01*
X127238095Y-83928571D01*
X127190476Y-83880952D01*
X127095238Y-83833333D01*
X126904761Y-83833333D01*
X126809523Y-83880952D01*
X126761904Y-83928571D01*
X126714285Y-84023809D01*
%TO.C,R5*%
X126333333Y-105452380D02*
X126000000Y-104976190D01*
X125761904Y-105452380D02*
X125761904Y-104452380D01*
X126142857Y-104452380D01*
X126238095Y-104500000D01*
X126285714Y-104547619D01*
X126333333Y-104642857D01*
X126333333Y-104785714D01*
X126285714Y-104880952D01*
X126238095Y-104928571D01*
X126142857Y-104976190D01*
X125761904Y-104976190D01*
X127238095Y-104452380D02*
X126761904Y-104452380D01*
X126714285Y-104928571D01*
X126761904Y-104880952D01*
X126857142Y-104833333D01*
X127095238Y-104833333D01*
X127190476Y-104880952D01*
X127238095Y-104928571D01*
X127285714Y-105023809D01*
X127285714Y-105261904D01*
X127238095Y-105357142D01*
X127190476Y-105404761D01*
X127095238Y-105452380D01*
X126857142Y-105452380D01*
X126761904Y-105404761D01*
X126714285Y-105357142D01*
%TO.C,R4*%
X172333333Y-97952380D02*
X172000000Y-97476190D01*
X171761904Y-97952380D02*
X171761904Y-96952380D01*
X172142857Y-96952380D01*
X172238095Y-97000000D01*
X172285714Y-97047619D01*
X172333333Y-97142857D01*
X172333333Y-97285714D01*
X172285714Y-97380952D01*
X172238095Y-97428571D01*
X172142857Y-97476190D01*
X171761904Y-97476190D01*
X173190476Y-97285714D02*
X173190476Y-97952380D01*
X172952380Y-96904761D02*
X172714285Y-97619047D01*
X173333333Y-97619047D01*
%TO.C,R3*%
X126333333Y-102452380D02*
X126000000Y-101976190D01*
X125761904Y-102452380D02*
X125761904Y-101452380D01*
X126142857Y-101452380D01*
X126238095Y-101500000D01*
X126285714Y-101547619D01*
X126333333Y-101642857D01*
X126333333Y-101785714D01*
X126285714Y-101880952D01*
X126238095Y-101928571D01*
X126142857Y-101976190D01*
X125761904Y-101976190D01*
X126666666Y-101452380D02*
X127285714Y-101452380D01*
X126952380Y-101833333D01*
X127095238Y-101833333D01*
X127190476Y-101880952D01*
X127238095Y-101928571D01*
X127285714Y-102023809D01*
X127285714Y-102261904D01*
X127238095Y-102357142D01*
X127190476Y-102404761D01*
X127095238Y-102452380D01*
X126809523Y-102452380D01*
X126714285Y-102404761D01*
X126666666Y-102357142D01*
%TO.C,R2*%
X126333333Y-86952380D02*
X126000000Y-86476190D01*
X125761904Y-86952380D02*
X125761904Y-85952380D01*
X126142857Y-85952380D01*
X126238095Y-86000000D01*
X126285714Y-86047619D01*
X126333333Y-86142857D01*
X126333333Y-86285714D01*
X126285714Y-86380952D01*
X126238095Y-86428571D01*
X126142857Y-86476190D01*
X125761904Y-86476190D01*
X126714285Y-86047619D02*
X126761904Y-86000000D01*
X126857142Y-85952380D01*
X127095238Y-85952380D01*
X127190476Y-86000000D01*
X127238095Y-86047619D01*
X127285714Y-86142857D01*
X127285714Y-86238095D01*
X127238095Y-86380952D01*
X126666666Y-86952380D01*
X127285714Y-86952380D01*
%TO.C,R1*%
X166333333Y-100452380D02*
X166000000Y-99976190D01*
X165761904Y-100452380D02*
X165761904Y-99452380D01*
X166142857Y-99452380D01*
X166238095Y-99500000D01*
X166285714Y-99547619D01*
X166333333Y-99642857D01*
X166333333Y-99785714D01*
X166285714Y-99880952D01*
X166238095Y-99928571D01*
X166142857Y-99976190D01*
X165761904Y-99976190D01*
X167285714Y-100452380D02*
X166714285Y-100452380D01*
X167000000Y-100452380D02*
X167000000Y-99452380D01*
X166904761Y-99595238D01*
X166809523Y-99690476D01*
X166714285Y-99738095D01*
%TO.C,PO3*%
X105452380Y-114761904D02*
X104452380Y-114761904D01*
X104452380Y-114380952D01*
X104500000Y-114285714D01*
X104547619Y-114238095D01*
X104642857Y-114190476D01*
X104785714Y-114190476D01*
X104880952Y-114238095D01*
X104928571Y-114285714D01*
X104976190Y-114380952D01*
X104976190Y-114761904D01*
X104452380Y-113571428D02*
X104452380Y-113380952D01*
X104500000Y-113285714D01*
X104595238Y-113190476D01*
X104785714Y-113142857D01*
X105119047Y-113142857D01*
X105309523Y-113190476D01*
X105404761Y-113285714D01*
X105452380Y-113380952D01*
X105452380Y-113571428D01*
X105404761Y-113666666D01*
X105309523Y-113761904D01*
X105119047Y-113809523D01*
X104785714Y-113809523D01*
X104595238Y-113761904D01*
X104500000Y-113666666D01*
X104452380Y-113571428D01*
X104452380Y-112809523D02*
X104452380Y-112190476D01*
X104833333Y-112523809D01*
X104833333Y-112380952D01*
X104880952Y-112285714D01*
X104928571Y-112238095D01*
X105023809Y-112190476D01*
X105261904Y-112190476D01*
X105357142Y-112238095D01*
X105404761Y-112285714D01*
X105452380Y-112380952D01*
X105452380Y-112666666D01*
X105404761Y-112761904D01*
X105357142Y-112809523D01*
%TO.C,PO2*%
X187952380Y-134261904D02*
X186952380Y-134261904D01*
X186952380Y-133880952D01*
X187000000Y-133785714D01*
X187047619Y-133738095D01*
X187142857Y-133690476D01*
X187285714Y-133690476D01*
X187380952Y-133738095D01*
X187428571Y-133785714D01*
X187476190Y-133880952D01*
X187476190Y-134261904D01*
X186952380Y-133071428D02*
X186952380Y-132880952D01*
X187000000Y-132785714D01*
X187095238Y-132690476D01*
X187285714Y-132642857D01*
X187619047Y-132642857D01*
X187809523Y-132690476D01*
X187904761Y-132785714D01*
X187952380Y-132880952D01*
X187952380Y-133071428D01*
X187904761Y-133166666D01*
X187809523Y-133261904D01*
X187619047Y-133309523D01*
X187285714Y-133309523D01*
X187095238Y-133261904D01*
X187000000Y-133166666D01*
X186952380Y-133071428D01*
X187047619Y-132261904D02*
X187000000Y-132214285D01*
X186952380Y-132119047D01*
X186952380Y-131880952D01*
X187000000Y-131785714D01*
X187047619Y-131738095D01*
X187142857Y-131690476D01*
X187238095Y-131690476D01*
X187380952Y-131738095D01*
X187952380Y-132309523D01*
X187952380Y-131690476D01*
%TO.C,PO1*%
X187952380Y-120761904D02*
X186952380Y-120761904D01*
X186952380Y-120380952D01*
X187000000Y-120285714D01*
X187047619Y-120238095D01*
X187142857Y-120190476D01*
X187285714Y-120190476D01*
X187380952Y-120238095D01*
X187428571Y-120285714D01*
X187476190Y-120380952D01*
X187476190Y-120761904D01*
X186952380Y-119571428D02*
X186952380Y-119380952D01*
X187000000Y-119285714D01*
X187095238Y-119190476D01*
X187285714Y-119142857D01*
X187619047Y-119142857D01*
X187809523Y-119190476D01*
X187904761Y-119285714D01*
X187952380Y-119380952D01*
X187952380Y-119571428D01*
X187904761Y-119666666D01*
X187809523Y-119761904D01*
X187619047Y-119809523D01*
X187285714Y-119809523D01*
X187095238Y-119761904D01*
X187000000Y-119666666D01*
X186952380Y-119571428D01*
X187952380Y-118190476D02*
X187952380Y-118761904D01*
X187952380Y-118476190D02*
X186952380Y-118476190D01*
X187095238Y-118571428D01*
X187190476Y-118666666D01*
X187238095Y-118761904D01*
%TO.C,PI1*%
D19*
X163760238Y-136249523D02*
X163760238Y-134979523D01*
X164244047Y-134979523D01*
X164365000Y-135040000D01*
X164425476Y-135100476D01*
X164485952Y-135221428D01*
X164485952Y-135402857D01*
X164425476Y-135523809D01*
X164365000Y-135584285D01*
X164244047Y-135644761D01*
X163760238Y-135644761D01*
X165030238Y-136249523D02*
X165030238Y-134979523D01*
X166300238Y-136249523D02*
X165574523Y-136249523D01*
X165937380Y-136249523D02*
X165937380Y-134979523D01*
X165816428Y-135160952D01*
X165695476Y-135281904D01*
X165574523Y-135342380D01*
%TO.C,NM5*%
D10*
X125666666Y-98952380D02*
X125666666Y-97952380D01*
X126238095Y-98952380D01*
X126238095Y-97952380D01*
X126714285Y-98952380D02*
X126714285Y-97952380D01*
X127047619Y-98666666D01*
X127380952Y-97952380D01*
X127380952Y-98952380D01*
X128333333Y-97952380D02*
X127857142Y-97952380D01*
X127809523Y-98428571D01*
X127857142Y-98380952D01*
X127952380Y-98333333D01*
X128190476Y-98333333D01*
X128285714Y-98380952D01*
X128333333Y-98428571D01*
X128380952Y-98523809D01*
X128380952Y-98761904D01*
X128333333Y-98857142D01*
X128285714Y-98904761D01*
X128190476Y-98952380D01*
X127952380Y-98952380D01*
X127857142Y-98904761D01*
X127809523Y-98857142D01*
%TO.C,NM3*%
X126702380Y-82333333D02*
X125702380Y-82333333D01*
X126702380Y-81761904D01*
X125702380Y-81761904D01*
X126702380Y-81285714D02*
X125702380Y-81285714D01*
X126416666Y-80952380D01*
X125702380Y-80619047D01*
X126702380Y-80619047D01*
X125702380Y-80238095D02*
X125702380Y-79619047D01*
X126083333Y-79952380D01*
X126083333Y-79809523D01*
X126130952Y-79714285D01*
X126178571Y-79666666D01*
X126273809Y-79619047D01*
X126511904Y-79619047D01*
X126607142Y-79666666D01*
X126654761Y-79714285D01*
X126702380Y-79809523D01*
X126702380Y-80095238D01*
X126654761Y-80190476D01*
X126607142Y-80238095D01*
%TO.C,NM2*%
X164666666Y-103952380D02*
X164666666Y-102952380D01*
X165238095Y-103952380D01*
X165238095Y-102952380D01*
X165714285Y-103952380D02*
X165714285Y-102952380D01*
X166047619Y-103666666D01*
X166380952Y-102952380D01*
X166380952Y-103952380D01*
X166809523Y-103047619D02*
X166857142Y-103000000D01*
X166952380Y-102952380D01*
X167190476Y-102952380D01*
X167285714Y-103000000D01*
X167333333Y-103047619D01*
X167380952Y-103142857D01*
X167380952Y-103238095D01*
X167333333Y-103380952D01*
X166761904Y-103952380D01*
X167380952Y-103952380D01*
%TO.C,J1*%
X182452380Y-85833333D02*
X183166666Y-85833333D01*
X183309523Y-85880952D01*
X183404761Y-85976190D01*
X183452380Y-86119047D01*
X183452380Y-86214285D01*
X183452380Y-84833333D02*
X183452380Y-85404761D01*
X183452380Y-85119047D02*
X182452380Y-85119047D01*
X182595238Y-85214285D01*
X182690476Y-85309523D01*
X182738095Y-85404761D01*
%TO.C,H4*%
X104238095Y-72752380D02*
X104238095Y-71752380D01*
X104238095Y-72228571D02*
X104809523Y-72228571D01*
X104809523Y-72752380D02*
X104809523Y-71752380D01*
X105714285Y-72085714D02*
X105714285Y-72752380D01*
X105476190Y-71704761D02*
X105238095Y-72419047D01*
X105857142Y-72419047D01*
%TO.C,H3*%
X182238095Y-74452380D02*
X182238095Y-73452380D01*
X182238095Y-73928571D02*
X182809523Y-73928571D01*
X182809523Y-74452380D02*
X182809523Y-73452380D01*
X183190476Y-73452380D02*
X183809523Y-73452380D01*
X183476190Y-73833333D01*
X183619047Y-73833333D01*
X183714285Y-73880952D01*
X183761904Y-73928571D01*
X183809523Y-74023809D01*
X183809523Y-74261904D01*
X183761904Y-74357142D01*
X183714285Y-74404761D01*
X183619047Y-74452380D01*
X183333333Y-74452380D01*
X183238095Y-74404761D01*
X183190476Y-74357142D01*
%TO.C,H2*%
X182738095Y-142952380D02*
X182738095Y-141952380D01*
X182738095Y-142428571D02*
X183309523Y-142428571D01*
X183309523Y-142952380D02*
X183309523Y-141952380D01*
X183738095Y-142047619D02*
X183785714Y-142000000D01*
X183880952Y-141952380D01*
X184119047Y-141952380D01*
X184214285Y-142000000D01*
X184261904Y-142047619D01*
X184309523Y-142142857D01*
X184309523Y-142238095D01*
X184261904Y-142380952D01*
X183690476Y-142952380D01*
X184309523Y-142952380D01*
%TO.C,H1*%
X108238095Y-141452380D02*
X108238095Y-140452380D01*
X108238095Y-140928571D02*
X108809523Y-140928571D01*
X108809523Y-141452380D02*
X108809523Y-140452380D01*
X109809523Y-141452380D02*
X109238095Y-141452380D01*
X109523809Y-141452380D02*
X109523809Y-140452380D01*
X109428571Y-140595238D01*
X109333333Y-140690476D01*
X109238095Y-140738095D01*
%TO.C,F8*%
X135916666Y-72678571D02*
X135583333Y-72678571D01*
X135583333Y-73202380D02*
X135583333Y-72202380D01*
X136059523Y-72202380D01*
X136583333Y-72630952D02*
X136488095Y-72583333D01*
X136440476Y-72535714D01*
X136392857Y-72440476D01*
X136392857Y-72392857D01*
X136440476Y-72297619D01*
X136488095Y-72250000D01*
X136583333Y-72202380D01*
X136773809Y-72202380D01*
X136869047Y-72250000D01*
X136916666Y-72297619D01*
X136964285Y-72392857D01*
X136964285Y-72440476D01*
X136916666Y-72535714D01*
X136869047Y-72583333D01*
X136773809Y-72630952D01*
X136583333Y-72630952D01*
X136488095Y-72678571D01*
X136440476Y-72726190D01*
X136392857Y-72821428D01*
X136392857Y-73011904D01*
X136440476Y-73107142D01*
X136488095Y-73154761D01*
X136583333Y-73202380D01*
X136773809Y-73202380D01*
X136869047Y-73154761D01*
X136916666Y-73107142D01*
X136964285Y-73011904D01*
X136964285Y-72821428D01*
X136916666Y-72726190D01*
X136869047Y-72678571D01*
X136773809Y-72630952D01*
%TO.C,F7*%
X141166666Y-140428571D02*
X140833333Y-140428571D01*
X140833333Y-140952380D02*
X140833333Y-139952380D01*
X141309523Y-139952380D01*
X141595238Y-139952380D02*
X142261904Y-139952380D01*
X141833333Y-140952380D01*
%TO.C,F6*%
X115608571Y-112333333D02*
X115608571Y-112666666D01*
X116132380Y-112666666D02*
X115132380Y-112666666D01*
X115132380Y-112190476D01*
X115132380Y-111380952D02*
X115132380Y-111571428D01*
X115180000Y-111666666D01*
X115227619Y-111714285D01*
X115370476Y-111809523D01*
X115560952Y-111857142D01*
X115941904Y-111857142D01*
X116037142Y-111809523D01*
X116084761Y-111761904D01*
X116132380Y-111666666D01*
X116132380Y-111476190D01*
X116084761Y-111380952D01*
X116037142Y-111333333D01*
X115941904Y-111285714D01*
X115703809Y-111285714D01*
X115608571Y-111333333D01*
X115560952Y-111380952D01*
X115513333Y-111476190D01*
X115513333Y-111666666D01*
X115560952Y-111761904D01*
X115608571Y-111809523D01*
X115703809Y-111857142D01*
%TO.C,F4*%
X173358571Y-124083333D02*
X173358571Y-124416666D01*
X173882380Y-124416666D02*
X172882380Y-124416666D01*
X172882380Y-123940476D01*
X173215714Y-123130952D02*
X173882380Y-123130952D01*
X172834761Y-123369047D02*
X173549047Y-123607142D01*
X173549047Y-122988095D01*
%TO.C,F3*%
X173916666Y-113248571D02*
X173583333Y-113248571D01*
X173583333Y-113772380D02*
X173583333Y-112772380D01*
X174059523Y-112772380D01*
X174345238Y-112772380D02*
X174964285Y-112772380D01*
X174630952Y-113153333D01*
X174773809Y-113153333D01*
X174869047Y-113200952D01*
X174916666Y-113248571D01*
X174964285Y-113343809D01*
X174964285Y-113581904D01*
X174916666Y-113677142D01*
X174869047Y-113724761D01*
X174773809Y-113772380D01*
X174488095Y-113772380D01*
X174392857Y-113724761D01*
X174345238Y-113677142D01*
%TO.C,F1*%
X181666666Y-97428571D02*
X181333333Y-97428571D01*
X181333333Y-97952380D02*
X181333333Y-96952380D01*
X181809523Y-96952380D01*
X182714285Y-97952380D02*
X182142857Y-97952380D01*
X182428571Y-97952380D02*
X182428571Y-96952380D01*
X182333333Y-97095238D01*
X182238095Y-97190476D01*
X182142857Y-97238095D01*
%TO.C,DO3*%
D18*
X105227960Y-97956014D02*
X105227960Y-96947983D01*
X105467968Y-96947983D01*
X105611972Y-96995984D01*
X105707975Y-97091987D01*
X105755977Y-97187990D01*
X105803978Y-97379996D01*
X105803978Y-97524000D01*
X105755977Y-97716006D01*
X105707975Y-97812009D01*
X105611972Y-97908012D01*
X105467968Y-97956014D01*
X105227960Y-97956014D01*
X106427997Y-96947983D02*
X106620003Y-96947983D01*
X106716006Y-96995984D01*
X106812009Y-97091987D01*
X106860011Y-97283993D01*
X106860011Y-97620003D01*
X106812009Y-97812009D01*
X106716006Y-97908012D01*
X106620003Y-97956014D01*
X106427997Y-97956014D01*
X106331994Y-97908012D01*
X106235991Y-97812009D01*
X106187990Y-97620003D01*
X106187990Y-97283993D01*
X106235991Y-97091987D01*
X106331994Y-96995984D01*
X106427997Y-96947983D01*
X107196021Y-96947983D02*
X107820040Y-96947983D01*
X107484030Y-97331994D01*
X107628034Y-97331994D01*
X107724037Y-97379996D01*
X107772039Y-97427997D01*
X107820040Y-97524000D01*
X107820040Y-97764008D01*
X107772039Y-97860011D01*
X107724037Y-97908012D01*
X107628034Y-97956014D01*
X107340025Y-97956014D01*
X107244022Y-97908012D01*
X107196021Y-97860011D01*
%TO.C,DO2*%
X105727960Y-84956014D02*
X105727960Y-83947983D01*
X105967968Y-83947983D01*
X106111972Y-83995984D01*
X106207975Y-84091987D01*
X106255977Y-84187990D01*
X106303978Y-84379996D01*
X106303978Y-84524000D01*
X106255977Y-84716006D01*
X106207975Y-84812009D01*
X106111972Y-84908012D01*
X105967968Y-84956014D01*
X105727960Y-84956014D01*
X106927997Y-83947983D02*
X107120003Y-83947983D01*
X107216006Y-83995984D01*
X107312009Y-84091987D01*
X107360011Y-84283993D01*
X107360011Y-84620003D01*
X107312009Y-84812009D01*
X107216006Y-84908012D01*
X107120003Y-84956014D01*
X106927997Y-84956014D01*
X106831994Y-84908012D01*
X106735991Y-84812009D01*
X106687990Y-84620003D01*
X106687990Y-84283993D01*
X106735991Y-84091987D01*
X106831994Y-83995984D01*
X106927997Y-83947983D01*
X107744022Y-84043985D02*
X107792024Y-83995984D01*
X107888027Y-83947983D01*
X108128034Y-83947983D01*
X108224037Y-83995984D01*
X108272039Y-84043985D01*
X108320040Y-84139988D01*
X108320040Y-84235991D01*
X108272039Y-84379996D01*
X107696021Y-84956014D01*
X108320040Y-84956014D01*
%TO.C,DO1*%
X183227960Y-103956014D02*
X183227960Y-102947983D01*
X183467968Y-102947983D01*
X183611972Y-102995984D01*
X183707975Y-103091987D01*
X183755977Y-103187990D01*
X183803978Y-103379996D01*
X183803978Y-103524000D01*
X183755977Y-103716006D01*
X183707975Y-103812009D01*
X183611972Y-103908012D01*
X183467968Y-103956014D01*
X183227960Y-103956014D01*
X184427997Y-102947983D02*
X184620003Y-102947983D01*
X184716006Y-102995984D01*
X184812009Y-103091987D01*
X184860011Y-103283993D01*
X184860011Y-103620003D01*
X184812009Y-103812009D01*
X184716006Y-103908012D01*
X184620003Y-103956014D01*
X184427997Y-103956014D01*
X184331994Y-103908012D01*
X184235991Y-103812009D01*
X184187990Y-103620003D01*
X184187990Y-103283993D01*
X184235991Y-103091987D01*
X184331994Y-102995984D01*
X184427997Y-102947983D01*
X185820040Y-103956014D02*
X185244022Y-103956014D01*
X185532031Y-103956014D02*
X185532031Y-102947983D01*
X185436028Y-103091987D01*
X185340025Y-103187990D01*
X185244022Y-103235991D01*
%TD*%
M02*
